%TF.GenerationSoftware,KiCad,Pcbnew,9.0.1*%
%TF.CreationDate,2025-04-08T23:22:12-05:00*%
%TF.ProjectId,sump-pump-mon,73756d70-2d70-4756-9d70-2d6d6f6e2e6b,rev?*%
%TF.SameCoordinates,Original*%
%TF.FileFunction,Copper,L1,Top*%
%TF.FilePolarity,Positive*%
%FSLAX46Y46*%
G04 Gerber Fmt 4.6, Leading zero omitted, Abs format (unit mm)*
G04 Created by KiCad (PCBNEW 9.0.1) date 2025-04-08 23:22:12*
%MOMM*%
%LPD*%
G01*
G04 APERTURE LIST*
G04 Aperture macros list*
%AMRoundRect*
0 Rectangle with rounded corners*
0 $1 Rounding radius*
0 $2 $3 $4 $5 $6 $7 $8 $9 X,Y pos of 4 corners*
0 Add a 4 corners polygon primitive as box body*
4,1,4,$2,$3,$4,$5,$6,$7,$8,$9,$2,$3,0*
0 Add four circle primitives for the rounded corners*
1,1,$1+$1,$2,$3*
1,1,$1+$1,$4,$5*
1,1,$1+$1,$6,$7*
1,1,$1+$1,$8,$9*
0 Add four rect primitives between the rounded corners*
20,1,$1+$1,$2,$3,$4,$5,0*
20,1,$1+$1,$4,$5,$6,$7,0*
20,1,$1+$1,$6,$7,$8,$9,0*
20,1,$1+$1,$8,$9,$2,$3,0*%
G04 Aperture macros list end*
%TA.AperFunction,ComponentPad*%
%ADD10O,1.600000X1.600000*%
%TD*%
%TA.AperFunction,ComponentPad*%
%ADD11C,1.600000*%
%TD*%
%TA.AperFunction,SMDPad,CuDef*%
%ADD12RoundRect,0.250000X1.250000X-0.550000X1.250000X0.550000X-1.250000X0.550000X-1.250000X-0.550000X0*%
%TD*%
%TA.AperFunction,SMDPad,CuDef*%
%ADD13RoundRect,0.250000X2.500000X-0.250000X2.500000X0.250000X-2.500000X0.250000X-2.500000X-0.250000X0*%
%TD*%
%TA.AperFunction,SMDPad,CuDef*%
%ADD14R,1.000000X1.500000*%
%TD*%
%TA.AperFunction,ComponentPad*%
%ADD15O,1.700000X1.950000*%
%TD*%
%TA.AperFunction,ComponentPad*%
%ADD16RoundRect,0.250000X-0.600000X-0.725000X0.600000X-0.725000X0.600000X0.725000X-0.600000X0.725000X0*%
%TD*%
%TA.AperFunction,ComponentPad*%
%ADD17R,1.930000X1.930000*%
%TD*%
%TA.AperFunction,ComponentPad*%
%ADD18C,1.930000*%
%TD*%
%TA.AperFunction,ComponentPad*%
%ADD19RoundRect,0.288462X1.211538X-1.211538X1.211538X1.211538X-1.211538X1.211538X-1.211538X-1.211538X0*%
%TD*%
%TA.AperFunction,ComponentPad*%
%ADD20C,3.000000*%
%TD*%
%TA.AperFunction,ComponentPad*%
%ADD21RoundRect,0.250000X-0.550000X0.550000X-0.550000X-0.550000X0.550000X-0.550000X0.550000X0.550000X0*%
%TD*%
%TA.AperFunction,ComponentPad*%
%ADD22R,1.600000X1.600000*%
%TD*%
%TA.AperFunction,ComponentPad*%
%ADD23RoundRect,0.250000X-0.600000X-0.750000X0.600000X-0.750000X0.600000X0.750000X-0.600000X0.750000X0*%
%TD*%
%TA.AperFunction,ComponentPad*%
%ADD24O,1.700000X2.000000*%
%TD*%
%TA.AperFunction,ComponentPad*%
%ADD25RoundRect,0.250000X0.550000X0.550000X-0.550000X0.550000X-0.550000X-0.550000X0.550000X-0.550000X0*%
%TD*%
%TA.AperFunction,ComponentPad*%
%ADD26R,2.400000X2.400000*%
%TD*%
%TA.AperFunction,ComponentPad*%
%ADD27O,2.400000X2.400000*%
%TD*%
%TA.AperFunction,ComponentPad*%
%ADD28RoundRect,0.250000X-0.750000X0.600000X-0.750000X-0.600000X0.750000X-0.600000X0.750000X0.600000X0*%
%TD*%
%TA.AperFunction,ComponentPad*%
%ADD29O,2.000000X1.700000*%
%TD*%
%TA.AperFunction,ComponentPad*%
%ADD30R,1.905000X2.000000*%
%TD*%
%TA.AperFunction,ComponentPad*%
%ADD31O,1.905000X2.000000*%
%TD*%
%TA.AperFunction,ComponentPad*%
%ADD32RoundRect,0.250000X0.725000X-0.600000X0.725000X0.600000X-0.725000X0.600000X-0.725000X-0.600000X0*%
%TD*%
%TA.AperFunction,ComponentPad*%
%ADD33O,1.950000X1.700000*%
%TD*%
%TA.AperFunction,ViaPad*%
%ADD34C,0.600000*%
%TD*%
%TA.AperFunction,Conductor*%
%ADD35C,0.500000*%
%TD*%
%TA.AperFunction,Conductor*%
%ADD36C,1.000000*%
%TD*%
%TA.AperFunction,Conductor*%
%ADD37C,1.500000*%
%TD*%
%TA.AperFunction,Conductor*%
%ADD38C,2.000000*%
%TD*%
G04 APERTURE END LIST*
D10*
%TO.P,R8,2*%
%TO.N,LED_6V*%
X166370000Y-74930000D03*
D11*
%TO.P,R8,1*%
%TO.N,Vin*%
X156210000Y-74930000D03*
%TD*%
D12*
%TO.P,J7,MP*%
%TO.N,N/C*%
X121440000Y-33970000D03*
X121440000Y-44770000D03*
D13*
%TO.P,J7,4,Pin_4*%
%TO.N,Net-(A1B-D1)*%
X123690000Y-36370000D03*
%TO.P,J7,3,Pin_3*%
%TO.N,Net-(A1B-D2)*%
X123690000Y-38370000D03*
%TO.P,J7,2,Pin_2*%
%TO.N,Net-(J6-Pin_2)*%
X123690000Y-40370000D03*
%TO.P,J7,1,Pin_1*%
%TO.N,GND*%
X123690000Y-42370000D03*
%TD*%
D14*
%TO.P,JP1,1,A*%
%TO.N,+3.3V*%
X124490000Y-52070000D03*
%TO.P,JP1,2,C*%
%TO.N,Net-(J6-Pin_2)*%
X123190000Y-52070000D03*
%TO.P,JP1,3,B*%
%TO.N,Vin*%
X121890000Y-52070000D03*
%TD*%
D15*
%TO.P,J6,4,Pin_4*%
%TO.N,Net-(A1B-D1)*%
X140850000Y-24130000D03*
%TO.P,J6,3,Pin_3*%
%TO.N,Net-(A1B-D2)*%
X138350000Y-24130000D03*
%TO.P,J6,2,Pin_2*%
%TO.N,Net-(J6-Pin_2)*%
X135850000Y-24130000D03*
D16*
%TO.P,J6,1,Pin_1*%
%TO.N,GND*%
X133350000Y-24130000D03*
%TD*%
D17*
%TO.P,A1,J1_1,A0*%
%TO.N,unconnected-(A1A-A0-PadJ1_1)*%
X129540000Y-35560000D03*
D18*
%TO.P,A1,J1_2,RSV1*%
%TO.N,unconnected-(A1A-RSV1-PadJ1_2)*%
X129540000Y-38100000D03*
%TO.P,A1,J1_3,RSV2*%
%TO.N,unconnected-(A1A-RSV2-PadJ1_3)*%
X129540000Y-40640000D03*
%TO.P,A1,J1_4,SD3*%
%TO.N,unconnected-(A1A-SD3-PadJ1_4)*%
X129540000Y-43180000D03*
%TO.P,A1,J1_5,SD2*%
%TO.N,unconnected-(A1A-SD2-PadJ1_5)*%
X129540000Y-45720000D03*
%TO.P,A1,J1_6,SD1*%
%TO.N,unconnected-(A1A-SD1-PadJ1_6)*%
X129540000Y-48260000D03*
%TO.P,A1,J1_7,CMD*%
%TO.N,unconnected-(A1A-CMD-PadJ1_7)*%
X129540000Y-50800000D03*
%TO.P,A1,J1_8,SD0*%
%TO.N,unconnected-(A1A-SD0-PadJ1_8)*%
X129540000Y-53340000D03*
%TO.P,A1,J1_9,CLK*%
%TO.N,unconnected-(A1A-CLK-PadJ1_9)*%
X129540000Y-55880000D03*
%TO.P,A1,J1_10,GND*%
%TO.N,GND*%
X129540000Y-58420000D03*
%TO.P,A1,J1_11,3V3*%
%TO.N,+3.3V*%
X129540000Y-60960000D03*
%TO.P,A1,J1_12,EN*%
%TO.N,unconnected-(A1A-EN-PadJ1_12)*%
X129540000Y-63500000D03*
%TO.P,A1,J1_13,RST*%
%TO.N,unconnected-(A1A-RST-PadJ1_13)*%
X129540000Y-66040000D03*
%TO.P,A1,J1_14,GND*%
%TO.N,GND*%
X129540000Y-68580000D03*
%TO.P,A1,J1_15,VIN*%
%TO.N,Vin*%
X129540000Y-71120000D03*
D17*
%TO.P,A1,J2_1,D0*%
%TO.N,Power_Failure*%
X152400000Y-35560000D03*
D18*
%TO.P,A1,J2_2,D1*%
%TO.N,Net-(A1B-D1)*%
X152400000Y-38100000D03*
%TO.P,A1,J2_3,D2*%
%TO.N,Net-(A1B-D2)*%
X152400000Y-40640000D03*
%TO.P,A1,J2_4,D3*%
%TO.N,Net-(A1B-D3)*%
X152400000Y-43180000D03*
%TO.P,A1,J2_5,D4*%
%TO.N,Net-(A1B-D4)*%
X152400000Y-45720000D03*
%TO.P,A1,J2_6,3V3*%
%TO.N,+3.3V*%
X152400000Y-48260000D03*
%TO.P,A1,J2_7,GND*%
%TO.N,GND*%
X152400000Y-50800000D03*
%TO.P,A1,J2_8,D5*%
%TO.N,Aux_Input*%
X152400000Y-53340000D03*
%TO.P,A1,J2_9,D6*%
%TO.N,Main_Input*%
X152400000Y-55880000D03*
%TO.P,A1,J2_10,D7*%
%TO.N,Mode*%
X152400000Y-58420000D03*
%TO.P,A1,J2_11,D8*%
%TO.N,Net-(A1B-D8)*%
X152400000Y-60960000D03*
%TO.P,A1,J2_12,D9*%
%TO.N,unconnected-(A1B-D9-PadJ2_12)*%
X152400000Y-63500000D03*
%TO.P,A1,J2_13,D10*%
%TO.N,unconnected-(A1B-D10-PadJ2_13)*%
X152400000Y-66040000D03*
%TO.P,A1,J2_14,GND*%
%TO.N,GND*%
X152400000Y-68580000D03*
%TO.P,A1,J2_15,3V3*%
%TO.N,+3.3V*%
X152400000Y-71120000D03*
%TD*%
D19*
%TO.P,J5,1,Pin_1*%
%TO.N,Net-(J5-Pin_1)*%
X208280000Y-48134110D03*
D20*
%TO.P,J5,2,Pin_2*%
%TO.N,Vin*%
X208280000Y-43054110D03*
%TD*%
D21*
%TO.P,U2,1*%
%TO.N,Net-(R1-Pad2)*%
X175260000Y-50800000D03*
D11*
%TO.P,U2,2*%
%TO.N,LED_MAIN*%
X172720000Y-50800000D03*
%TO.P,U2,3,NC*%
%TO.N,unconnected-(U2-NC-Pad3)*%
X170180000Y-50800000D03*
%TO.P,U2,4*%
%TO.N,GND*%
X170180000Y-58420000D03*
%TO.P,U2,5*%
%TO.N,Main_Input*%
X172720000Y-58420000D03*
%TO.P,U2,6*%
%TO.N,unconnected-(U2-Pad6)*%
X175260000Y-58420000D03*
%TD*%
D22*
%TO.P,C2,1*%
%TO.N,Net-(D6-A)*%
X172720000Y-62230000D03*
D11*
%TO.P,C2,2*%
%TO.N,GND*%
X170220000Y-62230000D03*
%TD*%
D23*
%TO.P,J2,1,Pin_1*%
%TO.N,Net-(J2-Pin_1)*%
X205740000Y-65405000D03*
D24*
%TO.P,J2,2,Pin_2*%
%TO.N,GND*%
X208240000Y-65405000D03*
%TD*%
D11*
%TO.P,R2,1*%
%TO.N,Net-(J5-Pin_1)*%
X198120000Y-48260000D03*
D10*
%TO.P,R2,2*%
%TO.N,Net-(R2-Pad2)*%
X187960000Y-48260000D03*
%TD*%
D19*
%TO.P,J1,1,Pin_1*%
%TO.N,Vin*%
X208280000Y-37974110D03*
D20*
%TO.P,J1,2,Pin_2*%
%TO.N,Net-(J1-Pin_2)*%
X208280000Y-32894110D03*
%TD*%
D25*
%TO.P,U4,1*%
%TO.N,Net-(R4-Pad2)*%
X177800000Y-29210000D03*
D11*
%TO.P,U4,2*%
%TO.N,GND*%
X177800000Y-26670000D03*
%TO.P,U4,3,NC*%
%TO.N,unconnected-(U4-NC-Pad3)*%
X177800000Y-24130000D03*
%TO.P,U4,4*%
%TO.N,GND*%
X170180000Y-24130000D03*
%TO.P,U4,5*%
%TO.N,Power_Failure*%
X170180000Y-26670000D03*
%TO.P,U4,6*%
%TO.N,unconnected-(U4-Pad6)*%
X170180000Y-29210000D03*
%TD*%
D23*
%TO.P,J3,1,Pin_1*%
%TO.N,Net-(D5-A)*%
X205740000Y-55880000D03*
D24*
%TO.P,J3,2,Pin_2*%
%TO.N,GND*%
X208240000Y-55880000D03*
%TD*%
D26*
%TO.P,D8,1,K*%
%TO.N,GND*%
X181610000Y-38100000D03*
D27*
%TO.P,D8,2,A*%
%TO.N,Net-(D7-K)*%
X181610000Y-48260000D03*
%TD*%
D22*
%TO.P,C1,1*%
%TO.N,Net-(J2-Pin_1)*%
X194310000Y-59690000D03*
D11*
%TO.P,C1,2*%
%TO.N,GND*%
X194310000Y-57190000D03*
%TD*%
D28*
%TO.P,SW3,1,A*%
%TO.N,Mode*%
X160020000Y-68580000D03*
D29*
%TO.P,SW3,2,B*%
%TO.N,GND*%
X160020000Y-71080000D03*
%TD*%
D11*
%TO.P,R4,1*%
%TO.N,Vin*%
X198120000Y-44324110D03*
D10*
%TO.P,R4,2*%
%TO.N,Net-(R4-Pad2)*%
X187960000Y-44324110D03*
%TD*%
D22*
%TO.P,C3,1*%
%TO.N,+3.3V*%
X123190000Y-60960000D03*
D11*
%TO.P,C3,2*%
%TO.N,GND*%
X123190000Y-58460000D03*
%TD*%
D23*
%TO.P,SW4,1,A*%
%TO.N,Net-(D5-K)*%
X194601821Y-37974110D03*
D24*
%TO.P,SW4,2,B*%
%TO.N,Vin*%
X197101821Y-37974110D03*
%TD*%
D30*
%TO.P,U1,1,IN*%
%TO.N,Net-(J2-Pin_1)*%
X186690000Y-71755000D03*
D31*
%TO.P,U1,2,GND*%
%TO.N,Net-(D7-A)*%
X184150000Y-71755000D03*
%TO.P,U1,3,OUT*%
%TO.N,Net-(D6-A)*%
X181610000Y-71755000D03*
%TD*%
D11*
%TO.P,R13,1*%
%TO.N,+3.3V*%
X160020000Y-25400000D03*
D10*
%TO.P,R13,2*%
%TO.N,Net-(A1B-D1)*%
X149860000Y-25400000D03*
%TD*%
D32*
%TO.P,J4,1,Pin_1*%
%TO.N,LED_6V*%
X163830000Y-60960000D03*
D33*
%TO.P,J4,2,Pin_2*%
%TO.N,Mode*%
X163830000Y-58460000D03*
%TO.P,J4,3,Pin_3*%
%TO.N,Main_Input*%
X163830000Y-55960000D03*
%TO.P,J4,4,Pin_4*%
%TO.N,LED_MAIN*%
X163830000Y-53460000D03*
%TO.P,J4,5,Pin_5*%
%TO.N,Aux_Input*%
X163830000Y-50960000D03*
%TO.P,J4,6,Pin_6*%
%TO.N,GND*%
X163830000Y-48460000D03*
%TO.P,J4,7,Pin_7*%
X163830000Y-45960000D03*
%TO.P,J4,8,Pin_8*%
%TO.N,LED_BLUE*%
X163830000Y-43460000D03*
%TO.P,J4,9,Pin_9*%
%TO.N,LED_AUX*%
X163830000Y-40960000D03*
%TO.P,J4,10,Pin_10*%
%TO.N,LED_GREEN*%
X163830000Y-38460000D03*
%TO.P,J4,11,Pin_11*%
%TO.N,+3.3V*%
X163830000Y-35960000D03*
%TO.P,J4,12,Pin_12*%
%TO.N,LED_YELLOW*%
X163830000Y-33460000D03*
%TD*%
D21*
%TO.P,U3,1*%
%TO.N,Net-(R2-Pad2)*%
X175260000Y-35560000D03*
D11*
%TO.P,U3,2*%
%TO.N,LED_AUX*%
X172720000Y-35560000D03*
%TO.P,U3,3,NC*%
%TO.N,unconnected-(U3-NC-Pad3)*%
X170180000Y-35560000D03*
%TO.P,U3,4*%
%TO.N,GND*%
X170180000Y-43180000D03*
%TO.P,U3,5*%
%TO.N,Aux_Input*%
X172720000Y-43180000D03*
%TO.P,U3,6*%
%TO.N,unconnected-(U3-Pad6)*%
X175260000Y-43180000D03*
%TD*%
%TO.P,R1,1*%
%TO.N,Net-(J1-Pin_2)*%
X189230000Y-34290000D03*
D10*
%TO.P,R1,2*%
%TO.N,Net-(R1-Pad2)*%
X179070000Y-34290000D03*
%TD*%
D26*
%TO.P,D6,1,K*%
%TO.N,Net-(D5-K)*%
X189230000Y-57150000D03*
D27*
%TO.P,D6,2,A*%
%TO.N,Net-(D6-A)*%
X179070000Y-57150000D03*
%TD*%
D26*
%TO.P,D5,1,K*%
%TO.N,Net-(D5-K)*%
X189521821Y-52070000D03*
D27*
%TO.P,D5,2,A*%
%TO.N,Net-(D5-A)*%
X199681821Y-52070000D03*
%TD*%
D11*
%TO.P,R7,1*%
%TO.N,+3.3V*%
X147320000Y-45720000D03*
D10*
%TO.P,R7,2*%
%TO.N,Power_Failure*%
X147320000Y-35560000D03*
%TD*%
D11*
%TO.P,R14,1*%
%TO.N,+3.3V*%
X138430000Y-48260000D03*
D10*
%TO.P,R14,2*%
%TO.N,Net-(A1B-D2)*%
X138430000Y-38100000D03*
%TD*%
D11*
%TO.P,R6,1*%
%TO.N,+3.3V*%
X134620000Y-43180000D03*
D10*
%TO.P,R6,2*%
%TO.N,Aux_Input*%
X134620000Y-53340000D03*
%TD*%
D11*
%TO.P,R10,1*%
%TO.N,Net-(A1B-D4)*%
X143510000Y-44450000D03*
D10*
%TO.P,R10,2*%
%TO.N,LED_YELLOW*%
X143510000Y-34290000D03*
%TD*%
D11*
%TO.P,R11,1*%
%TO.N,Net-(A1B-D8)*%
X157480000Y-60960000D03*
D10*
%TO.P,R11,2*%
%TO.N,LED_BLUE*%
X157480000Y-50800000D03*
%TD*%
D26*
%TO.P,D7,1,K*%
%TO.N,Net-(D7-K)*%
X182880000Y-52070000D03*
D27*
%TO.P,D7,2,A*%
%TO.N,Net-(D7-A)*%
X182880000Y-62230000D03*
%TD*%
D11*
%TO.P,R9,1*%
%TO.N,Net-(A1B-D3)*%
X157480000Y-43180000D03*
D10*
%TO.P,R9,2*%
%TO.N,LED_GREEN*%
X157480000Y-33020000D03*
%TD*%
D11*
%TO.P,R5,1*%
%TO.N,+3.3V*%
X141308826Y-66040000D03*
D10*
%TO.P,R5,2*%
%TO.N,Main_Input*%
X141308826Y-55880000D03*
%TD*%
D11*
%TO.P,R12,1*%
%TO.N,+3.3V*%
X147658826Y-68580000D03*
D10*
%TO.P,R12,2*%
%TO.N,Mode*%
X147658826Y-58420000D03*
%TD*%
D34*
%TO.N,Net-(A1B-D2)*%
X138470000Y-34250000D03*
%TO.N,Net-(J6-Pin_2)*%
X120142000Y-39878000D03*
%TO.N,Net-(A1B-D2)*%
X120142000Y-38608000D03*
%TO.N,Net-(A1B-D1)*%
X121666000Y-37370000D03*
%TO.N,Net-(A1B-D2)*%
X127000000Y-38100000D03*
%TO.N,GND*%
X124460000Y-44450000D03*
%TD*%
D35*
%TO.N,Net-(J6-Pin_2)*%
X135850000Y-25400000D02*
X135850000Y-24130000D01*
X127751000Y-30999000D02*
X130810000Y-27940000D01*
X133310000Y-27940000D02*
X135850000Y-25400000D01*
X127751000Y-40386000D02*
X127751000Y-30999000D01*
X130810000Y-27940000D02*
X133310000Y-27940000D01*
%TO.N,Net-(A1B-D1)*%
X132490000Y-22704000D02*
X133604000Y-21590000D01*
X132452708Y-22704000D02*
X132490000Y-22704000D01*
X132049000Y-23107708D02*
X132452708Y-22704000D01*
X133604000Y-21590000D02*
X138310000Y-21590000D01*
X123690000Y-31504000D02*
X132049000Y-23145000D01*
X132049000Y-23145000D02*
X132049000Y-23107708D01*
X138310000Y-21590000D02*
X140850000Y-24130000D01*
X123690000Y-36370000D02*
X123690000Y-31504000D01*
D36*
X148590000Y-24130000D02*
X149860000Y-25400000D01*
X140850000Y-24130000D02*
X148590000Y-24130000D01*
%TO.N,Net-(A1B-D2)*%
X138350000Y-34130000D02*
X138470000Y-34250000D01*
X138350000Y-24130000D02*
X138350000Y-34130000D01*
%TO.N,Net-(A1B-D1)*%
X140850000Y-35440000D02*
X140850000Y-24130000D01*
X143510000Y-38100000D02*
X140850000Y-35440000D01*
X152400000Y-38100000D02*
X143510000Y-38100000D01*
%TO.N,Net-(D5-A)*%
X203491821Y-55880000D02*
X199681821Y-52070000D01*
X205740000Y-55880000D02*
X203491821Y-55880000D01*
D35*
%TO.N,Net-(J6-Pin_2)*%
X127751000Y-46259000D02*
X127751000Y-40386000D01*
X123190000Y-50820000D02*
X127751000Y-46259000D01*
X123190000Y-52070000D02*
X123190000Y-50820000D01*
%TO.N,Vin*%
X121890000Y-53370000D02*
X120650000Y-54610000D01*
%TO.N,Net-(A1B-D2)*%
X138364000Y-34144000D02*
X138470000Y-34250000D01*
%TO.N,Vin*%
X120650000Y-54610000D02*
X120650000Y-62230000D01*
X120650000Y-62230000D02*
X129540000Y-71120000D01*
X121890000Y-52070000D02*
X121890000Y-53370000D01*
%TO.N,+3.3V*%
X125760000Y-60930000D02*
X125730000Y-60960000D01*
X124460000Y-54610000D02*
X125760000Y-55910000D01*
X125760000Y-55910000D02*
X125760000Y-60930000D01*
X124490000Y-52070000D02*
X124460000Y-52100000D01*
X124460000Y-52100000D02*
X124460000Y-54610000D01*
D36*
X125730000Y-60960000D02*
X129540000Y-60960000D01*
%TO.N,Power_Failure*%
X154940000Y-26035000D02*
X158115000Y-22860000D01*
X166370000Y-22860000D02*
X170180000Y-26670000D01*
X152400000Y-35560000D02*
X154940000Y-33020000D01*
X154940000Y-33020000D02*
X154940000Y-26035000D01*
X152400000Y-35560000D02*
X147320000Y-35560000D01*
X158115000Y-22860000D02*
X166370000Y-22860000D01*
D37*
%TO.N,Vin*%
X197101821Y-37974110D02*
X197101821Y-43305931D01*
D36*
X189419000Y-77281000D02*
X196619000Y-70081000D01*
D38*
X208280000Y-37974110D02*
X208280000Y-43054110D01*
D36*
X167829000Y-77281000D02*
X189419000Y-77281000D01*
X129540000Y-71120000D02*
X137645184Y-71120000D01*
X196619000Y-45825110D02*
X198120000Y-44324110D01*
D37*
X197101821Y-43305931D02*
X198120000Y-44324110D01*
D36*
X137645184Y-71120000D02*
X143806184Y-77281000D01*
X156210000Y-74930000D02*
X156210000Y-77281000D01*
X167829000Y-77281000D02*
X156210000Y-77281000D01*
X143806184Y-77281000D02*
X156210000Y-77281000D01*
D37*
X197101821Y-37974110D02*
X208280000Y-37974110D01*
D36*
X196619000Y-70081000D02*
X196619000Y-45825110D01*
%TO.N,Net-(A1B-D8)*%
X157480000Y-60960000D02*
X152400000Y-60960000D01*
%TO.N,+3.3V*%
X160020000Y-43288868D02*
X160020000Y-35560000D01*
X147320000Y-48260000D02*
X138430000Y-48260000D01*
X160020000Y-35560000D02*
X160020000Y-25400000D01*
X160420000Y-35960000D02*
X163830000Y-35960000D01*
X138430000Y-48260000D02*
X138430000Y-46990000D01*
X147320000Y-45720000D02*
X147320000Y-48260000D01*
X147658826Y-68580000D02*
X143510000Y-68580000D01*
X155048868Y-48260000D02*
X160020000Y-43288868D01*
X152400000Y-48260000D02*
X155048868Y-48260000D01*
X152400000Y-71120000D02*
X149860000Y-68580000D01*
X138430000Y-46990000D02*
X134620000Y-43180000D01*
X160020000Y-35560000D02*
X160420000Y-35960000D01*
X141308826Y-66378826D02*
X141308826Y-66040000D01*
X152400000Y-48260000D02*
X147320000Y-48260000D01*
X143510000Y-68580000D02*
X141308826Y-66378826D01*
X149860000Y-68580000D02*
X147658826Y-68580000D01*
X123190000Y-60960000D02*
X125730000Y-60960000D01*
%TO.N,Mode*%
X160020000Y-68580000D02*
X160020000Y-58420000D01*
X160060000Y-58460000D02*
X160020000Y-58420000D01*
X147658826Y-58420000D02*
X152400000Y-58420000D01*
X152400000Y-58420000D02*
X160020000Y-58420000D01*
X163830000Y-58460000D02*
X160060000Y-58460000D01*
%TO.N,Net-(A1B-D2)*%
X138430000Y-38100000D02*
X138430000Y-34290000D01*
X152400000Y-40640000D02*
X140970000Y-40640000D01*
X138430000Y-34290000D02*
X138470000Y-34250000D01*
X140970000Y-40640000D02*
X138430000Y-38100000D01*
%TO.N,Aux_Input*%
X166845000Y-50960000D02*
X172720000Y-45085000D01*
X172720000Y-45085000D02*
X172720000Y-43180000D01*
X163830000Y-50960000D02*
X166845000Y-50960000D01*
X163830000Y-50960000D02*
X161130000Y-50960000D01*
X158750000Y-53340000D02*
X152400000Y-53340000D01*
X134620000Y-53340000D02*
X152400000Y-53340000D01*
X161130000Y-50960000D02*
X158750000Y-53340000D01*
%TO.N,Main_Input*%
X163830000Y-55960000D02*
X152480000Y-55960000D01*
X170260000Y-55960000D02*
X172720000Y-58420000D01*
X152480000Y-55960000D02*
X152400000Y-55880000D01*
X163830000Y-55960000D02*
X170260000Y-55960000D01*
X141308826Y-55880000D02*
X152400000Y-55880000D01*
%TO.N,LED_6V*%
X163830000Y-72390000D02*
X166370000Y-74930000D01*
X163830000Y-60960000D02*
X163830000Y-72390000D01*
%TO.N,Net-(R4-Pad2)*%
X187960000Y-36830000D02*
X180340000Y-29210000D01*
X180340000Y-29210000D02*
X177800000Y-29210000D01*
X187960000Y-44324110D02*
X187960000Y-36830000D01*
%TO.N,Net-(D6-A)*%
X172720000Y-62230000D02*
X172720000Y-67310000D01*
X172720000Y-67310000D02*
X177165000Y-71755000D01*
X179070000Y-57150000D02*
X173990000Y-62230000D01*
X173990000Y-62230000D02*
X172720000Y-62230000D01*
X177165000Y-71755000D02*
X181610000Y-71755000D01*
%TO.N,Net-(D7-A)*%
X182880000Y-65405000D02*
X184150000Y-66675000D01*
X184150000Y-66675000D02*
X184150000Y-71755000D01*
X182880000Y-62230000D02*
X182880000Y-65405000D01*
%TO.N,Net-(D7-K)*%
X181610000Y-48260000D02*
X182880000Y-49530000D01*
X182880000Y-49530000D02*
X182880000Y-52070000D01*
%TO.N,Net-(J1-Pin_2)*%
X191895890Y-32894110D02*
X208280000Y-32894110D01*
X189230000Y-34290000D02*
X190500000Y-34290000D01*
X190500000Y-34290000D02*
X191895890Y-32894110D01*
%TO.N,Net-(J5-Pin_1)*%
X200660000Y-48134110D02*
X208280000Y-48134110D01*
X200534110Y-48260000D02*
X200660000Y-48134110D01*
X198120000Y-48260000D02*
X200534110Y-48260000D01*
D37*
%TO.N,Net-(D5-K)*%
X189521821Y-56858179D02*
X189230000Y-57150000D01*
X189521821Y-52070000D02*
X189521821Y-56858179D01*
X194601821Y-50295519D02*
X192827340Y-52070000D01*
X192827340Y-52070000D02*
X189521821Y-52070000D01*
X194601821Y-37974110D02*
X194601821Y-50295519D01*
D36*
%TO.N,Net-(A1B-D4)*%
X143510000Y-44450000D02*
X144309999Y-43650001D01*
X150330001Y-43650001D02*
X152400000Y-45720000D01*
X144309999Y-43650001D02*
X150330001Y-43650001D01*
%TO.N,LED_BLUE*%
X163830000Y-43460000D02*
X162280000Y-43460000D01*
X157480000Y-48260000D02*
X157480000Y-50800000D01*
X162280000Y-43460000D02*
X157480000Y-48260000D01*
%TO.N,Net-(J2-Pin_1)*%
X186690000Y-69850000D02*
X194310000Y-62230000D01*
X194310000Y-62230000D02*
X194310000Y-59690000D01*
X186690000Y-71755000D02*
X186690000Y-69850000D01*
%TO.N,LED_AUX*%
X163830000Y-40960000D02*
X169860000Y-40960000D01*
X172720000Y-38100000D02*
X172720000Y-35560000D01*
X169860000Y-40960000D02*
X172720000Y-38100000D01*
%TO.N,Net-(R1-Pad2)*%
X177800000Y-48260000D02*
X175260000Y-50800000D01*
X177800000Y-35560000D02*
X177800000Y-48260000D01*
X179070000Y-34290000D02*
X177800000Y-35560000D01*
%TO.N,Net-(R2-Pad2)*%
X187960000Y-48260000D02*
X186690000Y-48260000D01*
X180766368Y-31750000D02*
X177800000Y-31750000D01*
X186690000Y-48260000D02*
X185420000Y-46990000D01*
X185420000Y-46990000D02*
X185420000Y-36403632D01*
X175260000Y-34290000D02*
X175260000Y-35560000D01*
X185420000Y-36403632D02*
X180766368Y-31750000D01*
X177800000Y-31750000D02*
X175260000Y-34290000D01*
%TO.N,LED_MAIN*%
X170060000Y-53460000D02*
X172720000Y-50800000D01*
X163830000Y-53460000D02*
X170060000Y-53460000D01*
%TO.N,Net-(A1B-D3)*%
X157480000Y-43180000D02*
X152400000Y-43180000D01*
D35*
%TO.N,Net-(A1B-D1)*%
X122690000Y-37370000D02*
X123690000Y-36370000D01*
X121666000Y-37370000D02*
X122690000Y-37370000D01*
%TO.N,Net-(A1B-D2)*%
X123690000Y-38370000D02*
X126730000Y-38370000D01*
X123452000Y-38608000D02*
X123690000Y-38370000D01*
X120142000Y-38608000D02*
X123452000Y-38608000D01*
%TO.N,Net-(J6-Pin_2)*%
X123198000Y-39878000D02*
X123690000Y-40370000D01*
X120142000Y-39878000D02*
X123198000Y-39878000D01*
%TO.N,Net-(A1B-D2)*%
X126730000Y-38370000D02*
X127000000Y-38100000D01*
%TO.N,Net-(J6-Pin_2)*%
X123690000Y-40370000D02*
X127735000Y-40370000D01*
%TO.N,GND*%
X123690000Y-43680000D02*
X124460000Y-44450000D01*
X123690000Y-42370000D02*
X123690000Y-43680000D01*
%TO.N,Net-(J6-Pin_2)*%
X127735000Y-40370000D02*
X127751000Y-40386000D01*
%TD*%
M02*
