M48
; DRILL file {KiCad 9.0.1} date 2025-04-08T07:51:16-0500
; FORMAT={-:-/ absolute / metric / decimal}
; #@! TF.CreationDate,2025-04-08T07:51:16-05:00
; #@! TF.GenerationSoftware,Kicad,Pcbnew,9.0.1
; #@! TF.FileFunction,Plated,1,2,PTH
FMAT,2
METRIC
; #@! TA.AperFunction,Plated,PTH,ComponentDrill
T1C0.800
; #@! TA.AperFunction,Plated,PTH,ComponentDrill
T2C0.889
; #@! TA.AperFunction,Plated,PTH,ComponentDrill
T3C0.950
; #@! TA.AperFunction,Plated,PTH,ComponentDrill
T4C1.000
; #@! TA.AperFunction,Plated,PTH,ComponentDrill
T5C1.100
; #@! TA.AperFunction,Plated,PTH,ComponentDrill
T6C1.200
; #@! TA.AperFunction,Plated,PTH,ComponentDrill
T7C1.500
%
G90
G05
T1
X133.35Y-58.46
X133.35Y-60.96
X134.62Y-43.18
X134.62Y-53.34
X138.43Y-38.1
X138.43Y-48.26
X141.309Y-55.88
X141.309Y-66.04
X143.51Y-34.29
X143.51Y-44.45
X147.32Y-35.56
X147.32Y-45.72
X147.659Y-58.42
X147.659Y-68.58
X149.86Y-26.67
X156.21Y-74.93
X157.48Y-33.02
X157.48Y-43.18
X157.48Y-50.8
X157.48Y-60.96
X160.02Y-26.67
X166.37Y-74.93
X170.18Y-24.13
X170.18Y-26.67
X170.18Y-29.21
X170.18Y-35.56
X170.18Y-43.18
X170.18Y-50.8
X170.18Y-58.42
X170.22Y-62.23
X172.72Y-35.56
X172.72Y-43.18
X172.72Y-50.8
X172.72Y-58.42
X172.72Y-62.23
X175.26Y-35.56
X175.26Y-43.18
X175.26Y-50.8
X175.26Y-58.42
X177.8Y-24.13
X177.8Y-26.67
X177.8Y-29.21
X179.07Y-34.29
X187.96Y-44.324
X187.96Y-48.26
X189.23Y-34.29
X194.31Y-57.19
X194.31Y-59.69
X198.12Y-44.324
X198.12Y-48.26
T2
X129.54Y-35.56
X129.54Y-38.1
X129.54Y-40.64
X129.54Y-43.18
X129.54Y-45.72
X129.54Y-48.26
X129.54Y-50.8
X129.54Y-53.34
X129.54Y-55.88
X129.54Y-58.42
X129.54Y-60.96
X129.54Y-63.5
X129.54Y-66.04
X129.54Y-68.58
X129.54Y-71.12
X152.4Y-35.56
X152.4Y-38.1
X152.4Y-40.64
X152.4Y-43.18
X152.4Y-45.72
X152.4Y-48.26
X152.4Y-50.8
X152.4Y-53.34
X152.4Y-55.88
X152.4Y-58.42
X152.4Y-60.96
X152.4Y-63.5
X152.4Y-66.04
X152.4Y-68.58
X152.4Y-71.12
T3
X163.83Y-33.46
X163.83Y-35.96
X163.83Y-38.46
X163.83Y-40.96
X163.83Y-43.46
X163.83Y-45.96
X163.83Y-48.46
X163.83Y-50.96
X163.83Y-53.46
X163.83Y-55.96
X163.83Y-58.46
X163.83Y-60.96
T4
X138.47Y-25.4
X140.97Y-25.4
X160.02Y-68.58
X160.02Y-71.08
X194.602Y-37.974
X197.102Y-37.974
X205.74Y-64.77
X205.78Y-57.15
X208.24Y-64.77
X208.28Y-57.15
T5
X181.61Y-71.755
X184.15Y-71.755
X186.69Y-71.755
T6
X179.07Y-57.15
X181.61Y-38.1
X181.61Y-48.26
X182.88Y-52.07
X182.88Y-62.23
X189.23Y-57.15
X189.522Y-52.07
X199.682Y-52.07
T7
X208.28Y-32.894
X208.28Y-37.974
X208.28Y-43.054
X208.28Y-48.134
M30
