M48
; DRILL file {KiCad 9.0.1} date 2025-04-03T23:22:49-0500
; FORMAT={-:-/ absolute / metric / decimal}
; #@! TF.CreationDate,2025-04-03T23:22:49-05:00
; #@! TF.GenerationSoftware,Kicad,Pcbnew,9.0.1
; #@! TF.FileFunction,Plated,1,2,PTH
FMAT,2
METRIC
; #@! TA.AperFunction,Plated,PTH,ViaDrill
T1C0.300
; #@! TA.AperFunction,Plated,PTH,ComponentDrill
T2C0.800
; #@! TA.AperFunction,Plated,PTH,ComponentDrill
T3C0.889
; #@! TA.AperFunction,Plated,PTH,ComponentDrill
T4C0.950
; #@! TA.AperFunction,Plated,PTH,ComponentDrill
T5C1.000
; #@! TA.AperFunction,Plated,PTH,ComponentDrill
T6C1.100
; #@! TA.AperFunction,Plated,PTH,ComponentDrill
T7C1.200
; #@! TA.AperFunction,Plated,PTH,ComponentDrill
T8C1.500
%
G90
G05
T1
X152.4Y-26.401
X154.94Y-35.56
X157.48Y-48.26
X167.64Y-24.13
X167.64Y-34.29
X170.18Y-55.88
X172.72Y-60.96
X175.26Y-45.72
X175.26Y-66.04
X182.88Y-27.94
X182.88Y-54.61
X193.04Y-43.18
X198.12Y-38.1
T2
X116.84Y-40.64
X116.84Y-50.8
X116.84Y-58.42
X119.34Y-58.42
X143.51Y-21.59
X152.4Y-35.56
X152.4Y-45.72
X152.4Y-48.26
X152.4Y-58.42
X152.4Y-60.96
X152.4Y-71.12
X153.67Y-21.59
X157.48Y-30.48
X157.48Y-40.64
X157.48Y-43.18
X157.48Y-53.34
X157.48Y-55.88
X157.48Y-66.04
X170.18Y-35.56
X170.18Y-43.18
X172.72Y-35.56
X172.72Y-43.18
X175.26Y-30.48
X175.26Y-35.56
X175.26Y-43.18
X180.34Y-35.56
X180.34Y-45.72
X185.42Y-30.48
X185.42Y-45.72
X185.42Y-48.26
X185.42Y-50.8
X187.96Y-26.67
X187.96Y-29.21
X187.96Y-31.75
X187.96Y-40.64
X193.04Y-45.72
X193.04Y-48.26
X193.04Y-50.8
X195.58Y-26.67
X195.58Y-29.21
X195.58Y-31.75
X195.58Y-63.54
X195.58Y-66.04
X198.12Y-27.94
X198.12Y-40.64
X198.12Y-45.72
X203.2Y-63.54
X203.2Y-66.04
X208.28Y-27.94
X208.28Y-45.72
T3
X123.19Y-35.56
X123.19Y-38.1
X123.19Y-40.64
X123.19Y-43.18
X123.19Y-45.72
X123.19Y-48.26
X123.19Y-50.8
X123.19Y-53.34
X123.19Y-55.88
X123.19Y-58.42
X123.19Y-60.96
X123.19Y-63.5
X123.19Y-66.04
X123.19Y-68.58
X123.19Y-71.12
X146.05Y-35.56
X146.05Y-38.1
X146.05Y-40.64
X146.05Y-43.18
X146.05Y-45.72
X146.05Y-48.26
X146.05Y-50.8
X146.05Y-53.34
X146.05Y-55.88
X146.05Y-58.42
X146.05Y-60.96
X146.05Y-63.5
X146.05Y-66.04
X146.05Y-68.58
X146.05Y-71.12
T4
X163.83Y-28.38
X163.83Y-30.88
X163.83Y-33.38
X163.83Y-35.88
X163.83Y-38.38
X163.83Y-40.88
X163.83Y-43.38
X163.83Y-45.88
X163.83Y-48.38
X163.83Y-50.88
X163.83Y-53.38
X163.83Y-55.88
T5
X133.39Y-24.13
X135.89Y-24.13
X172.72Y-50.8
X175.22Y-50.8
X203.2Y-38.1
X205.7Y-38.1
X214.63Y-53.38
X214.63Y-55.88
X214.63Y-63.54
X214.63Y-66.04
T6
X198.12Y-71.12
X200.66Y-71.12
X203.2Y-71.12
T7
X180.34Y-58.42
X180.34Y-66.04
X190.5Y-58.42
X190.5Y-66.04
X198.12Y-50.8
X198.12Y-58.42
X208.28Y-50.8
X208.28Y-58.42
T8
X218.44Y-30.48
X218.44Y-35.56
X218.44Y-40.64
X218.44Y-45.72
M30
