%TF.GenerationSoftware,KiCad,Pcbnew,9.0.1*%
%TF.CreationDate,2025-04-08T23:22:12-05:00*%
%TF.ProjectId,sump-pump-mon,73756d70-2d70-4756-9d70-2d6d6f6e2e6b,rev?*%
%TF.SameCoordinates,Original*%
%TF.FileFunction,Legend,Top*%
%TF.FilePolarity,Positive*%
%FSLAX46Y46*%
G04 Gerber Fmt 4.6, Leading zero omitted, Abs format (unit mm)*
G04 Created by KiCad (PCBNEW 9.0.1) date 2025-04-08 23:22:12*
%MOMM*%
%LPD*%
G01*
G04 APERTURE LIST*
%ADD10C,0.150000*%
%ADD11C,0.120000*%
%ADD12C,0.127000*%
%ADD13C,0.200000*%
G04 APERTURE END LIST*
D10*
X118954779Y-49907819D02*
X118954779Y-48907819D01*
X119383350Y-49003057D02*
X119430969Y-48955438D01*
X119430969Y-48955438D02*
X119526207Y-48907819D01*
X119526207Y-48907819D02*
X119764302Y-48907819D01*
X119764302Y-48907819D02*
X119859540Y-48955438D01*
X119859540Y-48955438D02*
X119907159Y-49003057D01*
X119907159Y-49003057D02*
X119954778Y-49098295D01*
X119954778Y-49098295D02*
X119954778Y-49193533D01*
X119954778Y-49193533D02*
X119907159Y-49336390D01*
X119907159Y-49336390D02*
X119335731Y-49907819D01*
X119335731Y-49907819D02*
X119954778Y-49907819D01*
X120954778Y-49812580D02*
X120907159Y-49860200D01*
X120907159Y-49860200D02*
X120764302Y-49907819D01*
X120764302Y-49907819D02*
X120669064Y-49907819D01*
X120669064Y-49907819D02*
X120526207Y-49860200D01*
X120526207Y-49860200D02*
X120430969Y-49764961D01*
X120430969Y-49764961D02*
X120383350Y-49669723D01*
X120383350Y-49669723D02*
X120335731Y-49479247D01*
X120335731Y-49479247D02*
X120335731Y-49336390D01*
X120335731Y-49336390D02*
X120383350Y-49145914D01*
X120383350Y-49145914D02*
X120430969Y-49050676D01*
X120430969Y-49050676D02*
X120526207Y-48955438D01*
X120526207Y-48955438D02*
X120669064Y-48907819D01*
X120669064Y-48907819D02*
X120764302Y-48907819D01*
X120764302Y-48907819D02*
X120907159Y-48955438D01*
X120907159Y-48955438D02*
X120954778Y-49003057D01*
X122002398Y-48907819D02*
X122335731Y-49907819D01*
X122335731Y-49907819D02*
X122669064Y-48907819D01*
X123430969Y-49860200D02*
X123335731Y-49907819D01*
X123335731Y-49907819D02*
X123145255Y-49907819D01*
X123145255Y-49907819D02*
X123050017Y-49860200D01*
X123050017Y-49860200D02*
X123002398Y-49812580D01*
X123002398Y-49812580D02*
X122954779Y-49717342D01*
X122954779Y-49717342D02*
X122954779Y-49431628D01*
X122954779Y-49431628D02*
X123002398Y-49336390D01*
X123002398Y-49336390D02*
X123050017Y-49288771D01*
X123050017Y-49288771D02*
X123145255Y-49241152D01*
X123145255Y-49241152D02*
X123335731Y-49241152D01*
X123335731Y-49241152D02*
X123430969Y-49288771D01*
X124288112Y-49860200D02*
X124192874Y-49907819D01*
X124192874Y-49907819D02*
X124002398Y-49907819D01*
X124002398Y-49907819D02*
X123907160Y-49860200D01*
X123907160Y-49860200D02*
X123859541Y-49812580D01*
X123859541Y-49812580D02*
X123811922Y-49717342D01*
X123811922Y-49717342D02*
X123811922Y-49431628D01*
X123811922Y-49431628D02*
X123859541Y-49336390D01*
X123859541Y-49336390D02*
X123907160Y-49288771D01*
X123907160Y-49288771D02*
X124002398Y-49241152D01*
X124002398Y-49241152D02*
X124192874Y-49241152D01*
X124192874Y-49241152D02*
X124288112Y-49288771D01*
X125430970Y-49860200D02*
X125573827Y-49907819D01*
X125573827Y-49907819D02*
X125811922Y-49907819D01*
X125811922Y-49907819D02*
X125907160Y-49860200D01*
X125907160Y-49860200D02*
X125954779Y-49812580D01*
X125954779Y-49812580D02*
X126002398Y-49717342D01*
X126002398Y-49717342D02*
X126002398Y-49622104D01*
X126002398Y-49622104D02*
X125954779Y-49526866D01*
X125954779Y-49526866D02*
X125907160Y-49479247D01*
X125907160Y-49479247D02*
X125811922Y-49431628D01*
X125811922Y-49431628D02*
X125621446Y-49384009D01*
X125621446Y-49384009D02*
X125526208Y-49336390D01*
X125526208Y-49336390D02*
X125478589Y-49288771D01*
X125478589Y-49288771D02*
X125430970Y-49193533D01*
X125430970Y-49193533D02*
X125430970Y-49098295D01*
X125430970Y-49098295D02*
X125478589Y-49003057D01*
X125478589Y-49003057D02*
X125526208Y-48955438D01*
X125526208Y-48955438D02*
X125621446Y-48907819D01*
X125621446Y-48907819D02*
X125859541Y-48907819D01*
X125859541Y-48907819D02*
X126002398Y-48955438D01*
X126811922Y-49860200D02*
X126716684Y-49907819D01*
X126716684Y-49907819D02*
X126526208Y-49907819D01*
X126526208Y-49907819D02*
X126430970Y-49860200D01*
X126430970Y-49860200D02*
X126383351Y-49764961D01*
X126383351Y-49764961D02*
X126383351Y-49384009D01*
X126383351Y-49384009D02*
X126430970Y-49288771D01*
X126430970Y-49288771D02*
X126526208Y-49241152D01*
X126526208Y-49241152D02*
X126716684Y-49241152D01*
X126716684Y-49241152D02*
X126811922Y-49288771D01*
X126811922Y-49288771D02*
X126859541Y-49384009D01*
X126859541Y-49384009D02*
X126859541Y-49479247D01*
X126859541Y-49479247D02*
X126383351Y-49574485D01*
X127430970Y-49907819D02*
X127335732Y-49860200D01*
X127335732Y-49860200D02*
X127288113Y-49764961D01*
X127288113Y-49764961D02*
X127288113Y-48907819D01*
X120510180Y-51247922D02*
X119510180Y-51581255D01*
X119510180Y-51581255D02*
X120510180Y-51914588D01*
X119510180Y-52247922D02*
X120176847Y-52247922D01*
X120510180Y-52247922D02*
X120462561Y-52200303D01*
X120462561Y-52200303D02*
X120414942Y-52247922D01*
X120414942Y-52247922D02*
X120462561Y-52295541D01*
X120462561Y-52295541D02*
X120510180Y-52247922D01*
X120510180Y-52247922D02*
X120414942Y-52247922D01*
X120176847Y-52724112D02*
X119510180Y-52724112D01*
X120081609Y-52724112D02*
X120129228Y-52771731D01*
X120129228Y-52771731D02*
X120176847Y-52866969D01*
X120176847Y-52866969D02*
X120176847Y-53009826D01*
X120176847Y-53009826D02*
X120129228Y-53105064D01*
X120129228Y-53105064D02*
X120033990Y-53152683D01*
X120033990Y-53152683D02*
X119510180Y-53152683D01*
X127114180Y-50787541D02*
X127114180Y-51406588D01*
X127114180Y-51406588D02*
X126733228Y-51073255D01*
X126733228Y-51073255D02*
X126733228Y-51216112D01*
X126733228Y-51216112D02*
X126685609Y-51311350D01*
X126685609Y-51311350D02*
X126637990Y-51358969D01*
X126637990Y-51358969D02*
X126542752Y-51406588D01*
X126542752Y-51406588D02*
X126304657Y-51406588D01*
X126304657Y-51406588D02*
X126209419Y-51358969D01*
X126209419Y-51358969D02*
X126161800Y-51311350D01*
X126161800Y-51311350D02*
X126114180Y-51216112D01*
X126114180Y-51216112D02*
X126114180Y-50930398D01*
X126114180Y-50930398D02*
X126161800Y-50835160D01*
X126161800Y-50835160D02*
X126209419Y-50787541D01*
X126209419Y-51835160D02*
X126161800Y-51882779D01*
X126161800Y-51882779D02*
X126114180Y-51835160D01*
X126114180Y-51835160D02*
X126161800Y-51787541D01*
X126161800Y-51787541D02*
X126209419Y-51835160D01*
X126209419Y-51835160D02*
X126114180Y-51835160D01*
X127114180Y-52216112D02*
X127114180Y-52835159D01*
X127114180Y-52835159D02*
X126733228Y-52501826D01*
X126733228Y-52501826D02*
X126733228Y-52644683D01*
X126733228Y-52644683D02*
X126685609Y-52739921D01*
X126685609Y-52739921D02*
X126637990Y-52787540D01*
X126637990Y-52787540D02*
X126542752Y-52835159D01*
X126542752Y-52835159D02*
X126304657Y-52835159D01*
X126304657Y-52835159D02*
X126209419Y-52787540D01*
X126209419Y-52787540D02*
X126161800Y-52739921D01*
X126161800Y-52739921D02*
X126114180Y-52644683D01*
X126114180Y-52644683D02*
X126114180Y-52358969D01*
X126114180Y-52358969D02*
X126161800Y-52263731D01*
X126161800Y-52263731D02*
X126209419Y-52216112D01*
X127114180Y-53120874D02*
X126114180Y-53454207D01*
X126114180Y-53454207D02*
X127114180Y-53787540D01*
X122223810Y-30771875D02*
X122223810Y-29771875D01*
X122652381Y-29867113D02*
X122700000Y-29819494D01*
X122700000Y-29819494D02*
X122795238Y-29771875D01*
X122795238Y-29771875D02*
X123033333Y-29771875D01*
X123033333Y-29771875D02*
X123128571Y-29819494D01*
X123128571Y-29819494D02*
X123176190Y-29867113D01*
X123176190Y-29867113D02*
X123223809Y-29962351D01*
X123223809Y-29962351D02*
X123223809Y-30057589D01*
X123223809Y-30057589D02*
X123176190Y-30200446D01*
X123176190Y-30200446D02*
X122604762Y-30771875D01*
X122604762Y-30771875D02*
X123223809Y-30771875D01*
X124223809Y-30676636D02*
X124176190Y-30724256D01*
X124176190Y-30724256D02*
X124033333Y-30771875D01*
X124033333Y-30771875D02*
X123938095Y-30771875D01*
X123938095Y-30771875D02*
X123795238Y-30724256D01*
X123795238Y-30724256D02*
X123700000Y-30629017D01*
X123700000Y-30629017D02*
X123652381Y-30533779D01*
X123652381Y-30533779D02*
X123604762Y-30343303D01*
X123604762Y-30343303D02*
X123604762Y-30200446D01*
X123604762Y-30200446D02*
X123652381Y-30009970D01*
X123652381Y-30009970D02*
X123700000Y-29914732D01*
X123700000Y-29914732D02*
X123795238Y-29819494D01*
X123795238Y-29819494D02*
X123938095Y-29771875D01*
X123938095Y-29771875D02*
X124033333Y-29771875D01*
X124033333Y-29771875D02*
X124176190Y-29819494D01*
X124176190Y-29819494D02*
X124223809Y-29867113D01*
X120414286Y-32334200D02*
X120557143Y-32381819D01*
X120557143Y-32381819D02*
X120795238Y-32381819D01*
X120795238Y-32381819D02*
X120890476Y-32334200D01*
X120890476Y-32334200D02*
X120938095Y-32286580D01*
X120938095Y-32286580D02*
X120985714Y-32191342D01*
X120985714Y-32191342D02*
X120985714Y-32096104D01*
X120985714Y-32096104D02*
X120938095Y-32000866D01*
X120938095Y-32000866D02*
X120890476Y-31953247D01*
X120890476Y-31953247D02*
X120795238Y-31905628D01*
X120795238Y-31905628D02*
X120604762Y-31858009D01*
X120604762Y-31858009D02*
X120509524Y-31810390D01*
X120509524Y-31810390D02*
X120461905Y-31762771D01*
X120461905Y-31762771D02*
X120414286Y-31667533D01*
X120414286Y-31667533D02*
X120414286Y-31572295D01*
X120414286Y-31572295D02*
X120461905Y-31477057D01*
X120461905Y-31477057D02*
X120509524Y-31429438D01*
X120509524Y-31429438D02*
X120604762Y-31381819D01*
X120604762Y-31381819D02*
X120842857Y-31381819D01*
X120842857Y-31381819D02*
X120985714Y-31429438D01*
X121271429Y-31715152D02*
X121652381Y-31715152D01*
X121414286Y-31381819D02*
X121414286Y-32238961D01*
X121414286Y-32238961D02*
X121461905Y-32334200D01*
X121461905Y-32334200D02*
X121557143Y-32381819D01*
X121557143Y-32381819D02*
X121652381Y-32381819D01*
X122366667Y-32334200D02*
X122271429Y-32381819D01*
X122271429Y-32381819D02*
X122080953Y-32381819D01*
X122080953Y-32381819D02*
X121985715Y-32334200D01*
X121985715Y-32334200D02*
X121938096Y-32238961D01*
X121938096Y-32238961D02*
X121938096Y-31858009D01*
X121938096Y-31858009D02*
X121985715Y-31762771D01*
X121985715Y-31762771D02*
X122080953Y-31715152D01*
X122080953Y-31715152D02*
X122271429Y-31715152D01*
X122271429Y-31715152D02*
X122366667Y-31762771D01*
X122366667Y-31762771D02*
X122414286Y-31858009D01*
X122414286Y-31858009D02*
X122414286Y-31953247D01*
X122414286Y-31953247D02*
X121938096Y-32048485D01*
X122842858Y-32381819D02*
X122842858Y-31715152D01*
X122842858Y-31810390D02*
X122890477Y-31762771D01*
X122890477Y-31762771D02*
X122985715Y-31715152D01*
X122985715Y-31715152D02*
X123128572Y-31715152D01*
X123128572Y-31715152D02*
X123223810Y-31762771D01*
X123223810Y-31762771D02*
X123271429Y-31858009D01*
X123271429Y-31858009D02*
X123271429Y-32381819D01*
X123271429Y-31858009D02*
X123319048Y-31762771D01*
X123319048Y-31762771D02*
X123414286Y-31715152D01*
X123414286Y-31715152D02*
X123557143Y-31715152D01*
X123557143Y-31715152D02*
X123652382Y-31762771D01*
X123652382Y-31762771D02*
X123700001Y-31858009D01*
X123700001Y-31858009D02*
X123700001Y-32381819D01*
X124176191Y-32381819D02*
X124176191Y-31715152D01*
X124176191Y-31810390D02*
X124223810Y-31762771D01*
X124223810Y-31762771D02*
X124319048Y-31715152D01*
X124319048Y-31715152D02*
X124461905Y-31715152D01*
X124461905Y-31715152D02*
X124557143Y-31762771D01*
X124557143Y-31762771D02*
X124604762Y-31858009D01*
X124604762Y-31858009D02*
X124604762Y-32381819D01*
X124604762Y-31858009D02*
X124652381Y-31762771D01*
X124652381Y-31762771D02*
X124747619Y-31715152D01*
X124747619Y-31715152D02*
X124890476Y-31715152D01*
X124890476Y-31715152D02*
X124985715Y-31762771D01*
X124985715Y-31762771D02*
X125033334Y-31858009D01*
X125033334Y-31858009D02*
X125033334Y-32381819D01*
X125938095Y-32381819D02*
X125938095Y-31858009D01*
X125938095Y-31858009D02*
X125890476Y-31762771D01*
X125890476Y-31762771D02*
X125795238Y-31715152D01*
X125795238Y-31715152D02*
X125604762Y-31715152D01*
X125604762Y-31715152D02*
X125509524Y-31762771D01*
X125938095Y-32334200D02*
X125842857Y-32381819D01*
X125842857Y-32381819D02*
X125604762Y-32381819D01*
X125604762Y-32381819D02*
X125509524Y-32334200D01*
X125509524Y-32334200D02*
X125461905Y-32238961D01*
X125461905Y-32238961D02*
X125461905Y-32143723D01*
X125461905Y-32143723D02*
X125509524Y-32048485D01*
X125509524Y-32048485D02*
X125604762Y-32000866D01*
X125604762Y-32000866D02*
X125842857Y-32000866D01*
X125842857Y-32000866D02*
X125938095Y-31953247D01*
X134559922Y-27825819D02*
X134893255Y-28825819D01*
X134893255Y-28825819D02*
X135226588Y-27825819D01*
X136131350Y-28730580D02*
X136083731Y-28778200D01*
X136083731Y-28778200D02*
X135940874Y-28825819D01*
X135940874Y-28825819D02*
X135845636Y-28825819D01*
X135845636Y-28825819D02*
X135702779Y-28778200D01*
X135702779Y-28778200D02*
X135607541Y-28682961D01*
X135607541Y-28682961D02*
X135559922Y-28587723D01*
X135559922Y-28587723D02*
X135512303Y-28397247D01*
X135512303Y-28397247D02*
X135512303Y-28254390D01*
X135512303Y-28254390D02*
X135559922Y-28063914D01*
X135559922Y-28063914D02*
X135607541Y-27968676D01*
X135607541Y-27968676D02*
X135702779Y-27873438D01*
X135702779Y-27873438D02*
X135845636Y-27825819D01*
X135845636Y-27825819D02*
X135940874Y-27825819D01*
X135940874Y-27825819D02*
X136083731Y-27873438D01*
X136083731Y-27873438D02*
X136131350Y-27921057D01*
X137131350Y-28730580D02*
X137083731Y-28778200D01*
X137083731Y-28778200D02*
X136940874Y-28825819D01*
X136940874Y-28825819D02*
X136845636Y-28825819D01*
X136845636Y-28825819D02*
X136702779Y-28778200D01*
X136702779Y-28778200D02*
X136607541Y-28682961D01*
X136607541Y-28682961D02*
X136559922Y-28587723D01*
X136559922Y-28587723D02*
X136512303Y-28397247D01*
X136512303Y-28397247D02*
X136512303Y-28254390D01*
X136512303Y-28254390D02*
X136559922Y-28063914D01*
X136559922Y-28063914D02*
X136607541Y-27968676D01*
X136607541Y-27968676D02*
X136702779Y-27873438D01*
X136702779Y-27873438D02*
X136845636Y-27825819D01*
X136845636Y-27825819D02*
X136940874Y-27825819D01*
X136940874Y-27825819D02*
X137083731Y-27873438D01*
X137083731Y-27873438D02*
X137131350Y-27921057D01*
X131162588Y-27873438D02*
X131067350Y-27825819D01*
X131067350Y-27825819D02*
X130924493Y-27825819D01*
X130924493Y-27825819D02*
X130781636Y-27873438D01*
X130781636Y-27873438D02*
X130686398Y-27968676D01*
X130686398Y-27968676D02*
X130638779Y-28063914D01*
X130638779Y-28063914D02*
X130591160Y-28254390D01*
X130591160Y-28254390D02*
X130591160Y-28397247D01*
X130591160Y-28397247D02*
X130638779Y-28587723D01*
X130638779Y-28587723D02*
X130686398Y-28682961D01*
X130686398Y-28682961D02*
X130781636Y-28778200D01*
X130781636Y-28778200D02*
X130924493Y-28825819D01*
X130924493Y-28825819D02*
X131019731Y-28825819D01*
X131019731Y-28825819D02*
X131162588Y-28778200D01*
X131162588Y-28778200D02*
X131210207Y-28730580D01*
X131210207Y-28730580D02*
X131210207Y-28397247D01*
X131210207Y-28397247D02*
X131019731Y-28397247D01*
X131638779Y-28825819D02*
X131638779Y-27825819D01*
X131638779Y-27825819D02*
X132210207Y-28825819D01*
X132210207Y-28825819D02*
X132210207Y-27825819D01*
X132686398Y-28825819D02*
X132686398Y-27825819D01*
X132686398Y-27825819D02*
X132924493Y-27825819D01*
X132924493Y-27825819D02*
X133067350Y-27873438D01*
X133067350Y-27873438D02*
X133162588Y-27968676D01*
X133162588Y-27968676D02*
X133210207Y-28063914D01*
X133210207Y-28063914D02*
X133257826Y-28254390D01*
X133257826Y-28254390D02*
X133257826Y-28397247D01*
X133257826Y-28397247D02*
X133210207Y-28587723D01*
X133210207Y-28587723D02*
X133162588Y-28682961D01*
X133162588Y-28682961D02*
X133067350Y-28778200D01*
X133067350Y-28778200D02*
X132924493Y-28825819D01*
X132924493Y-28825819D02*
X132686398Y-28825819D01*
X205473541Y-61099819D02*
X205711636Y-62099819D01*
X205711636Y-62099819D02*
X205902112Y-61385533D01*
X205902112Y-61385533D02*
X206092588Y-62099819D01*
X206092588Y-62099819D02*
X206330684Y-61099819D01*
X206664017Y-61814104D02*
X207140207Y-61814104D01*
X206568779Y-62099819D02*
X206902112Y-61099819D01*
X206902112Y-61099819D02*
X207235445Y-62099819D01*
X208044969Y-62099819D02*
X207568779Y-62099819D01*
X207568779Y-62099819D02*
X207568779Y-61099819D01*
X208854493Y-62099819D02*
X208378303Y-62099819D01*
X208378303Y-62099819D02*
X208378303Y-61099819D01*
X202307819Y-36239220D02*
X201307819Y-36239220D01*
X201307819Y-36239220D02*
X202022104Y-35905887D01*
X202022104Y-35905887D02*
X201307819Y-35572554D01*
X201307819Y-35572554D02*
X202307819Y-35572554D01*
X202022104Y-35143982D02*
X202022104Y-34667792D01*
X202307819Y-35239220D02*
X201307819Y-34905887D01*
X201307819Y-34905887D02*
X202307819Y-34572554D01*
X202307819Y-34239220D02*
X201307819Y-34239220D01*
X202307819Y-33763030D02*
X201307819Y-33763030D01*
X201307819Y-33763030D02*
X202307819Y-33191602D01*
X202307819Y-33191602D02*
X201307819Y-33191602D01*
X204720866Y-52749220D02*
X204720866Y-51987316D01*
X205101819Y-52368268D02*
X204339914Y-52368268D01*
X209975220Y-52581133D02*
X209213316Y-52581133D01*
X183169160Y-23612256D02*
X183312017Y-23659875D01*
X183312017Y-23659875D02*
X183550112Y-23659875D01*
X183550112Y-23659875D02*
X183645350Y-23612256D01*
X183645350Y-23612256D02*
X183692969Y-23564636D01*
X183692969Y-23564636D02*
X183740588Y-23469398D01*
X183740588Y-23469398D02*
X183740588Y-23374160D01*
X183740588Y-23374160D02*
X183692969Y-23278922D01*
X183692969Y-23278922D02*
X183645350Y-23231303D01*
X183645350Y-23231303D02*
X183550112Y-23183684D01*
X183550112Y-23183684D02*
X183359636Y-23136065D01*
X183359636Y-23136065D02*
X183264398Y-23088446D01*
X183264398Y-23088446D02*
X183216779Y-23040827D01*
X183216779Y-23040827D02*
X183169160Y-22945589D01*
X183169160Y-22945589D02*
X183169160Y-22850351D01*
X183169160Y-22850351D02*
X183216779Y-22755113D01*
X183216779Y-22755113D02*
X183264398Y-22707494D01*
X183264398Y-22707494D02*
X183359636Y-22659875D01*
X183359636Y-22659875D02*
X183597731Y-22659875D01*
X183597731Y-22659875D02*
X183740588Y-22707494D01*
X184597731Y-22993208D02*
X184597731Y-23659875D01*
X184169160Y-22993208D02*
X184169160Y-23517017D01*
X184169160Y-23517017D02*
X184216779Y-23612256D01*
X184216779Y-23612256D02*
X184312017Y-23659875D01*
X184312017Y-23659875D02*
X184454874Y-23659875D01*
X184454874Y-23659875D02*
X184550112Y-23612256D01*
X184550112Y-23612256D02*
X184597731Y-23564636D01*
X185073922Y-23659875D02*
X185073922Y-22993208D01*
X185073922Y-23088446D02*
X185121541Y-23040827D01*
X185121541Y-23040827D02*
X185216779Y-22993208D01*
X185216779Y-22993208D02*
X185359636Y-22993208D01*
X185359636Y-22993208D02*
X185454874Y-23040827D01*
X185454874Y-23040827D02*
X185502493Y-23136065D01*
X185502493Y-23136065D02*
X185502493Y-23659875D01*
X185502493Y-23136065D02*
X185550112Y-23040827D01*
X185550112Y-23040827D02*
X185645350Y-22993208D01*
X185645350Y-22993208D02*
X185788207Y-22993208D01*
X185788207Y-22993208D02*
X185883446Y-23040827D01*
X185883446Y-23040827D02*
X185931065Y-23136065D01*
X185931065Y-23136065D02*
X185931065Y-23659875D01*
X186407255Y-22993208D02*
X186407255Y-23993208D01*
X186407255Y-23040827D02*
X186502493Y-22993208D01*
X186502493Y-22993208D02*
X186692969Y-22993208D01*
X186692969Y-22993208D02*
X186788207Y-23040827D01*
X186788207Y-23040827D02*
X186835826Y-23088446D01*
X186835826Y-23088446D02*
X186883445Y-23183684D01*
X186883445Y-23183684D02*
X186883445Y-23469398D01*
X186883445Y-23469398D02*
X186835826Y-23564636D01*
X186835826Y-23564636D02*
X186788207Y-23612256D01*
X186788207Y-23612256D02*
X186692969Y-23659875D01*
X186692969Y-23659875D02*
X186502493Y-23659875D01*
X186502493Y-23659875D02*
X186407255Y-23612256D01*
X188073922Y-23659875D02*
X188073922Y-22659875D01*
X188073922Y-22659875D02*
X188454874Y-22659875D01*
X188454874Y-22659875D02*
X188550112Y-22707494D01*
X188550112Y-22707494D02*
X188597731Y-22755113D01*
X188597731Y-22755113D02*
X188645350Y-22850351D01*
X188645350Y-22850351D02*
X188645350Y-22993208D01*
X188645350Y-22993208D02*
X188597731Y-23088446D01*
X188597731Y-23088446D02*
X188550112Y-23136065D01*
X188550112Y-23136065D02*
X188454874Y-23183684D01*
X188454874Y-23183684D02*
X188073922Y-23183684D01*
X189502493Y-22993208D02*
X189502493Y-23659875D01*
X189073922Y-22993208D02*
X189073922Y-23517017D01*
X189073922Y-23517017D02*
X189121541Y-23612256D01*
X189121541Y-23612256D02*
X189216779Y-23659875D01*
X189216779Y-23659875D02*
X189359636Y-23659875D01*
X189359636Y-23659875D02*
X189454874Y-23612256D01*
X189454874Y-23612256D02*
X189502493Y-23564636D01*
X189978684Y-23659875D02*
X189978684Y-22993208D01*
X189978684Y-23088446D02*
X190026303Y-23040827D01*
X190026303Y-23040827D02*
X190121541Y-22993208D01*
X190121541Y-22993208D02*
X190264398Y-22993208D01*
X190264398Y-22993208D02*
X190359636Y-23040827D01*
X190359636Y-23040827D02*
X190407255Y-23136065D01*
X190407255Y-23136065D02*
X190407255Y-23659875D01*
X190407255Y-23136065D02*
X190454874Y-23040827D01*
X190454874Y-23040827D02*
X190550112Y-22993208D01*
X190550112Y-22993208D02*
X190692969Y-22993208D01*
X190692969Y-22993208D02*
X190788208Y-23040827D01*
X190788208Y-23040827D02*
X190835827Y-23136065D01*
X190835827Y-23136065D02*
X190835827Y-23659875D01*
X191312017Y-22993208D02*
X191312017Y-23993208D01*
X191312017Y-23040827D02*
X191407255Y-22993208D01*
X191407255Y-22993208D02*
X191597731Y-22993208D01*
X191597731Y-22993208D02*
X191692969Y-23040827D01*
X191692969Y-23040827D02*
X191740588Y-23088446D01*
X191740588Y-23088446D02*
X191788207Y-23183684D01*
X191788207Y-23183684D02*
X191788207Y-23469398D01*
X191788207Y-23469398D02*
X191740588Y-23564636D01*
X191740588Y-23564636D02*
X191692969Y-23612256D01*
X191692969Y-23612256D02*
X191597731Y-23659875D01*
X191597731Y-23659875D02*
X191407255Y-23659875D01*
X191407255Y-23659875D02*
X191312017Y-23612256D01*
X192978684Y-23659875D02*
X192978684Y-22659875D01*
X192978684Y-22659875D02*
X193312017Y-23374160D01*
X193312017Y-23374160D02*
X193645350Y-22659875D01*
X193645350Y-22659875D02*
X193645350Y-23659875D01*
X194264398Y-23659875D02*
X194169160Y-23612256D01*
X194169160Y-23612256D02*
X194121541Y-23564636D01*
X194121541Y-23564636D02*
X194073922Y-23469398D01*
X194073922Y-23469398D02*
X194073922Y-23183684D01*
X194073922Y-23183684D02*
X194121541Y-23088446D01*
X194121541Y-23088446D02*
X194169160Y-23040827D01*
X194169160Y-23040827D02*
X194264398Y-22993208D01*
X194264398Y-22993208D02*
X194407255Y-22993208D01*
X194407255Y-22993208D02*
X194502493Y-23040827D01*
X194502493Y-23040827D02*
X194550112Y-23088446D01*
X194550112Y-23088446D02*
X194597731Y-23183684D01*
X194597731Y-23183684D02*
X194597731Y-23469398D01*
X194597731Y-23469398D02*
X194550112Y-23564636D01*
X194550112Y-23564636D02*
X194502493Y-23612256D01*
X194502493Y-23612256D02*
X194407255Y-23659875D01*
X194407255Y-23659875D02*
X194264398Y-23659875D01*
X195026303Y-22993208D02*
X195026303Y-23659875D01*
X195026303Y-23088446D02*
X195073922Y-23040827D01*
X195073922Y-23040827D02*
X195169160Y-22993208D01*
X195169160Y-22993208D02*
X195312017Y-22993208D01*
X195312017Y-22993208D02*
X195407255Y-23040827D01*
X195407255Y-23040827D02*
X195454874Y-23136065D01*
X195454874Y-23136065D02*
X195454874Y-23659875D01*
X195931065Y-23659875D02*
X195931065Y-22993208D01*
X195931065Y-22659875D02*
X195883446Y-22707494D01*
X195883446Y-22707494D02*
X195931065Y-22755113D01*
X195931065Y-22755113D02*
X195978684Y-22707494D01*
X195978684Y-22707494D02*
X195931065Y-22659875D01*
X195931065Y-22659875D02*
X195931065Y-22755113D01*
X196264398Y-22993208D02*
X196645350Y-22993208D01*
X196407255Y-22659875D02*
X196407255Y-23517017D01*
X196407255Y-23517017D02*
X196454874Y-23612256D01*
X196454874Y-23612256D02*
X196550112Y-23659875D01*
X196550112Y-23659875D02*
X196645350Y-23659875D01*
X197121541Y-23659875D02*
X197026303Y-23612256D01*
X197026303Y-23612256D02*
X196978684Y-23564636D01*
X196978684Y-23564636D02*
X196931065Y-23469398D01*
X196931065Y-23469398D02*
X196931065Y-23183684D01*
X196931065Y-23183684D02*
X196978684Y-23088446D01*
X196978684Y-23088446D02*
X197026303Y-23040827D01*
X197026303Y-23040827D02*
X197121541Y-22993208D01*
X197121541Y-22993208D02*
X197264398Y-22993208D01*
X197264398Y-22993208D02*
X197359636Y-23040827D01*
X197359636Y-23040827D02*
X197407255Y-23088446D01*
X197407255Y-23088446D02*
X197454874Y-23183684D01*
X197454874Y-23183684D02*
X197454874Y-23469398D01*
X197454874Y-23469398D02*
X197407255Y-23564636D01*
X197407255Y-23564636D02*
X197359636Y-23612256D01*
X197359636Y-23612256D02*
X197264398Y-23659875D01*
X197264398Y-23659875D02*
X197121541Y-23659875D01*
X197883446Y-23659875D02*
X197883446Y-22993208D01*
X197883446Y-23183684D02*
X197931065Y-23088446D01*
X197931065Y-23088446D02*
X197978684Y-23040827D01*
X197978684Y-23040827D02*
X198073922Y-22993208D01*
X198073922Y-22993208D02*
X198169160Y-22993208D01*
X199121542Y-22659875D02*
X199454875Y-23659875D01*
X199454875Y-23659875D02*
X199788208Y-22659875D01*
X200645351Y-23659875D02*
X200073923Y-23659875D01*
X200359637Y-23659875D02*
X200359637Y-22659875D01*
X200359637Y-22659875D02*
X200264399Y-22802732D01*
X200264399Y-22802732D02*
X200169161Y-22897970D01*
X200169161Y-22897970D02*
X200073923Y-22945589D01*
X201073923Y-23564636D02*
X201121542Y-23612256D01*
X201121542Y-23612256D02*
X201073923Y-23659875D01*
X201073923Y-23659875D02*
X201026304Y-23612256D01*
X201026304Y-23612256D02*
X201073923Y-23564636D01*
X201073923Y-23564636D02*
X201073923Y-23659875D01*
X201740589Y-22659875D02*
X201835827Y-22659875D01*
X201835827Y-22659875D02*
X201931065Y-22707494D01*
X201931065Y-22707494D02*
X201978684Y-22755113D01*
X201978684Y-22755113D02*
X202026303Y-22850351D01*
X202026303Y-22850351D02*
X202073922Y-23040827D01*
X202073922Y-23040827D02*
X202073922Y-23278922D01*
X202073922Y-23278922D02*
X202026303Y-23469398D01*
X202026303Y-23469398D02*
X201978684Y-23564636D01*
X201978684Y-23564636D02*
X201931065Y-23612256D01*
X201931065Y-23612256D02*
X201835827Y-23659875D01*
X201835827Y-23659875D02*
X201740589Y-23659875D01*
X201740589Y-23659875D02*
X201645351Y-23612256D01*
X201645351Y-23612256D02*
X201597732Y-23564636D01*
X201597732Y-23564636D02*
X201550113Y-23469398D01*
X201550113Y-23469398D02*
X201502494Y-23278922D01*
X201502494Y-23278922D02*
X201502494Y-23040827D01*
X201502494Y-23040827D02*
X201550113Y-22850351D01*
X201550113Y-22850351D02*
X201597732Y-22755113D01*
X201597732Y-22755113D02*
X201645351Y-22707494D01*
X201645351Y-22707494D02*
X201740589Y-22659875D01*
X183073922Y-24269819D02*
X183645350Y-24269819D01*
X183359636Y-25269819D02*
X183359636Y-24269819D01*
X184264398Y-24269819D02*
X184264398Y-24984104D01*
X184264398Y-24984104D02*
X184216779Y-25126961D01*
X184216779Y-25126961D02*
X184121541Y-25222200D01*
X184121541Y-25222200D02*
X183978684Y-25269819D01*
X183978684Y-25269819D02*
X183883446Y-25269819D01*
X184740589Y-25269819D02*
X184740589Y-24269819D01*
X185312017Y-25269819D02*
X184883446Y-24698390D01*
X185312017Y-24269819D02*
X184740589Y-24841247D01*
X187073922Y-25269819D02*
X186740589Y-24793628D01*
X186502494Y-25269819D02*
X186502494Y-24269819D01*
X186502494Y-24269819D02*
X186883446Y-24269819D01*
X186883446Y-24269819D02*
X186978684Y-24317438D01*
X186978684Y-24317438D02*
X187026303Y-24365057D01*
X187026303Y-24365057D02*
X187073922Y-24460295D01*
X187073922Y-24460295D02*
X187073922Y-24603152D01*
X187073922Y-24603152D02*
X187026303Y-24698390D01*
X187026303Y-24698390D02*
X186978684Y-24746009D01*
X186978684Y-24746009D02*
X186883446Y-24793628D01*
X186883446Y-24793628D02*
X186502494Y-24793628D01*
X187454875Y-24984104D02*
X187931065Y-24984104D01*
X187359637Y-25269819D02*
X187692970Y-24269819D01*
X187692970Y-24269819D02*
X188026303Y-25269819D01*
X188359637Y-25269819D02*
X188359637Y-24269819D01*
X188931065Y-25269819D02*
X188502494Y-24698390D01*
X188931065Y-24269819D02*
X188359637Y-24841247D01*
X190312018Y-24269819D02*
X190407256Y-24269819D01*
X190407256Y-24269819D02*
X190502494Y-24317438D01*
X190502494Y-24317438D02*
X190550113Y-24365057D01*
X190550113Y-24365057D02*
X190597732Y-24460295D01*
X190597732Y-24460295D02*
X190645351Y-24650771D01*
X190645351Y-24650771D02*
X190645351Y-24888866D01*
X190645351Y-24888866D02*
X190597732Y-25079342D01*
X190597732Y-25079342D02*
X190550113Y-25174580D01*
X190550113Y-25174580D02*
X190502494Y-25222200D01*
X190502494Y-25222200D02*
X190407256Y-25269819D01*
X190407256Y-25269819D02*
X190312018Y-25269819D01*
X190312018Y-25269819D02*
X190216780Y-25222200D01*
X190216780Y-25222200D02*
X190169161Y-25174580D01*
X190169161Y-25174580D02*
X190121542Y-25079342D01*
X190121542Y-25079342D02*
X190073923Y-24888866D01*
X190073923Y-24888866D02*
X190073923Y-24650771D01*
X190073923Y-24650771D02*
X190121542Y-24460295D01*
X190121542Y-24460295D02*
X190169161Y-24365057D01*
X190169161Y-24365057D02*
X190216780Y-24317438D01*
X190216780Y-24317438D02*
X190312018Y-24269819D01*
X191502494Y-24603152D02*
X191502494Y-25269819D01*
X191264399Y-24222200D02*
X191026304Y-24936485D01*
X191026304Y-24936485D02*
X191645351Y-24936485D01*
X192740589Y-24222200D02*
X191883447Y-25507914D01*
X193264399Y-24269819D02*
X193359637Y-24269819D01*
X193359637Y-24269819D02*
X193454875Y-24317438D01*
X193454875Y-24317438D02*
X193502494Y-24365057D01*
X193502494Y-24365057D02*
X193550113Y-24460295D01*
X193550113Y-24460295D02*
X193597732Y-24650771D01*
X193597732Y-24650771D02*
X193597732Y-24888866D01*
X193597732Y-24888866D02*
X193550113Y-25079342D01*
X193550113Y-25079342D02*
X193502494Y-25174580D01*
X193502494Y-25174580D02*
X193454875Y-25222200D01*
X193454875Y-25222200D02*
X193359637Y-25269819D01*
X193359637Y-25269819D02*
X193264399Y-25269819D01*
X193264399Y-25269819D02*
X193169161Y-25222200D01*
X193169161Y-25222200D02*
X193121542Y-25174580D01*
X193121542Y-25174580D02*
X193073923Y-25079342D01*
X193073923Y-25079342D02*
X193026304Y-24888866D01*
X193026304Y-24888866D02*
X193026304Y-24650771D01*
X193026304Y-24650771D02*
X193073923Y-24460295D01*
X193073923Y-24460295D02*
X193121542Y-24365057D01*
X193121542Y-24365057D02*
X193169161Y-24317438D01*
X193169161Y-24317438D02*
X193264399Y-24269819D01*
X193931066Y-24269819D02*
X194550113Y-24269819D01*
X194550113Y-24269819D02*
X194216780Y-24650771D01*
X194216780Y-24650771D02*
X194359637Y-24650771D01*
X194359637Y-24650771D02*
X194454875Y-24698390D01*
X194454875Y-24698390D02*
X194502494Y-24746009D01*
X194502494Y-24746009D02*
X194550113Y-24841247D01*
X194550113Y-24841247D02*
X194550113Y-25079342D01*
X194550113Y-25079342D02*
X194502494Y-25174580D01*
X194502494Y-25174580D02*
X194454875Y-25222200D01*
X194454875Y-25222200D02*
X194359637Y-25269819D01*
X194359637Y-25269819D02*
X194073923Y-25269819D01*
X194073923Y-25269819D02*
X193978685Y-25222200D01*
X193978685Y-25222200D02*
X193931066Y-25174580D01*
X195692970Y-24222200D02*
X194835828Y-25507914D01*
X195978685Y-24365057D02*
X196026304Y-24317438D01*
X196026304Y-24317438D02*
X196121542Y-24269819D01*
X196121542Y-24269819D02*
X196359637Y-24269819D01*
X196359637Y-24269819D02*
X196454875Y-24317438D01*
X196454875Y-24317438D02*
X196502494Y-24365057D01*
X196502494Y-24365057D02*
X196550113Y-24460295D01*
X196550113Y-24460295D02*
X196550113Y-24555533D01*
X196550113Y-24555533D02*
X196502494Y-24698390D01*
X196502494Y-24698390D02*
X195931066Y-25269819D01*
X195931066Y-25269819D02*
X196550113Y-25269819D01*
X197169161Y-24269819D02*
X197264399Y-24269819D01*
X197264399Y-24269819D02*
X197359637Y-24317438D01*
X197359637Y-24317438D02*
X197407256Y-24365057D01*
X197407256Y-24365057D02*
X197454875Y-24460295D01*
X197454875Y-24460295D02*
X197502494Y-24650771D01*
X197502494Y-24650771D02*
X197502494Y-24888866D01*
X197502494Y-24888866D02*
X197454875Y-25079342D01*
X197454875Y-25079342D02*
X197407256Y-25174580D01*
X197407256Y-25174580D02*
X197359637Y-25222200D01*
X197359637Y-25222200D02*
X197264399Y-25269819D01*
X197264399Y-25269819D02*
X197169161Y-25269819D01*
X197169161Y-25269819D02*
X197073923Y-25222200D01*
X197073923Y-25222200D02*
X197026304Y-25174580D01*
X197026304Y-25174580D02*
X196978685Y-25079342D01*
X196978685Y-25079342D02*
X196931066Y-24888866D01*
X196931066Y-24888866D02*
X196931066Y-24650771D01*
X196931066Y-24650771D02*
X196978685Y-24460295D01*
X196978685Y-24460295D02*
X197026304Y-24365057D01*
X197026304Y-24365057D02*
X197073923Y-24317438D01*
X197073923Y-24317438D02*
X197169161Y-24269819D01*
X197883447Y-24365057D02*
X197931066Y-24317438D01*
X197931066Y-24317438D02*
X198026304Y-24269819D01*
X198026304Y-24269819D02*
X198264399Y-24269819D01*
X198264399Y-24269819D02*
X198359637Y-24317438D01*
X198359637Y-24317438D02*
X198407256Y-24365057D01*
X198407256Y-24365057D02*
X198454875Y-24460295D01*
X198454875Y-24460295D02*
X198454875Y-24555533D01*
X198454875Y-24555533D02*
X198407256Y-24698390D01*
X198407256Y-24698390D02*
X197835828Y-25269819D01*
X197835828Y-25269819D02*
X198454875Y-25269819D01*
X199359637Y-24269819D02*
X198883447Y-24269819D01*
X198883447Y-24269819D02*
X198835828Y-24746009D01*
X198835828Y-24746009D02*
X198883447Y-24698390D01*
X198883447Y-24698390D02*
X198978685Y-24650771D01*
X198978685Y-24650771D02*
X199216780Y-24650771D01*
X199216780Y-24650771D02*
X199312018Y-24698390D01*
X199312018Y-24698390D02*
X199359637Y-24746009D01*
X199359637Y-24746009D02*
X199407256Y-24841247D01*
X199407256Y-24841247D02*
X199407256Y-25079342D01*
X199407256Y-25079342D02*
X199359637Y-25174580D01*
X199359637Y-25174580D02*
X199312018Y-25222200D01*
X199312018Y-25222200D02*
X199216780Y-25269819D01*
X199216780Y-25269819D02*
X198978685Y-25269819D01*
X198978685Y-25269819D02*
X198883447Y-25222200D01*
X198883447Y-25222200D02*
X198835828Y-25174580D01*
X206156112Y-52432009D02*
X206298969Y-52479628D01*
X206298969Y-52479628D02*
X206346588Y-52527247D01*
X206346588Y-52527247D02*
X206394207Y-52622485D01*
X206394207Y-52622485D02*
X206394207Y-52765342D01*
X206394207Y-52765342D02*
X206346588Y-52860580D01*
X206346588Y-52860580D02*
X206298969Y-52908200D01*
X206298969Y-52908200D02*
X206203731Y-52955819D01*
X206203731Y-52955819D02*
X205822779Y-52955819D01*
X205822779Y-52955819D02*
X205822779Y-51955819D01*
X205822779Y-51955819D02*
X206156112Y-51955819D01*
X206156112Y-51955819D02*
X206251350Y-52003438D01*
X206251350Y-52003438D02*
X206298969Y-52051057D01*
X206298969Y-52051057D02*
X206346588Y-52146295D01*
X206346588Y-52146295D02*
X206346588Y-52241533D01*
X206346588Y-52241533D02*
X206298969Y-52336771D01*
X206298969Y-52336771D02*
X206251350Y-52384390D01*
X206251350Y-52384390D02*
X206156112Y-52432009D01*
X206156112Y-52432009D02*
X205822779Y-52432009D01*
X206775160Y-52670104D02*
X207251350Y-52670104D01*
X206679922Y-52955819D02*
X207013255Y-51955819D01*
X207013255Y-51955819D02*
X207346588Y-52955819D01*
X207537065Y-51955819D02*
X208108493Y-51955819D01*
X207822779Y-52955819D02*
X207822779Y-51955819D01*
X208298970Y-51955819D02*
X208870398Y-51955819D01*
X208584684Y-52955819D02*
X208584684Y-51955819D01*
X138211160Y-28778200D02*
X138354017Y-28825819D01*
X138354017Y-28825819D02*
X138592112Y-28825819D01*
X138592112Y-28825819D02*
X138687350Y-28778200D01*
X138687350Y-28778200D02*
X138734969Y-28730580D01*
X138734969Y-28730580D02*
X138782588Y-28635342D01*
X138782588Y-28635342D02*
X138782588Y-28540104D01*
X138782588Y-28540104D02*
X138734969Y-28444866D01*
X138734969Y-28444866D02*
X138687350Y-28397247D01*
X138687350Y-28397247D02*
X138592112Y-28349628D01*
X138592112Y-28349628D02*
X138401636Y-28302009D01*
X138401636Y-28302009D02*
X138306398Y-28254390D01*
X138306398Y-28254390D02*
X138258779Y-28206771D01*
X138258779Y-28206771D02*
X138211160Y-28111533D01*
X138211160Y-28111533D02*
X138211160Y-28016295D01*
X138211160Y-28016295D02*
X138258779Y-27921057D01*
X138258779Y-27921057D02*
X138306398Y-27873438D01*
X138306398Y-27873438D02*
X138401636Y-27825819D01*
X138401636Y-27825819D02*
X138639731Y-27825819D01*
X138639731Y-27825819D02*
X138782588Y-27873438D01*
X139211160Y-28825819D02*
X139211160Y-27825819D01*
X139211160Y-27825819D02*
X139449255Y-27825819D01*
X139449255Y-27825819D02*
X139592112Y-27873438D01*
X139592112Y-27873438D02*
X139687350Y-27968676D01*
X139687350Y-27968676D02*
X139734969Y-28063914D01*
X139734969Y-28063914D02*
X139782588Y-28254390D01*
X139782588Y-28254390D02*
X139782588Y-28397247D01*
X139782588Y-28397247D02*
X139734969Y-28587723D01*
X139734969Y-28587723D02*
X139687350Y-28682961D01*
X139687350Y-28682961D02*
X139592112Y-28778200D01*
X139592112Y-28778200D02*
X139449255Y-28825819D01*
X139449255Y-28825819D02*
X139211160Y-28825819D01*
X140163541Y-28540104D02*
X140639731Y-28540104D01*
X140068303Y-28825819D02*
X140401636Y-27825819D01*
X140401636Y-27825819D02*
X140734969Y-28825819D01*
X142021160Y-28778200D02*
X142164017Y-28825819D01*
X142164017Y-28825819D02*
X142402112Y-28825819D01*
X142402112Y-28825819D02*
X142497350Y-28778200D01*
X142497350Y-28778200D02*
X142544969Y-28730580D01*
X142544969Y-28730580D02*
X142592588Y-28635342D01*
X142592588Y-28635342D02*
X142592588Y-28540104D01*
X142592588Y-28540104D02*
X142544969Y-28444866D01*
X142544969Y-28444866D02*
X142497350Y-28397247D01*
X142497350Y-28397247D02*
X142402112Y-28349628D01*
X142402112Y-28349628D02*
X142211636Y-28302009D01*
X142211636Y-28302009D02*
X142116398Y-28254390D01*
X142116398Y-28254390D02*
X142068779Y-28206771D01*
X142068779Y-28206771D02*
X142021160Y-28111533D01*
X142021160Y-28111533D02*
X142021160Y-28016295D01*
X142021160Y-28016295D02*
X142068779Y-27921057D01*
X142068779Y-27921057D02*
X142116398Y-27873438D01*
X142116398Y-27873438D02*
X142211636Y-27825819D01*
X142211636Y-27825819D02*
X142449731Y-27825819D01*
X142449731Y-27825819D02*
X142592588Y-27873438D01*
X143592588Y-28730580D02*
X143544969Y-28778200D01*
X143544969Y-28778200D02*
X143402112Y-28825819D01*
X143402112Y-28825819D02*
X143306874Y-28825819D01*
X143306874Y-28825819D02*
X143164017Y-28778200D01*
X143164017Y-28778200D02*
X143068779Y-28682961D01*
X143068779Y-28682961D02*
X143021160Y-28587723D01*
X143021160Y-28587723D02*
X142973541Y-28397247D01*
X142973541Y-28397247D02*
X142973541Y-28254390D01*
X142973541Y-28254390D02*
X143021160Y-28063914D01*
X143021160Y-28063914D02*
X143068779Y-27968676D01*
X143068779Y-27968676D02*
X143164017Y-27873438D01*
X143164017Y-27873438D02*
X143306874Y-27825819D01*
X143306874Y-27825819D02*
X143402112Y-27825819D01*
X143402112Y-27825819D02*
X143544969Y-27873438D01*
X143544969Y-27873438D02*
X143592588Y-27921057D01*
X144497350Y-28825819D02*
X144021160Y-28825819D01*
X144021160Y-28825819D02*
X144021160Y-27825819D01*
X128908180Y-24720779D02*
X129908180Y-24720779D01*
X129812942Y-25149350D02*
X129860561Y-25196969D01*
X129860561Y-25196969D02*
X129908180Y-25292207D01*
X129908180Y-25292207D02*
X129908180Y-25530302D01*
X129908180Y-25530302D02*
X129860561Y-25625540D01*
X129860561Y-25625540D02*
X129812942Y-25673159D01*
X129812942Y-25673159D02*
X129717704Y-25720778D01*
X129717704Y-25720778D02*
X129622466Y-25720778D01*
X129622466Y-25720778D02*
X129479609Y-25673159D01*
X129479609Y-25673159D02*
X128908180Y-25101731D01*
X128908180Y-25101731D02*
X128908180Y-25720778D01*
X129003419Y-26720778D02*
X128955800Y-26673159D01*
X128955800Y-26673159D02*
X128908180Y-26530302D01*
X128908180Y-26530302D02*
X128908180Y-26435064D01*
X128908180Y-26435064D02*
X128955800Y-26292207D01*
X128955800Y-26292207D02*
X129051038Y-26196969D01*
X129051038Y-26196969D02*
X129146276Y-26149350D01*
X129146276Y-26149350D02*
X129336752Y-26101731D01*
X129336752Y-26101731D02*
X129479609Y-26101731D01*
X129479609Y-26101731D02*
X129670085Y-26149350D01*
X129670085Y-26149350D02*
X129765323Y-26196969D01*
X129765323Y-26196969D02*
X129860561Y-26292207D01*
X129860561Y-26292207D02*
X129908180Y-26435064D01*
X129908180Y-26435064D02*
X129908180Y-26530302D01*
X129908180Y-26530302D02*
X129860561Y-26673159D01*
X129860561Y-26673159D02*
X129812942Y-26720778D01*
X202022104Y-46954839D02*
X202022104Y-46478649D01*
X202307819Y-47050077D02*
X201307819Y-46716744D01*
X201307819Y-46716744D02*
X202307819Y-46383411D01*
X201307819Y-46050077D02*
X202117342Y-46050077D01*
X202117342Y-46050077D02*
X202212580Y-46002458D01*
X202212580Y-46002458D02*
X202260200Y-45954839D01*
X202260200Y-45954839D02*
X202307819Y-45859601D01*
X202307819Y-45859601D02*
X202307819Y-45669125D01*
X202307819Y-45669125D02*
X202260200Y-45573887D01*
X202260200Y-45573887D02*
X202212580Y-45526268D01*
X202212580Y-45526268D02*
X202117342Y-45478649D01*
X202117342Y-45478649D02*
X201307819Y-45478649D01*
X201307819Y-45097696D02*
X202307819Y-44431030D01*
X201307819Y-44431030D02*
X202307819Y-45097696D01*
X209975220Y-61471133D02*
X209213316Y-61471133D01*
X204298779Y-61718866D02*
X205060684Y-61718866D01*
X204679731Y-62099819D02*
X204679731Y-61337914D01*
X118580819Y-47323333D02*
X119295104Y-47323333D01*
X119295104Y-47323333D02*
X119437961Y-47370952D01*
X119437961Y-47370952D02*
X119533200Y-47466190D01*
X119533200Y-47466190D02*
X119580819Y-47609047D01*
X119580819Y-47609047D02*
X119580819Y-47704285D01*
X118580819Y-46942380D02*
X118580819Y-46275714D01*
X118580819Y-46275714D02*
X119580819Y-46704285D01*
X122356666Y-53324819D02*
X122356666Y-54039104D01*
X122356666Y-54039104D02*
X122309047Y-54181961D01*
X122309047Y-54181961D02*
X122213809Y-54277200D01*
X122213809Y-54277200D02*
X122070952Y-54324819D01*
X122070952Y-54324819D02*
X121975714Y-54324819D01*
X122832857Y-54324819D02*
X122832857Y-53324819D01*
X122832857Y-53324819D02*
X123213809Y-53324819D01*
X123213809Y-53324819D02*
X123309047Y-53372438D01*
X123309047Y-53372438D02*
X123356666Y-53420057D01*
X123356666Y-53420057D02*
X123404285Y-53515295D01*
X123404285Y-53515295D02*
X123404285Y-53658152D01*
X123404285Y-53658152D02*
X123356666Y-53753390D01*
X123356666Y-53753390D02*
X123309047Y-53801009D01*
X123309047Y-53801009D02*
X123213809Y-53848628D01*
X123213809Y-53848628D02*
X122832857Y-53848628D01*
X124356666Y-54324819D02*
X123785238Y-54324819D01*
X124070952Y-54324819D02*
X124070952Y-53324819D01*
X124070952Y-53324819D02*
X123975714Y-53467676D01*
X123975714Y-53467676D02*
X123880476Y-53562914D01*
X123880476Y-53562914D02*
X123785238Y-53610533D01*
X144192666Y-26124819D02*
X144192666Y-26839104D01*
X144192666Y-26839104D02*
X144145047Y-26981961D01*
X144145047Y-26981961D02*
X144049809Y-27077200D01*
X144049809Y-27077200D02*
X143906952Y-27124819D01*
X143906952Y-27124819D02*
X143811714Y-27124819D01*
X145097428Y-26124819D02*
X144906952Y-26124819D01*
X144906952Y-26124819D02*
X144811714Y-26172438D01*
X144811714Y-26172438D02*
X144764095Y-26220057D01*
X144764095Y-26220057D02*
X144668857Y-26362914D01*
X144668857Y-26362914D02*
X144621238Y-26553390D01*
X144621238Y-26553390D02*
X144621238Y-26934342D01*
X144621238Y-26934342D02*
X144668857Y-27029580D01*
X144668857Y-27029580D02*
X144716476Y-27077200D01*
X144716476Y-27077200D02*
X144811714Y-27124819D01*
X144811714Y-27124819D02*
X145002190Y-27124819D01*
X145002190Y-27124819D02*
X145097428Y-27077200D01*
X145097428Y-27077200D02*
X145145047Y-27029580D01*
X145145047Y-27029580D02*
X145192666Y-26934342D01*
X145192666Y-26934342D02*
X145192666Y-26696247D01*
X145192666Y-26696247D02*
X145145047Y-26601009D01*
X145145047Y-26601009D02*
X145097428Y-26553390D01*
X145097428Y-26553390D02*
X145002190Y-26505771D01*
X145002190Y-26505771D02*
X144811714Y-26505771D01*
X144811714Y-26505771D02*
X144716476Y-26553390D01*
X144716476Y-26553390D02*
X144668857Y-26601009D01*
X144668857Y-26601009D02*
X144621238Y-26696247D01*
X211798819Y-52403333D02*
X212513104Y-52403333D01*
X212513104Y-52403333D02*
X212655961Y-52450952D01*
X212655961Y-52450952D02*
X212751200Y-52546190D01*
X212751200Y-52546190D02*
X212798819Y-52689047D01*
X212798819Y-52689047D02*
X212798819Y-52784285D01*
X211798819Y-51450952D02*
X211798819Y-51927142D01*
X211798819Y-51927142D02*
X212275009Y-51974761D01*
X212275009Y-51974761D02*
X212227390Y-51927142D01*
X212227390Y-51927142D02*
X212179771Y-51831904D01*
X212179771Y-51831904D02*
X212179771Y-51593809D01*
X212179771Y-51593809D02*
X212227390Y-51498571D01*
X212227390Y-51498571D02*
X212275009Y-51450952D01*
X212275009Y-51450952D02*
X212370247Y-51403333D01*
X212370247Y-51403333D02*
X212608342Y-51403333D01*
X212608342Y-51403333D02*
X212703580Y-51450952D01*
X212703580Y-51450952D02*
X212751200Y-51498571D01*
X212751200Y-51498571D02*
X212798819Y-51593809D01*
X212798819Y-51593809D02*
X212798819Y-51831904D01*
X212798819Y-51831904D02*
X212751200Y-51927142D01*
X212751200Y-51927142D02*
X212703580Y-51974761D01*
X177044819Y-53593904D02*
X177854342Y-53593904D01*
X177854342Y-53593904D02*
X177949580Y-53546285D01*
X177949580Y-53546285D02*
X177997200Y-53498666D01*
X177997200Y-53498666D02*
X178044819Y-53403428D01*
X178044819Y-53403428D02*
X178044819Y-53212952D01*
X178044819Y-53212952D02*
X177997200Y-53117714D01*
X177997200Y-53117714D02*
X177949580Y-53070095D01*
X177949580Y-53070095D02*
X177854342Y-53022476D01*
X177854342Y-53022476D02*
X177044819Y-53022476D01*
X177140057Y-52593904D02*
X177092438Y-52546285D01*
X177092438Y-52546285D02*
X177044819Y-52451047D01*
X177044819Y-52451047D02*
X177044819Y-52212952D01*
X177044819Y-52212952D02*
X177092438Y-52117714D01*
X177092438Y-52117714D02*
X177140057Y-52070095D01*
X177140057Y-52070095D02*
X177235295Y-52022476D01*
X177235295Y-52022476D02*
X177330533Y-52022476D01*
X177330533Y-52022476D02*
X177473390Y-52070095D01*
X177473390Y-52070095D02*
X178044819Y-52641523D01*
X178044819Y-52641523D02*
X178044819Y-52022476D01*
X169505333Y-65637580D02*
X169457714Y-65685200D01*
X169457714Y-65685200D02*
X169314857Y-65732819D01*
X169314857Y-65732819D02*
X169219619Y-65732819D01*
X169219619Y-65732819D02*
X169076762Y-65685200D01*
X169076762Y-65685200D02*
X168981524Y-65589961D01*
X168981524Y-65589961D02*
X168933905Y-65494723D01*
X168933905Y-65494723D02*
X168886286Y-65304247D01*
X168886286Y-65304247D02*
X168886286Y-65161390D01*
X168886286Y-65161390D02*
X168933905Y-64970914D01*
X168933905Y-64970914D02*
X168981524Y-64875676D01*
X168981524Y-64875676D02*
X169076762Y-64780438D01*
X169076762Y-64780438D02*
X169219619Y-64732819D01*
X169219619Y-64732819D02*
X169314857Y-64732819D01*
X169314857Y-64732819D02*
X169457714Y-64780438D01*
X169457714Y-64780438D02*
X169505333Y-64828057D01*
X169886286Y-64828057D02*
X169933905Y-64780438D01*
X169933905Y-64780438D02*
X170029143Y-64732819D01*
X170029143Y-64732819D02*
X170267238Y-64732819D01*
X170267238Y-64732819D02*
X170362476Y-64780438D01*
X170362476Y-64780438D02*
X170410095Y-64828057D01*
X170410095Y-64828057D02*
X170457714Y-64923295D01*
X170457714Y-64923295D02*
X170457714Y-65018533D01*
X170457714Y-65018533D02*
X170410095Y-65161390D01*
X170410095Y-65161390D02*
X169838667Y-65732819D01*
X169838667Y-65732819D02*
X170457714Y-65732819D01*
X174029761Y-65859819D02*
X173458333Y-65859819D01*
X173744047Y-65859819D02*
X173744047Y-64859819D01*
X173744047Y-64859819D02*
X173648809Y-65002676D01*
X173648809Y-65002676D02*
X173553571Y-65097914D01*
X173553571Y-65097914D02*
X173458333Y-65145533D01*
X174886904Y-65193152D02*
X174886904Y-65859819D01*
X174458333Y-65193152D02*
X174458333Y-65716961D01*
X174458333Y-65716961D02*
X174505952Y-65812200D01*
X174505952Y-65812200D02*
X174601190Y-65859819D01*
X174601190Y-65859819D02*
X174744047Y-65859819D01*
X174744047Y-65859819D02*
X174839285Y-65812200D01*
X174839285Y-65812200D02*
X174886904Y-65764580D01*
X175696428Y-65336009D02*
X175363095Y-65336009D01*
X175363095Y-65859819D02*
X175363095Y-64859819D01*
X175363095Y-64859819D02*
X175839285Y-64859819D01*
X201342666Y-67399819D02*
X201342666Y-68114104D01*
X201342666Y-68114104D02*
X201295047Y-68256961D01*
X201295047Y-68256961D02*
X201199809Y-68352200D01*
X201199809Y-68352200D02*
X201056952Y-68399819D01*
X201056952Y-68399819D02*
X200961714Y-68399819D01*
X201771238Y-67495057D02*
X201818857Y-67447438D01*
X201818857Y-67447438D02*
X201914095Y-67399819D01*
X201914095Y-67399819D02*
X202152190Y-67399819D01*
X202152190Y-67399819D02*
X202247428Y-67447438D01*
X202247428Y-67447438D02*
X202295047Y-67495057D01*
X202295047Y-67495057D02*
X202342666Y-67590295D01*
X202342666Y-67590295D02*
X202342666Y-67685533D01*
X202342666Y-67685533D02*
X202295047Y-67828390D01*
X202295047Y-67828390D02*
X201723619Y-68399819D01*
X201723619Y-68399819D02*
X202342666Y-68399819D01*
X186636819Y-48426666D02*
X186160628Y-48759999D01*
X186636819Y-48998094D02*
X185636819Y-48998094D01*
X185636819Y-48998094D02*
X185636819Y-48617142D01*
X185636819Y-48617142D02*
X185684438Y-48521904D01*
X185684438Y-48521904D02*
X185732057Y-48474285D01*
X185732057Y-48474285D02*
X185827295Y-48426666D01*
X185827295Y-48426666D02*
X185970152Y-48426666D01*
X185970152Y-48426666D02*
X186065390Y-48474285D01*
X186065390Y-48474285D02*
X186113009Y-48521904D01*
X186113009Y-48521904D02*
X186160628Y-48617142D01*
X186160628Y-48617142D02*
X186160628Y-48998094D01*
X185732057Y-48045713D02*
X185684438Y-47998094D01*
X185684438Y-47998094D02*
X185636819Y-47902856D01*
X185636819Y-47902856D02*
X185636819Y-47664761D01*
X185636819Y-47664761D02*
X185684438Y-47569523D01*
X185684438Y-47569523D02*
X185732057Y-47521904D01*
X185732057Y-47521904D02*
X185827295Y-47474285D01*
X185827295Y-47474285D02*
X185922533Y-47474285D01*
X185922533Y-47474285D02*
X186065390Y-47521904D01*
X186065390Y-47521904D02*
X186636819Y-48093332D01*
X186636819Y-48093332D02*
X186636819Y-47474285D01*
X199352819Y-49545713D02*
X199352819Y-48926666D01*
X199352819Y-48926666D02*
X199733771Y-49259999D01*
X199733771Y-49259999D02*
X199733771Y-49117142D01*
X199733771Y-49117142D02*
X199781390Y-49021904D01*
X199781390Y-49021904D02*
X199829009Y-48974285D01*
X199829009Y-48974285D02*
X199924247Y-48926666D01*
X199924247Y-48926666D02*
X200162342Y-48926666D01*
X200162342Y-48926666D02*
X200257580Y-48974285D01*
X200257580Y-48974285D02*
X200305200Y-49021904D01*
X200305200Y-49021904D02*
X200352819Y-49117142D01*
X200352819Y-49117142D02*
X200352819Y-49402856D01*
X200352819Y-49402856D02*
X200305200Y-49498094D01*
X200305200Y-49498094D02*
X200257580Y-49545713D01*
X199352819Y-48593332D02*
X199352819Y-47974285D01*
X199352819Y-47974285D02*
X199733771Y-48307618D01*
X199733771Y-48307618D02*
X199733771Y-48164761D01*
X199733771Y-48164761D02*
X199781390Y-48069523D01*
X199781390Y-48069523D02*
X199829009Y-48021904D01*
X199829009Y-48021904D02*
X199924247Y-47974285D01*
X199924247Y-47974285D02*
X200162342Y-47974285D01*
X200162342Y-47974285D02*
X200257580Y-48021904D01*
X200257580Y-48021904D02*
X200305200Y-48069523D01*
X200305200Y-48069523D02*
X200352819Y-48164761D01*
X200352819Y-48164761D02*
X200352819Y-48450475D01*
X200352819Y-48450475D02*
X200305200Y-48545713D01*
X200305200Y-48545713D02*
X200257580Y-48593332D01*
X199352819Y-47355237D02*
X199352819Y-47259999D01*
X199352819Y-47259999D02*
X199400438Y-47164761D01*
X199400438Y-47164761D02*
X199448057Y-47117142D01*
X199448057Y-47117142D02*
X199543295Y-47069523D01*
X199543295Y-47069523D02*
X199733771Y-47021904D01*
X199733771Y-47021904D02*
X199971866Y-47021904D01*
X199971866Y-47021904D02*
X200162342Y-47069523D01*
X200162342Y-47069523D02*
X200257580Y-47117142D01*
X200257580Y-47117142D02*
X200305200Y-47164761D01*
X200305200Y-47164761D02*
X200352819Y-47259999D01*
X200352819Y-47259999D02*
X200352819Y-47355237D01*
X200352819Y-47355237D02*
X200305200Y-47450475D01*
X200305200Y-47450475D02*
X200257580Y-47498094D01*
X200257580Y-47498094D02*
X200162342Y-47545713D01*
X200162342Y-47545713D02*
X199971866Y-47593332D01*
X199971866Y-47593332D02*
X199733771Y-47593332D01*
X199733771Y-47593332D02*
X199543295Y-47545713D01*
X199543295Y-47545713D02*
X199448057Y-47498094D01*
X199448057Y-47498094D02*
X199400438Y-47450475D01*
X199400438Y-47450475D02*
X199352819Y-47355237D01*
X212052819Y-29289333D02*
X212767104Y-29289333D01*
X212767104Y-29289333D02*
X212909961Y-29336952D01*
X212909961Y-29336952D02*
X213005200Y-29432190D01*
X213005200Y-29432190D02*
X213052819Y-29575047D01*
X213052819Y-29575047D02*
X213052819Y-29670285D01*
X213052819Y-28289333D02*
X213052819Y-28860761D01*
X213052819Y-28575047D02*
X212052819Y-28575047D01*
X212052819Y-28575047D02*
X212195676Y-28670285D01*
X212195676Y-28670285D02*
X212290914Y-28765523D01*
X212290914Y-28765523D02*
X212338533Y-28860761D01*
X173228095Y-30994819D02*
X173228095Y-31804342D01*
X173228095Y-31804342D02*
X173275714Y-31899580D01*
X173275714Y-31899580D02*
X173323333Y-31947200D01*
X173323333Y-31947200D02*
X173418571Y-31994819D01*
X173418571Y-31994819D02*
X173609047Y-31994819D01*
X173609047Y-31994819D02*
X173704285Y-31947200D01*
X173704285Y-31947200D02*
X173751904Y-31899580D01*
X173751904Y-31899580D02*
X173799523Y-31804342D01*
X173799523Y-31804342D02*
X173799523Y-30994819D01*
X174704285Y-31328152D02*
X174704285Y-31994819D01*
X174466190Y-30947200D02*
X174228095Y-31661485D01*
X174228095Y-31661485D02*
X174847142Y-31661485D01*
X201596666Y-57874819D02*
X201596666Y-58589104D01*
X201596666Y-58589104D02*
X201549047Y-58731961D01*
X201549047Y-58731961D02*
X201453809Y-58827200D01*
X201453809Y-58827200D02*
X201310952Y-58874819D01*
X201310952Y-58874819D02*
X201215714Y-58874819D01*
X201977619Y-57874819D02*
X202596666Y-57874819D01*
X202596666Y-57874819D02*
X202263333Y-58255771D01*
X202263333Y-58255771D02*
X202406190Y-58255771D01*
X202406190Y-58255771D02*
X202501428Y-58303390D01*
X202501428Y-58303390D02*
X202549047Y-58351009D01*
X202549047Y-58351009D02*
X202596666Y-58446247D01*
X202596666Y-58446247D02*
X202596666Y-58684342D01*
X202596666Y-58684342D02*
X202549047Y-58779580D01*
X202549047Y-58779580D02*
X202501428Y-58827200D01*
X202501428Y-58827200D02*
X202406190Y-58874819D01*
X202406190Y-58874819D02*
X202120476Y-58874819D01*
X202120476Y-58874819D02*
X202025238Y-58827200D01*
X202025238Y-58827200D02*
X201977619Y-58779580D01*
X184984819Y-41886094D02*
X183984819Y-41886094D01*
X183984819Y-41886094D02*
X183984819Y-41647999D01*
X183984819Y-41647999D02*
X184032438Y-41505142D01*
X184032438Y-41505142D02*
X184127676Y-41409904D01*
X184127676Y-41409904D02*
X184222914Y-41362285D01*
X184222914Y-41362285D02*
X184413390Y-41314666D01*
X184413390Y-41314666D02*
X184556247Y-41314666D01*
X184556247Y-41314666D02*
X184746723Y-41362285D01*
X184746723Y-41362285D02*
X184841961Y-41409904D01*
X184841961Y-41409904D02*
X184937200Y-41505142D01*
X184937200Y-41505142D02*
X184984819Y-41647999D01*
X184984819Y-41647999D02*
X184984819Y-41886094D01*
X184413390Y-40743237D02*
X184365771Y-40838475D01*
X184365771Y-40838475D02*
X184318152Y-40886094D01*
X184318152Y-40886094D02*
X184222914Y-40933713D01*
X184222914Y-40933713D02*
X184175295Y-40933713D01*
X184175295Y-40933713D02*
X184080057Y-40886094D01*
X184080057Y-40886094D02*
X184032438Y-40838475D01*
X184032438Y-40838475D02*
X183984819Y-40743237D01*
X183984819Y-40743237D02*
X183984819Y-40552761D01*
X183984819Y-40552761D02*
X184032438Y-40457523D01*
X184032438Y-40457523D02*
X184080057Y-40409904D01*
X184080057Y-40409904D02*
X184175295Y-40362285D01*
X184175295Y-40362285D02*
X184222914Y-40362285D01*
X184222914Y-40362285D02*
X184318152Y-40409904D01*
X184318152Y-40409904D02*
X184365771Y-40457523D01*
X184365771Y-40457523D02*
X184413390Y-40552761D01*
X184413390Y-40552761D02*
X184413390Y-40743237D01*
X184413390Y-40743237D02*
X184461009Y-40838475D01*
X184461009Y-40838475D02*
X184508628Y-40886094D01*
X184508628Y-40886094D02*
X184603866Y-40933713D01*
X184603866Y-40933713D02*
X184794342Y-40933713D01*
X184794342Y-40933713D02*
X184889580Y-40886094D01*
X184889580Y-40886094D02*
X184937200Y-40838475D01*
X184937200Y-40838475D02*
X184984819Y-40743237D01*
X184984819Y-40743237D02*
X184984819Y-40552761D01*
X184984819Y-40552761D02*
X184937200Y-40457523D01*
X184937200Y-40457523D02*
X184889580Y-40409904D01*
X184889580Y-40409904D02*
X184794342Y-40362285D01*
X184794342Y-40362285D02*
X184603866Y-40362285D01*
X184603866Y-40362285D02*
X184508628Y-40409904D01*
X184508628Y-40409904D02*
X184461009Y-40457523D01*
X184461009Y-40457523D02*
X184413390Y-40552761D01*
X194143333Y-62081580D02*
X194095714Y-62129200D01*
X194095714Y-62129200D02*
X193952857Y-62176819D01*
X193952857Y-62176819D02*
X193857619Y-62176819D01*
X193857619Y-62176819D02*
X193714762Y-62129200D01*
X193714762Y-62129200D02*
X193619524Y-62033961D01*
X193619524Y-62033961D02*
X193571905Y-61938723D01*
X193571905Y-61938723D02*
X193524286Y-61748247D01*
X193524286Y-61748247D02*
X193524286Y-61605390D01*
X193524286Y-61605390D02*
X193571905Y-61414914D01*
X193571905Y-61414914D02*
X193619524Y-61319676D01*
X193619524Y-61319676D02*
X193714762Y-61224438D01*
X193714762Y-61224438D02*
X193857619Y-61176819D01*
X193857619Y-61176819D02*
X193952857Y-61176819D01*
X193952857Y-61176819D02*
X194095714Y-61224438D01*
X194095714Y-61224438D02*
X194143333Y-61272057D01*
X195095714Y-62176819D02*
X194524286Y-62176819D01*
X194810000Y-62176819D02*
X194810000Y-61176819D01*
X194810000Y-61176819D02*
X194714762Y-61319676D01*
X194714762Y-61319676D02*
X194619524Y-61414914D01*
X194619524Y-61414914D02*
X194524286Y-61462533D01*
X197264819Y-60082856D02*
X197264819Y-59987618D01*
X197264819Y-59987618D02*
X197312438Y-59892380D01*
X197312438Y-59892380D02*
X197360057Y-59844761D01*
X197360057Y-59844761D02*
X197455295Y-59797142D01*
X197455295Y-59797142D02*
X197645771Y-59749523D01*
X197645771Y-59749523D02*
X197883866Y-59749523D01*
X197883866Y-59749523D02*
X198074342Y-59797142D01*
X198074342Y-59797142D02*
X198169580Y-59844761D01*
X198169580Y-59844761D02*
X198217200Y-59892380D01*
X198217200Y-59892380D02*
X198264819Y-59987618D01*
X198264819Y-59987618D02*
X198264819Y-60082856D01*
X198264819Y-60082856D02*
X198217200Y-60178094D01*
X198217200Y-60178094D02*
X198169580Y-60225713D01*
X198169580Y-60225713D02*
X198074342Y-60273332D01*
X198074342Y-60273332D02*
X197883866Y-60320951D01*
X197883866Y-60320951D02*
X197645771Y-60320951D01*
X197645771Y-60320951D02*
X197455295Y-60273332D01*
X197455295Y-60273332D02*
X197360057Y-60225713D01*
X197360057Y-60225713D02*
X197312438Y-60178094D01*
X197312438Y-60178094D02*
X197264819Y-60082856D01*
X198169580Y-59320951D02*
X198217200Y-59273332D01*
X198217200Y-59273332D02*
X198264819Y-59320951D01*
X198264819Y-59320951D02*
X198217200Y-59368570D01*
X198217200Y-59368570D02*
X198169580Y-59320951D01*
X198169580Y-59320951D02*
X198264819Y-59320951D01*
X198264819Y-58320952D02*
X198264819Y-58892380D01*
X198264819Y-58606666D02*
X197264819Y-58606666D01*
X197264819Y-58606666D02*
X197407676Y-58701904D01*
X197407676Y-58701904D02*
X197502914Y-58797142D01*
X197502914Y-58797142D02*
X197550533Y-58892380D01*
X197598152Y-57463809D02*
X198264819Y-57463809D01*
X197598152Y-57892380D02*
X198121961Y-57892380D01*
X198121961Y-57892380D02*
X198217200Y-57844761D01*
X198217200Y-57844761D02*
X198264819Y-57749523D01*
X198264819Y-57749523D02*
X198264819Y-57606666D01*
X198264819Y-57606666D02*
X198217200Y-57511428D01*
X198217200Y-57511428D02*
X198169580Y-57463809D01*
X197741009Y-56654285D02*
X197741009Y-56987618D01*
X198264819Y-56987618D02*
X197264819Y-56987618D01*
X197264819Y-56987618D02*
X197264819Y-56511428D01*
X163977200Y-71163332D02*
X164024819Y-71020475D01*
X164024819Y-71020475D02*
X164024819Y-70782380D01*
X164024819Y-70782380D02*
X163977200Y-70687142D01*
X163977200Y-70687142D02*
X163929580Y-70639523D01*
X163929580Y-70639523D02*
X163834342Y-70591904D01*
X163834342Y-70591904D02*
X163739104Y-70591904D01*
X163739104Y-70591904D02*
X163643866Y-70639523D01*
X163643866Y-70639523D02*
X163596247Y-70687142D01*
X163596247Y-70687142D02*
X163548628Y-70782380D01*
X163548628Y-70782380D02*
X163501009Y-70972856D01*
X163501009Y-70972856D02*
X163453390Y-71068094D01*
X163453390Y-71068094D02*
X163405771Y-71115713D01*
X163405771Y-71115713D02*
X163310533Y-71163332D01*
X163310533Y-71163332D02*
X163215295Y-71163332D01*
X163215295Y-71163332D02*
X163120057Y-71115713D01*
X163120057Y-71115713D02*
X163072438Y-71068094D01*
X163072438Y-71068094D02*
X163024819Y-70972856D01*
X163024819Y-70972856D02*
X163024819Y-70734761D01*
X163024819Y-70734761D02*
X163072438Y-70591904D01*
X163024819Y-70258570D02*
X164024819Y-70020475D01*
X164024819Y-70020475D02*
X163310533Y-69829999D01*
X163310533Y-69829999D02*
X164024819Y-69639523D01*
X164024819Y-69639523D02*
X163024819Y-69401428D01*
X163024819Y-69115713D02*
X163024819Y-68496666D01*
X163024819Y-68496666D02*
X163405771Y-68829999D01*
X163405771Y-68829999D02*
X163405771Y-68687142D01*
X163405771Y-68687142D02*
X163453390Y-68591904D01*
X163453390Y-68591904D02*
X163501009Y-68544285D01*
X163501009Y-68544285D02*
X163596247Y-68496666D01*
X163596247Y-68496666D02*
X163834342Y-68496666D01*
X163834342Y-68496666D02*
X163929580Y-68544285D01*
X163929580Y-68544285D02*
X163977200Y-68591904D01*
X163977200Y-68591904D02*
X164024819Y-68687142D01*
X164024819Y-68687142D02*
X164024819Y-68972856D01*
X164024819Y-68972856D02*
X163977200Y-69068094D01*
X163977200Y-69068094D02*
X163929580Y-69115713D01*
X155874819Y-71639523D02*
X154874819Y-71639523D01*
X154874819Y-71639523D02*
X155589104Y-71306190D01*
X155589104Y-71306190D02*
X154874819Y-70972857D01*
X154874819Y-70972857D02*
X155874819Y-70972857D01*
X154874819Y-70306190D02*
X154874819Y-70115714D01*
X154874819Y-70115714D02*
X154922438Y-70020476D01*
X154922438Y-70020476D02*
X155017676Y-69925238D01*
X155017676Y-69925238D02*
X155208152Y-69877619D01*
X155208152Y-69877619D02*
X155541485Y-69877619D01*
X155541485Y-69877619D02*
X155731961Y-69925238D01*
X155731961Y-69925238D02*
X155827200Y-70020476D01*
X155827200Y-70020476D02*
X155874819Y-70115714D01*
X155874819Y-70115714D02*
X155874819Y-70306190D01*
X155874819Y-70306190D02*
X155827200Y-70401428D01*
X155827200Y-70401428D02*
X155731961Y-70496666D01*
X155731961Y-70496666D02*
X155541485Y-70544285D01*
X155541485Y-70544285D02*
X155208152Y-70544285D01*
X155208152Y-70544285D02*
X155017676Y-70496666D01*
X155017676Y-70496666D02*
X154922438Y-70401428D01*
X154922438Y-70401428D02*
X154874819Y-70306190D01*
X155874819Y-69449047D02*
X154874819Y-69449047D01*
X154874819Y-69449047D02*
X154874819Y-69210952D01*
X154874819Y-69210952D02*
X154922438Y-69068095D01*
X154922438Y-69068095D02*
X155017676Y-68972857D01*
X155017676Y-68972857D02*
X155112914Y-68925238D01*
X155112914Y-68925238D02*
X155303390Y-68877619D01*
X155303390Y-68877619D02*
X155446247Y-68877619D01*
X155446247Y-68877619D02*
X155636723Y-68925238D01*
X155636723Y-68925238D02*
X155731961Y-68972857D01*
X155731961Y-68972857D02*
X155827200Y-69068095D01*
X155827200Y-69068095D02*
X155874819Y-69210952D01*
X155874819Y-69210952D02*
X155874819Y-69449047D01*
X155351009Y-68449047D02*
X155351009Y-68115714D01*
X155874819Y-67972857D02*
X155874819Y-68449047D01*
X155874819Y-68449047D02*
X154874819Y-68449047D01*
X154874819Y-68449047D02*
X154874819Y-67972857D01*
X186636819Y-44362666D02*
X186160628Y-44695999D01*
X186636819Y-44934094D02*
X185636819Y-44934094D01*
X185636819Y-44934094D02*
X185636819Y-44553142D01*
X185636819Y-44553142D02*
X185684438Y-44457904D01*
X185684438Y-44457904D02*
X185732057Y-44410285D01*
X185732057Y-44410285D02*
X185827295Y-44362666D01*
X185827295Y-44362666D02*
X185970152Y-44362666D01*
X185970152Y-44362666D02*
X186065390Y-44410285D01*
X186065390Y-44410285D02*
X186113009Y-44457904D01*
X186113009Y-44457904D02*
X186160628Y-44553142D01*
X186160628Y-44553142D02*
X186160628Y-44934094D01*
X185970152Y-43505523D02*
X186636819Y-43505523D01*
X185589200Y-43743618D02*
X186303485Y-43981713D01*
X186303485Y-43981713D02*
X186303485Y-43362666D01*
X199352819Y-45735713D02*
X199352819Y-45116666D01*
X199352819Y-45116666D02*
X199733771Y-45449999D01*
X199733771Y-45449999D02*
X199733771Y-45307142D01*
X199733771Y-45307142D02*
X199781390Y-45211904D01*
X199781390Y-45211904D02*
X199829009Y-45164285D01*
X199829009Y-45164285D02*
X199924247Y-45116666D01*
X199924247Y-45116666D02*
X200162342Y-45116666D01*
X200162342Y-45116666D02*
X200257580Y-45164285D01*
X200257580Y-45164285D02*
X200305200Y-45211904D01*
X200305200Y-45211904D02*
X200352819Y-45307142D01*
X200352819Y-45307142D02*
X200352819Y-45592856D01*
X200352819Y-45592856D02*
X200305200Y-45688094D01*
X200305200Y-45688094D02*
X200257580Y-45735713D01*
X199352819Y-44783332D02*
X199352819Y-44164285D01*
X199352819Y-44164285D02*
X199733771Y-44497618D01*
X199733771Y-44497618D02*
X199733771Y-44354761D01*
X199733771Y-44354761D02*
X199781390Y-44259523D01*
X199781390Y-44259523D02*
X199829009Y-44211904D01*
X199829009Y-44211904D02*
X199924247Y-44164285D01*
X199924247Y-44164285D02*
X200162342Y-44164285D01*
X200162342Y-44164285D02*
X200257580Y-44211904D01*
X200257580Y-44211904D02*
X200305200Y-44259523D01*
X200305200Y-44259523D02*
X200352819Y-44354761D01*
X200352819Y-44354761D02*
X200352819Y-44640475D01*
X200352819Y-44640475D02*
X200305200Y-44735713D01*
X200305200Y-44735713D02*
X200257580Y-44783332D01*
X199352819Y-43545237D02*
X199352819Y-43449999D01*
X199352819Y-43449999D02*
X199400438Y-43354761D01*
X199400438Y-43354761D02*
X199448057Y-43307142D01*
X199448057Y-43307142D02*
X199543295Y-43259523D01*
X199543295Y-43259523D02*
X199733771Y-43211904D01*
X199733771Y-43211904D02*
X199971866Y-43211904D01*
X199971866Y-43211904D02*
X200162342Y-43259523D01*
X200162342Y-43259523D02*
X200257580Y-43307142D01*
X200257580Y-43307142D02*
X200305200Y-43354761D01*
X200305200Y-43354761D02*
X200352819Y-43449999D01*
X200352819Y-43449999D02*
X200352819Y-43545237D01*
X200352819Y-43545237D02*
X200305200Y-43640475D01*
X200305200Y-43640475D02*
X200257580Y-43688094D01*
X200257580Y-43688094D02*
X200162342Y-43735713D01*
X200162342Y-43735713D02*
X199971866Y-43783332D01*
X199971866Y-43783332D02*
X199733771Y-43783332D01*
X199733771Y-43783332D02*
X199543295Y-43735713D01*
X199543295Y-43735713D02*
X199448057Y-43688094D01*
X199448057Y-43688094D02*
X199400438Y-43640475D01*
X199400438Y-43640475D02*
X199352819Y-43545237D01*
X119467333Y-60303580D02*
X119419714Y-60351200D01*
X119419714Y-60351200D02*
X119276857Y-60398819D01*
X119276857Y-60398819D02*
X119181619Y-60398819D01*
X119181619Y-60398819D02*
X119038762Y-60351200D01*
X119038762Y-60351200D02*
X118943524Y-60255961D01*
X118943524Y-60255961D02*
X118895905Y-60160723D01*
X118895905Y-60160723D02*
X118848286Y-59970247D01*
X118848286Y-59970247D02*
X118848286Y-59827390D01*
X118848286Y-59827390D02*
X118895905Y-59636914D01*
X118895905Y-59636914D02*
X118943524Y-59541676D01*
X118943524Y-59541676D02*
X119038762Y-59446438D01*
X119038762Y-59446438D02*
X119181619Y-59398819D01*
X119181619Y-59398819D02*
X119276857Y-59398819D01*
X119276857Y-59398819D02*
X119419714Y-59446438D01*
X119419714Y-59446438D02*
X119467333Y-59494057D01*
X119800667Y-59398819D02*
X120419714Y-59398819D01*
X120419714Y-59398819D02*
X120086381Y-59779771D01*
X120086381Y-59779771D02*
X120229238Y-59779771D01*
X120229238Y-59779771D02*
X120324476Y-59827390D01*
X120324476Y-59827390D02*
X120372095Y-59875009D01*
X120372095Y-59875009D02*
X120419714Y-59970247D01*
X120419714Y-59970247D02*
X120419714Y-60208342D01*
X120419714Y-60208342D02*
X120372095Y-60303580D01*
X120372095Y-60303580D02*
X120324476Y-60351200D01*
X120324476Y-60351200D02*
X120229238Y-60398819D01*
X120229238Y-60398819D02*
X119943524Y-60398819D01*
X119943524Y-60398819D02*
X119848286Y-60351200D01*
X119848286Y-60351200D02*
X119800667Y-60303580D01*
X121547143Y-62954819D02*
X121642381Y-62954819D01*
X121642381Y-62954819D02*
X121737619Y-63002438D01*
X121737619Y-63002438D02*
X121785238Y-63050057D01*
X121785238Y-63050057D02*
X121832857Y-63145295D01*
X121832857Y-63145295D02*
X121880476Y-63335771D01*
X121880476Y-63335771D02*
X121880476Y-63573866D01*
X121880476Y-63573866D02*
X121832857Y-63764342D01*
X121832857Y-63764342D02*
X121785238Y-63859580D01*
X121785238Y-63859580D02*
X121737619Y-63907200D01*
X121737619Y-63907200D02*
X121642381Y-63954819D01*
X121642381Y-63954819D02*
X121547143Y-63954819D01*
X121547143Y-63954819D02*
X121451905Y-63907200D01*
X121451905Y-63907200D02*
X121404286Y-63859580D01*
X121404286Y-63859580D02*
X121356667Y-63764342D01*
X121356667Y-63764342D02*
X121309048Y-63573866D01*
X121309048Y-63573866D02*
X121309048Y-63335771D01*
X121309048Y-63335771D02*
X121356667Y-63145295D01*
X121356667Y-63145295D02*
X121404286Y-63050057D01*
X121404286Y-63050057D02*
X121451905Y-63002438D01*
X121451905Y-63002438D02*
X121547143Y-62954819D01*
X122309048Y-63859580D02*
X122356667Y-63907200D01*
X122356667Y-63907200D02*
X122309048Y-63954819D01*
X122309048Y-63954819D02*
X122261429Y-63907200D01*
X122261429Y-63907200D02*
X122309048Y-63859580D01*
X122309048Y-63859580D02*
X122309048Y-63954819D01*
X123309047Y-63954819D02*
X122737619Y-63954819D01*
X123023333Y-63954819D02*
X123023333Y-62954819D01*
X123023333Y-62954819D02*
X122928095Y-63097676D01*
X122928095Y-63097676D02*
X122832857Y-63192914D01*
X122832857Y-63192914D02*
X122737619Y-63240533D01*
X124166190Y-63288152D02*
X124166190Y-63954819D01*
X123737619Y-63288152D02*
X123737619Y-63811961D01*
X123737619Y-63811961D02*
X123785238Y-63907200D01*
X123785238Y-63907200D02*
X123880476Y-63954819D01*
X123880476Y-63954819D02*
X124023333Y-63954819D01*
X124023333Y-63954819D02*
X124118571Y-63907200D01*
X124118571Y-63907200D02*
X124166190Y-63859580D01*
X124975714Y-63431009D02*
X124642381Y-63431009D01*
X124642381Y-63954819D02*
X124642381Y-62954819D01*
X124642381Y-62954819D02*
X125118571Y-62954819D01*
X191415200Y-41719332D02*
X191462819Y-41576475D01*
X191462819Y-41576475D02*
X191462819Y-41338380D01*
X191462819Y-41338380D02*
X191415200Y-41243142D01*
X191415200Y-41243142D02*
X191367580Y-41195523D01*
X191367580Y-41195523D02*
X191272342Y-41147904D01*
X191272342Y-41147904D02*
X191177104Y-41147904D01*
X191177104Y-41147904D02*
X191081866Y-41195523D01*
X191081866Y-41195523D02*
X191034247Y-41243142D01*
X191034247Y-41243142D02*
X190986628Y-41338380D01*
X190986628Y-41338380D02*
X190939009Y-41528856D01*
X190939009Y-41528856D02*
X190891390Y-41624094D01*
X190891390Y-41624094D02*
X190843771Y-41671713D01*
X190843771Y-41671713D02*
X190748533Y-41719332D01*
X190748533Y-41719332D02*
X190653295Y-41719332D01*
X190653295Y-41719332D02*
X190558057Y-41671713D01*
X190558057Y-41671713D02*
X190510438Y-41624094D01*
X190510438Y-41624094D02*
X190462819Y-41528856D01*
X190462819Y-41528856D02*
X190462819Y-41290761D01*
X190462819Y-41290761D02*
X190510438Y-41147904D01*
X190462819Y-40814570D02*
X191462819Y-40576475D01*
X191462819Y-40576475D02*
X190748533Y-40385999D01*
X190748533Y-40385999D02*
X191462819Y-40195523D01*
X191462819Y-40195523D02*
X190462819Y-39957428D01*
X190796152Y-39147904D02*
X191462819Y-39147904D01*
X190415200Y-39385999D02*
X191129485Y-39624094D01*
X191129485Y-39624094D02*
X191129485Y-39005047D01*
X193905476Y-34744819D02*
X193905476Y-33744819D01*
X193905476Y-33744819D02*
X194286428Y-33744819D01*
X194286428Y-33744819D02*
X194381666Y-33792438D01*
X194381666Y-33792438D02*
X194429285Y-33840057D01*
X194429285Y-33840057D02*
X194476904Y-33935295D01*
X194476904Y-33935295D02*
X194476904Y-34078152D01*
X194476904Y-34078152D02*
X194429285Y-34173390D01*
X194429285Y-34173390D02*
X194381666Y-34221009D01*
X194381666Y-34221009D02*
X194286428Y-34268628D01*
X194286428Y-34268628D02*
X193905476Y-34268628D01*
X195095952Y-33744819D02*
X195286428Y-33744819D01*
X195286428Y-33744819D02*
X195381666Y-33792438D01*
X195381666Y-33792438D02*
X195476904Y-33887676D01*
X195476904Y-33887676D02*
X195524523Y-34078152D01*
X195524523Y-34078152D02*
X195524523Y-34411485D01*
X195524523Y-34411485D02*
X195476904Y-34601961D01*
X195476904Y-34601961D02*
X195381666Y-34697200D01*
X195381666Y-34697200D02*
X195286428Y-34744819D01*
X195286428Y-34744819D02*
X195095952Y-34744819D01*
X195095952Y-34744819D02*
X195000714Y-34697200D01*
X195000714Y-34697200D02*
X194905476Y-34601961D01*
X194905476Y-34601961D02*
X194857857Y-34411485D01*
X194857857Y-34411485D02*
X194857857Y-34078152D01*
X194857857Y-34078152D02*
X194905476Y-33887676D01*
X194905476Y-33887676D02*
X195000714Y-33792438D01*
X195000714Y-33792438D02*
X195095952Y-33744819D01*
X195857857Y-33744819D02*
X196095952Y-34744819D01*
X196095952Y-34744819D02*
X196286428Y-34030533D01*
X196286428Y-34030533D02*
X196476904Y-34744819D01*
X196476904Y-34744819D02*
X196715000Y-33744819D01*
X197095952Y-34221009D02*
X197429285Y-34221009D01*
X197572142Y-34744819D02*
X197095952Y-34744819D01*
X197095952Y-34744819D02*
X197095952Y-33744819D01*
X197095952Y-33744819D02*
X197572142Y-33744819D01*
X198572142Y-34744819D02*
X198238809Y-34268628D01*
X198000714Y-34744819D02*
X198000714Y-33744819D01*
X198000714Y-33744819D02*
X198381666Y-33744819D01*
X198381666Y-33744819D02*
X198476904Y-33792438D01*
X198476904Y-33792438D02*
X198524523Y-33840057D01*
X198524523Y-33840057D02*
X198572142Y-33935295D01*
X198572142Y-33935295D02*
X198572142Y-34078152D01*
X198572142Y-34078152D02*
X198524523Y-34173390D01*
X198524523Y-34173390D02*
X198476904Y-34221009D01*
X198476904Y-34221009D02*
X198381666Y-34268628D01*
X198381666Y-34268628D02*
X198000714Y-34268628D01*
X154297142Y-23314819D02*
X153963809Y-22838628D01*
X153725714Y-23314819D02*
X153725714Y-22314819D01*
X153725714Y-22314819D02*
X154106666Y-22314819D01*
X154106666Y-22314819D02*
X154201904Y-22362438D01*
X154201904Y-22362438D02*
X154249523Y-22410057D01*
X154249523Y-22410057D02*
X154297142Y-22505295D01*
X154297142Y-22505295D02*
X154297142Y-22648152D01*
X154297142Y-22648152D02*
X154249523Y-22743390D01*
X154249523Y-22743390D02*
X154201904Y-22791009D01*
X154201904Y-22791009D02*
X154106666Y-22838628D01*
X154106666Y-22838628D02*
X153725714Y-22838628D01*
X155249523Y-23314819D02*
X154678095Y-23314819D01*
X154963809Y-23314819D02*
X154963809Y-22314819D01*
X154963809Y-22314819D02*
X154868571Y-22457676D01*
X154868571Y-22457676D02*
X154773333Y-22552914D01*
X154773333Y-22552914D02*
X154678095Y-22600533D01*
X155582857Y-22314819D02*
X156201904Y-22314819D01*
X156201904Y-22314819D02*
X155868571Y-22695771D01*
X155868571Y-22695771D02*
X156011428Y-22695771D01*
X156011428Y-22695771D02*
X156106666Y-22743390D01*
X156106666Y-22743390D02*
X156154285Y-22791009D01*
X156154285Y-22791009D02*
X156201904Y-22886247D01*
X156201904Y-22886247D02*
X156201904Y-23124342D01*
X156201904Y-23124342D02*
X156154285Y-23219580D01*
X156154285Y-23219580D02*
X156106666Y-23267200D01*
X156106666Y-23267200D02*
X156011428Y-23314819D01*
X156011428Y-23314819D02*
X155725714Y-23314819D01*
X155725714Y-23314819D02*
X155630476Y-23267200D01*
X155630476Y-23267200D02*
X155582857Y-23219580D01*
X153535238Y-27490057D02*
X153582857Y-27442438D01*
X153582857Y-27442438D02*
X153678095Y-27394819D01*
X153678095Y-27394819D02*
X153916190Y-27394819D01*
X153916190Y-27394819D02*
X154011428Y-27442438D01*
X154011428Y-27442438D02*
X154059047Y-27490057D01*
X154059047Y-27490057D02*
X154106666Y-27585295D01*
X154106666Y-27585295D02*
X154106666Y-27680533D01*
X154106666Y-27680533D02*
X154059047Y-27823390D01*
X154059047Y-27823390D02*
X153487619Y-28394819D01*
X153487619Y-28394819D02*
X154106666Y-28394819D01*
X154535238Y-28299580D02*
X154582857Y-28347200D01*
X154582857Y-28347200D02*
X154535238Y-28394819D01*
X154535238Y-28394819D02*
X154487619Y-28347200D01*
X154487619Y-28347200D02*
X154535238Y-28299580D01*
X154535238Y-28299580D02*
X154535238Y-28394819D01*
X154916190Y-27394819D02*
X155582856Y-27394819D01*
X155582856Y-27394819D02*
X155154285Y-28394819D01*
X155963809Y-28394819D02*
X155963809Y-27394819D01*
X156059047Y-28013866D02*
X156344761Y-28394819D01*
X156344761Y-27728152D02*
X155963809Y-28109104D01*
X159734819Y-47543333D02*
X160449104Y-47543333D01*
X160449104Y-47543333D02*
X160591961Y-47590952D01*
X160591961Y-47590952D02*
X160687200Y-47686190D01*
X160687200Y-47686190D02*
X160734819Y-47829047D01*
X160734819Y-47829047D02*
X160734819Y-47924285D01*
X160068152Y-46638571D02*
X160734819Y-46638571D01*
X159687200Y-46876666D02*
X160401485Y-47114761D01*
X160401485Y-47114761D02*
X160401485Y-46495714D01*
X171958095Y-44539819D02*
X171958095Y-45349342D01*
X171958095Y-45349342D02*
X172005714Y-45444580D01*
X172005714Y-45444580D02*
X172053333Y-45492200D01*
X172053333Y-45492200D02*
X172148571Y-45539819D01*
X172148571Y-45539819D02*
X172339047Y-45539819D01*
X172339047Y-45539819D02*
X172434285Y-45492200D01*
X172434285Y-45492200D02*
X172481904Y-45444580D01*
X172481904Y-45444580D02*
X172529523Y-45349342D01*
X172529523Y-45349342D02*
X172529523Y-44539819D01*
X172910476Y-44539819D02*
X173529523Y-44539819D01*
X173529523Y-44539819D02*
X173196190Y-44920771D01*
X173196190Y-44920771D02*
X173339047Y-44920771D01*
X173339047Y-44920771D02*
X173434285Y-44968390D01*
X173434285Y-44968390D02*
X173481904Y-45016009D01*
X173481904Y-45016009D02*
X173529523Y-45111247D01*
X173529523Y-45111247D02*
X173529523Y-45349342D01*
X173529523Y-45349342D02*
X173481904Y-45444580D01*
X173481904Y-45444580D02*
X173434285Y-45492200D01*
X173434285Y-45492200D02*
X173339047Y-45539819D01*
X173339047Y-45539819D02*
X173053333Y-45539819D01*
X173053333Y-45539819D02*
X172958095Y-45492200D01*
X172958095Y-45492200D02*
X172910476Y-45444580D01*
X185888333Y-37114819D02*
X185555000Y-36638628D01*
X185316905Y-37114819D02*
X185316905Y-36114819D01*
X185316905Y-36114819D02*
X185697857Y-36114819D01*
X185697857Y-36114819D02*
X185793095Y-36162438D01*
X185793095Y-36162438D02*
X185840714Y-36210057D01*
X185840714Y-36210057D02*
X185888333Y-36305295D01*
X185888333Y-36305295D02*
X185888333Y-36448152D01*
X185888333Y-36448152D02*
X185840714Y-36543390D01*
X185840714Y-36543390D02*
X185793095Y-36591009D01*
X185793095Y-36591009D02*
X185697857Y-36638628D01*
X185697857Y-36638628D02*
X185316905Y-36638628D01*
X186840714Y-37114819D02*
X186269286Y-37114819D01*
X186555000Y-37114819D02*
X186555000Y-36114819D01*
X186555000Y-36114819D02*
X186459762Y-36257676D01*
X186459762Y-36257676D02*
X186364524Y-36352914D01*
X186364524Y-36352914D02*
X186269286Y-36400533D01*
X184896286Y-31374819D02*
X185515333Y-31374819D01*
X185515333Y-31374819D02*
X185182000Y-31755771D01*
X185182000Y-31755771D02*
X185324857Y-31755771D01*
X185324857Y-31755771D02*
X185420095Y-31803390D01*
X185420095Y-31803390D02*
X185467714Y-31851009D01*
X185467714Y-31851009D02*
X185515333Y-31946247D01*
X185515333Y-31946247D02*
X185515333Y-32184342D01*
X185515333Y-32184342D02*
X185467714Y-32279580D01*
X185467714Y-32279580D02*
X185420095Y-32327200D01*
X185420095Y-32327200D02*
X185324857Y-32374819D01*
X185324857Y-32374819D02*
X185039143Y-32374819D01*
X185039143Y-32374819D02*
X184943905Y-32327200D01*
X184943905Y-32327200D02*
X184896286Y-32279580D01*
X185848667Y-31374819D02*
X186467714Y-31374819D01*
X186467714Y-31374819D02*
X186134381Y-31755771D01*
X186134381Y-31755771D02*
X186277238Y-31755771D01*
X186277238Y-31755771D02*
X186372476Y-31803390D01*
X186372476Y-31803390D02*
X186420095Y-31851009D01*
X186420095Y-31851009D02*
X186467714Y-31946247D01*
X186467714Y-31946247D02*
X186467714Y-32184342D01*
X186467714Y-32184342D02*
X186420095Y-32279580D01*
X186420095Y-32279580D02*
X186372476Y-32327200D01*
X186372476Y-32327200D02*
X186277238Y-32374819D01*
X186277238Y-32374819D02*
X185991524Y-32374819D01*
X185991524Y-32374819D02*
X185896286Y-32327200D01*
X185896286Y-32327200D02*
X185848667Y-32279580D01*
X187086762Y-31374819D02*
X187182000Y-31374819D01*
X187182000Y-31374819D02*
X187277238Y-31422438D01*
X187277238Y-31422438D02*
X187324857Y-31470057D01*
X187324857Y-31470057D02*
X187372476Y-31565295D01*
X187372476Y-31565295D02*
X187420095Y-31755771D01*
X187420095Y-31755771D02*
X187420095Y-31993866D01*
X187420095Y-31993866D02*
X187372476Y-32184342D01*
X187372476Y-32184342D02*
X187324857Y-32279580D01*
X187324857Y-32279580D02*
X187277238Y-32327200D01*
X187277238Y-32327200D02*
X187182000Y-32374819D01*
X187182000Y-32374819D02*
X187086762Y-32374819D01*
X187086762Y-32374819D02*
X186991524Y-32327200D01*
X186991524Y-32327200D02*
X186943905Y-32279580D01*
X186943905Y-32279580D02*
X186896286Y-32184342D01*
X186896286Y-32184342D02*
X186848667Y-31993866D01*
X186848667Y-31993866D02*
X186848667Y-31755771D01*
X186848667Y-31755771D02*
X186896286Y-31565295D01*
X186896286Y-31565295D02*
X186943905Y-31470057D01*
X186943905Y-31470057D02*
X186991524Y-31422438D01*
X186991524Y-31422438D02*
X187086762Y-31374819D01*
X185951905Y-60398819D02*
X185951905Y-59398819D01*
X185951905Y-59398819D02*
X186190000Y-59398819D01*
X186190000Y-59398819D02*
X186332857Y-59446438D01*
X186332857Y-59446438D02*
X186428095Y-59541676D01*
X186428095Y-59541676D02*
X186475714Y-59636914D01*
X186475714Y-59636914D02*
X186523333Y-59827390D01*
X186523333Y-59827390D02*
X186523333Y-59970247D01*
X186523333Y-59970247D02*
X186475714Y-60160723D01*
X186475714Y-60160723D02*
X186428095Y-60255961D01*
X186428095Y-60255961D02*
X186332857Y-60351200D01*
X186332857Y-60351200D02*
X186190000Y-60398819D01*
X186190000Y-60398819D02*
X185951905Y-60398819D01*
X187380476Y-59398819D02*
X187190000Y-59398819D01*
X187190000Y-59398819D02*
X187094762Y-59446438D01*
X187094762Y-59446438D02*
X187047143Y-59494057D01*
X187047143Y-59494057D02*
X186951905Y-59636914D01*
X186951905Y-59636914D02*
X186904286Y-59827390D01*
X186904286Y-59827390D02*
X186904286Y-60208342D01*
X186904286Y-60208342D02*
X186951905Y-60303580D01*
X186951905Y-60303580D02*
X186999524Y-60351200D01*
X186999524Y-60351200D02*
X187094762Y-60398819D01*
X187094762Y-60398819D02*
X187285238Y-60398819D01*
X187285238Y-60398819D02*
X187380476Y-60351200D01*
X187380476Y-60351200D02*
X187428095Y-60303580D01*
X187428095Y-60303580D02*
X187475714Y-60208342D01*
X187475714Y-60208342D02*
X187475714Y-59970247D01*
X187475714Y-59970247D02*
X187428095Y-59875009D01*
X187428095Y-59875009D02*
X187380476Y-59827390D01*
X187380476Y-59827390D02*
X187285238Y-59779771D01*
X187285238Y-59779771D02*
X187094762Y-59779771D01*
X187094762Y-59779771D02*
X186999524Y-59827390D01*
X186999524Y-59827390D02*
X186951905Y-59875009D01*
X186951905Y-59875009D02*
X186904286Y-59970247D01*
X187652819Y-52808094D02*
X186652819Y-52808094D01*
X186652819Y-52808094D02*
X186652819Y-52569999D01*
X186652819Y-52569999D02*
X186700438Y-52427142D01*
X186700438Y-52427142D02*
X186795676Y-52331904D01*
X186795676Y-52331904D02*
X186890914Y-52284285D01*
X186890914Y-52284285D02*
X187081390Y-52236666D01*
X187081390Y-52236666D02*
X187224247Y-52236666D01*
X187224247Y-52236666D02*
X187414723Y-52284285D01*
X187414723Y-52284285D02*
X187509961Y-52331904D01*
X187509961Y-52331904D02*
X187605200Y-52427142D01*
X187605200Y-52427142D02*
X187652819Y-52569999D01*
X187652819Y-52569999D02*
X187652819Y-52808094D01*
X186652819Y-51331904D02*
X186652819Y-51808094D01*
X186652819Y-51808094D02*
X187129009Y-51855713D01*
X187129009Y-51855713D02*
X187081390Y-51808094D01*
X187081390Y-51808094D02*
X187033771Y-51712856D01*
X187033771Y-51712856D02*
X187033771Y-51474761D01*
X187033771Y-51474761D02*
X187081390Y-51379523D01*
X187081390Y-51379523D02*
X187129009Y-51331904D01*
X187129009Y-51331904D02*
X187224247Y-51284285D01*
X187224247Y-51284285D02*
X187462342Y-51284285D01*
X187462342Y-51284285D02*
X187557580Y-51331904D01*
X187557580Y-51331904D02*
X187605200Y-51379523D01*
X187605200Y-51379523D02*
X187652819Y-51474761D01*
X187652819Y-51474761D02*
X187652819Y-51712856D01*
X187652819Y-51712856D02*
X187605200Y-51808094D01*
X187605200Y-51808094D02*
X187557580Y-51855713D01*
D11*
%TO.C,J7*%
X124050000Y-33285000D02*
X124050000Y-35610000D01*
X123200000Y-33285000D02*
X124050000Y-33285000D01*
X118830000Y-33285000D02*
X119680000Y-33285000D01*
X124050000Y-43130000D02*
X126440000Y-43130000D01*
X124050000Y-45455000D02*
X124050000Y-43130000D01*
X123200000Y-45455000D02*
X124050000Y-45455000D01*
X119680000Y-45455000D02*
X118830000Y-45455000D01*
X118830000Y-45455000D02*
X118830000Y-33285000D01*
%TO.C,JP1*%
X125240000Y-53070000D02*
X121140000Y-53070000D01*
X125240000Y-51070000D02*
X125240000Y-53070000D01*
X121140000Y-53070000D02*
X121140000Y-51070000D01*
X121140000Y-51070000D02*
X125240000Y-51070000D01*
%TO.C,J6*%
X143410000Y-27640000D02*
X143410000Y-21670000D01*
X143410000Y-21670000D02*
X130790000Y-21670000D01*
X143400000Y-23930000D02*
X142650000Y-23930000D01*
X143400000Y-22430000D02*
X143400000Y-21680000D01*
X143400000Y-21680000D02*
X141600000Y-21680000D01*
X142650000Y-26880000D02*
X137100000Y-26880000D01*
X142650000Y-23930000D02*
X142650000Y-26880000D01*
X141600000Y-22430000D02*
X143400000Y-22430000D01*
X141600000Y-21680000D02*
X141600000Y-22430000D01*
X140100000Y-22430000D02*
X140100000Y-21680000D01*
X140100000Y-21680000D02*
X134100000Y-21680000D01*
X134100000Y-22430000D02*
X140100000Y-22430000D01*
X134100000Y-21680000D02*
X134100000Y-22430000D01*
X132600000Y-22430000D02*
X132600000Y-21680000D01*
X132600000Y-21680000D02*
X130800000Y-21680000D01*
X131750000Y-21380000D02*
X130500000Y-21380000D01*
X131550000Y-26880000D02*
X137100000Y-26880000D01*
X131550000Y-23930000D02*
X131550000Y-26880000D01*
X130800000Y-23930000D02*
X131550000Y-23930000D01*
X130800000Y-22430000D02*
X132600000Y-22430000D01*
X130800000Y-21680000D02*
X130800000Y-22430000D01*
X130790000Y-27640000D02*
X143410000Y-27640000D01*
X130790000Y-21670000D02*
X130790000Y-27640000D01*
X130500000Y-21380000D02*
X130500000Y-22630000D01*
D12*
%TO.C,A1*%
X128270000Y-74930000D02*
X128270000Y-31750000D01*
X130810000Y-29210000D02*
X151130000Y-29210000D01*
X151130000Y-77470000D02*
X130810000Y-77470000D01*
X153670000Y-31750000D02*
X153670000Y-74930000D01*
X128270000Y-31750000D02*
G75*
G02*
X130810000Y-29210000I2540001J-1D01*
G01*
X130810000Y-77470000D02*
G75*
G02*
X128270000Y-74930000I1J2540001D01*
G01*
X151130000Y-29210000D02*
G75*
G02*
X153670000Y-31750000I0J-2540000D01*
G01*
X153670000Y-74930000D02*
G75*
G02*
X151130000Y-77470000I-2540000J0D01*
G01*
D13*
X127260000Y-35560000D02*
G75*
G02*
X127060000Y-35560000I-100000J0D01*
G01*
X127060000Y-35560000D02*
G75*
G02*
X127260000Y-35560000I100000J0D01*
G01*
X154880000Y-35560000D02*
G75*
G02*
X154680000Y-35560000I-100000J0D01*
G01*
X154680000Y-35560000D02*
G75*
G02*
X154880000Y-35560000I100000J0D01*
G01*
D11*
%TO.C,J5*%
X202960000Y-40394110D02*
X213000000Y-40394110D01*
X202960000Y-50794110D02*
X202960000Y-40394110D01*
X202960000Y-50794110D02*
X213000000Y-50794110D01*
X205980000Y-50794110D02*
X205980000Y-40394110D01*
X210880000Y-50794110D02*
X210880000Y-40394110D01*
X212380000Y-50794110D02*
X212380000Y-40394110D01*
X213000000Y-47834110D02*
X213000000Y-40394110D01*
X213000000Y-50794110D02*
X213000000Y-48434110D01*
%TO.C,U2*%
X168850000Y-51960000D02*
X168850000Y-57260000D01*
X168850000Y-57260000D02*
X176590000Y-57260000D01*
X176590000Y-51960000D02*
X168850000Y-51960000D01*
X176590000Y-53610000D02*
X176590000Y-51960000D01*
X176590000Y-57260000D02*
X176590000Y-55610000D01*
X176590000Y-55610000D02*
G75*
G02*
X176590000Y-53610000I0J1000000D01*
G01*
%TO.C,C2*%
X173782288Y-63790000D02*
X173782288Y-63340000D01*
X174007288Y-63565000D02*
X173557288Y-63565000D01*
X173589741Y-63290000D02*
G75*
G02*
X173589741Y-61170000I-2119741J1060000D01*
G01*
%TO.C,J2*%
X202890000Y-62655000D02*
X202890000Y-63905000D01*
X203180000Y-62945000D02*
X203180000Y-68915000D01*
X203180000Y-68915000D02*
X210800000Y-68915000D01*
X203190000Y-62955000D02*
X203190000Y-63705000D01*
X203190000Y-63705000D02*
X204990000Y-63705000D01*
X203190000Y-65205000D02*
X203940000Y-65205000D01*
X203940000Y-65205000D02*
X203940000Y-68155000D01*
X203940000Y-68155000D02*
X206990000Y-68155000D01*
X204140000Y-62655000D02*
X202890000Y-62655000D01*
X204990000Y-62955000D02*
X203190000Y-62955000D01*
X204990000Y-63705000D02*
X204990000Y-62955000D01*
X206490000Y-62955000D02*
X206490000Y-63705000D01*
X206490000Y-63705000D02*
X207490000Y-63705000D01*
X207490000Y-62955000D02*
X206490000Y-62955000D01*
X207490000Y-63705000D02*
X207490000Y-62955000D01*
X208990000Y-62955000D02*
X208990000Y-63705000D01*
X208990000Y-63705000D02*
X210790000Y-63705000D01*
X210040000Y-65205000D02*
X210040000Y-68155000D01*
X210040000Y-68155000D02*
X206990000Y-68155000D01*
X210790000Y-62955000D02*
X208990000Y-62955000D01*
X210790000Y-63705000D02*
X210790000Y-62955000D01*
X210790000Y-65205000D02*
X210040000Y-65205000D01*
X210800000Y-62945000D02*
X203180000Y-62945000D01*
X210800000Y-68915000D02*
X210800000Y-62945000D01*
%TO.C,R2*%
X189000000Y-48260000D02*
X189770000Y-48260000D01*
X189770000Y-46890000D02*
X189770000Y-49630000D01*
X189770000Y-49630000D02*
X196310000Y-49630000D01*
X196310000Y-46890000D02*
X189770000Y-46890000D01*
X196310000Y-49630000D02*
X196310000Y-46890000D01*
X197080000Y-48260000D02*
X196310000Y-48260000D01*
%TO.C,J1*%
X202960000Y-30234110D02*
X213000000Y-30234110D01*
X202960000Y-40634110D02*
X202960000Y-30234110D01*
X202960000Y-40634110D02*
X213000000Y-40634110D01*
X205980000Y-40634110D02*
X205980000Y-30234110D01*
X210880000Y-40634110D02*
X210880000Y-30234110D01*
X212380000Y-40634110D02*
X212380000Y-30234110D01*
X213000000Y-37674110D02*
X213000000Y-30234110D01*
X213000000Y-40634110D02*
X213000000Y-38274110D01*
%TO.C,U4*%
X171340000Y-22800000D02*
X171340000Y-30540000D01*
X171340000Y-30540000D02*
X172990000Y-30540000D01*
X174990000Y-30540000D02*
X176640000Y-30540000D01*
X176640000Y-22800000D02*
X171340000Y-22800000D01*
X176640000Y-30540000D02*
X176640000Y-22800000D01*
X172990000Y-30540000D02*
G75*
G02*
X174990000Y-30540000I1000000J0D01*
G01*
%TO.C,J3*%
X210800000Y-59390000D02*
X210800000Y-53420000D01*
X210800000Y-53420000D02*
X203180000Y-53420000D01*
X210790000Y-55680000D02*
X210040000Y-55680000D01*
X210790000Y-54180000D02*
X210790000Y-53430000D01*
X210790000Y-53430000D02*
X208990000Y-53430000D01*
X210040000Y-58630000D02*
X206990000Y-58630000D01*
X210040000Y-55680000D02*
X210040000Y-58630000D01*
X208990000Y-54180000D02*
X210790000Y-54180000D01*
X208990000Y-53430000D02*
X208990000Y-54180000D01*
X207490000Y-54180000D02*
X207490000Y-53430000D01*
X207490000Y-53430000D02*
X206490000Y-53430000D01*
X206490000Y-54180000D02*
X207490000Y-54180000D01*
X206490000Y-53430000D02*
X206490000Y-54180000D01*
X204990000Y-54180000D02*
X204990000Y-53430000D01*
X204990000Y-53430000D02*
X203190000Y-53430000D01*
X204140000Y-53130000D02*
X202890000Y-53130000D01*
X203940000Y-58630000D02*
X206990000Y-58630000D01*
X203940000Y-55680000D02*
X203940000Y-58630000D01*
X203190000Y-55680000D02*
X203940000Y-55680000D01*
X203190000Y-54180000D02*
X204990000Y-54180000D01*
X203190000Y-53430000D02*
X203190000Y-54180000D01*
X203180000Y-59390000D02*
X210800000Y-59390000D01*
X203180000Y-53420000D02*
X203180000Y-59390000D01*
X202890000Y-53130000D02*
X202890000Y-54380000D01*
%TO.C,D8*%
X179690000Y-39260000D02*
X179690000Y-47100000D01*
X179690000Y-47100000D02*
X180170000Y-47100000D01*
X180170000Y-39260000D02*
X179690000Y-39260000D01*
X183050000Y-39260000D02*
X183530000Y-39260000D01*
X183530000Y-39260000D02*
X183530000Y-47100000D01*
X183530000Y-40400000D02*
X179690000Y-40400000D01*
X183530000Y-40520000D02*
X179690000Y-40520000D01*
X183530000Y-40640000D02*
X179690000Y-40640000D01*
X183530000Y-47100000D02*
X183050000Y-47100000D01*
%TO.C,C1*%
X192750000Y-60752288D02*
X193200000Y-60752288D01*
X192975000Y-60977288D02*
X192975000Y-60527288D01*
X193250000Y-60559741D02*
G75*
G02*
X195370000Y-60559741I1060000J2119741D01*
G01*
%TO.C,SW3*%
X156510000Y-66020000D02*
X156510000Y-73640000D01*
X156510000Y-73640000D02*
X162480000Y-73640000D01*
X157270000Y-66780000D02*
X157270000Y-69830000D01*
X157270000Y-72880000D02*
X157270000Y-69830000D01*
X160220000Y-66030000D02*
X160220000Y-66780000D01*
X160220000Y-66780000D02*
X157270000Y-66780000D01*
X160220000Y-72880000D02*
X157270000Y-72880000D01*
X160220000Y-73630000D02*
X160220000Y-72880000D01*
X161720000Y-66030000D02*
X161720000Y-67830000D01*
X161720000Y-67830000D02*
X162470000Y-67830000D01*
X161720000Y-69330000D02*
X161720000Y-70330000D01*
X161720000Y-70330000D02*
X162470000Y-70330000D01*
X161720000Y-71830000D02*
X161720000Y-73630000D01*
X161720000Y-73630000D02*
X162470000Y-73630000D01*
X162470000Y-66030000D02*
X161720000Y-66030000D01*
X162470000Y-67830000D02*
X162470000Y-66030000D01*
X162470000Y-69330000D02*
X161720000Y-69330000D01*
X162470000Y-70330000D02*
X162470000Y-69330000D01*
X162470000Y-71830000D02*
X161720000Y-71830000D01*
X162470000Y-73630000D02*
X162470000Y-71830000D01*
X162480000Y-66020000D02*
X156510000Y-66020000D01*
X162480000Y-73640000D02*
X162480000Y-66020000D01*
X162770000Y-65730000D02*
X161520000Y-65730000D01*
X162770000Y-66980000D02*
X162770000Y-65730000D01*
%TO.C,R4*%
X189000000Y-44324110D02*
X189770000Y-44324110D01*
X189770000Y-42954110D02*
X189770000Y-45694110D01*
X189770000Y-45694110D02*
X196310000Y-45694110D01*
X196310000Y-42954110D02*
X189770000Y-42954110D01*
X196310000Y-45694110D02*
X196310000Y-42954110D01*
X197080000Y-44324110D02*
X196310000Y-44324110D01*
%TO.C,C3*%
X121630000Y-62022288D02*
X122080000Y-62022288D01*
X121855000Y-62247288D02*
X121855000Y-61797288D01*
X122130000Y-61829741D02*
G75*
G02*
X124250000Y-61829741I1060000J2119741D01*
G01*
%TO.C,SW4*%
X191751821Y-35224110D02*
X191751821Y-36474110D01*
X192041821Y-35514110D02*
X192041821Y-41484110D01*
X192041821Y-41484110D02*
X199661821Y-41484110D01*
X192051821Y-35524110D02*
X192051821Y-36274110D01*
X192051821Y-36274110D02*
X193851821Y-36274110D01*
X192051821Y-37774110D02*
X192801821Y-37774110D01*
X192801821Y-37774110D02*
X192801821Y-40724110D01*
X192801821Y-40724110D02*
X195851821Y-40724110D01*
X193001821Y-35224110D02*
X191751821Y-35224110D01*
X193851821Y-35524110D02*
X192051821Y-35524110D01*
X193851821Y-36274110D02*
X193851821Y-35524110D01*
X195351821Y-35524110D02*
X195351821Y-36274110D01*
X195351821Y-36274110D02*
X196351821Y-36274110D01*
X196351821Y-35524110D02*
X195351821Y-35524110D01*
X196351821Y-36274110D02*
X196351821Y-35524110D01*
X197851821Y-35524110D02*
X197851821Y-36274110D01*
X197851821Y-36274110D02*
X199651821Y-36274110D01*
X198901821Y-37774110D02*
X198901821Y-40724110D01*
X198901821Y-40724110D02*
X195851821Y-40724110D01*
X199651821Y-35524110D02*
X197851821Y-35524110D01*
X199651821Y-36274110D02*
X199651821Y-35524110D01*
X199651821Y-37774110D02*
X198901821Y-37774110D01*
X199661821Y-35514110D02*
X192041821Y-35514110D01*
X199661821Y-41484110D02*
X199661821Y-35514110D01*
%TO.C,U1*%
X179030000Y-75025000D02*
X179030000Y-70384000D01*
X182299000Y-75025000D02*
X182299000Y-73515000D01*
X186000000Y-75025000D02*
X186000000Y-73515000D01*
X189270000Y-70384000D02*
X179030000Y-70384000D01*
X189270000Y-73515000D02*
X179030000Y-73515000D01*
X189270000Y-75025000D02*
X179030000Y-75025000D01*
X189270000Y-75025000D02*
X189270000Y-70384000D01*
%TO.C,R13*%
X150900000Y-25400000D02*
X151670000Y-25400000D01*
X151670000Y-24030000D02*
X151670000Y-26770000D01*
X151670000Y-26770000D02*
X158210000Y-26770000D01*
X158210000Y-24030000D02*
X151670000Y-24030000D01*
X158210000Y-26770000D02*
X158210000Y-24030000D01*
X158980000Y-25400000D02*
X158210000Y-25400000D01*
%TO.C,J4*%
X161080000Y-62560000D02*
X161080000Y-63810000D01*
X161080000Y-63810000D02*
X162330000Y-63810000D01*
X161370000Y-30900000D02*
X161370000Y-63520000D01*
X161370000Y-63520000D02*
X167340000Y-63520000D01*
X161380000Y-30910000D02*
X161380000Y-32710000D01*
X161380000Y-32710000D02*
X162130000Y-32710000D01*
X161380000Y-34210000D02*
X161380000Y-60210000D01*
X161380000Y-60210000D02*
X162130000Y-60210000D01*
X161380000Y-61710000D02*
X161380000Y-63510000D01*
X161380000Y-63510000D02*
X162130000Y-63510000D01*
X162130000Y-30910000D02*
X161380000Y-30910000D01*
X162130000Y-32710000D02*
X162130000Y-30910000D01*
X162130000Y-34210000D02*
X161380000Y-34210000D01*
X162130000Y-60210000D02*
X162130000Y-34210000D01*
X162130000Y-61710000D02*
X161380000Y-61710000D01*
X162130000Y-63510000D02*
X162130000Y-61710000D01*
X163630000Y-30910000D02*
X163630000Y-31660000D01*
X163630000Y-31660000D02*
X166580000Y-31660000D01*
X163630000Y-62760000D02*
X166580000Y-62760000D01*
X163630000Y-63510000D02*
X163630000Y-62760000D01*
X166580000Y-31660000D02*
X166580000Y-47210000D01*
X166580000Y-62760000D02*
X166580000Y-47210000D01*
X167340000Y-30900000D02*
X161370000Y-30900000D01*
X167340000Y-63520000D02*
X167340000Y-30900000D01*
%TO.C,U3*%
X168850000Y-36720000D02*
X168850000Y-42020000D01*
X168850000Y-42020000D02*
X176590000Y-42020000D01*
X176590000Y-36720000D02*
X168850000Y-36720000D01*
X176590000Y-38370000D02*
X176590000Y-36720000D01*
X176590000Y-42020000D02*
X176590000Y-40370000D01*
X176590000Y-40370000D02*
G75*
G02*
X176590000Y-38370000I0J1000000D01*
G01*
%TO.C,R1*%
X180110000Y-34290000D02*
X180880000Y-34290000D01*
X180880000Y-32920000D02*
X180880000Y-35660000D01*
X180880000Y-35660000D02*
X187420000Y-35660000D01*
X187420000Y-32920000D02*
X180880000Y-32920000D01*
X187420000Y-35660000D02*
X187420000Y-32920000D01*
X188190000Y-34290000D02*
X187420000Y-34290000D01*
%TO.C,D6*%
X180230000Y-55230000D02*
X180230000Y-55710000D01*
X180230000Y-59070000D02*
X180230000Y-58590000D01*
X186690000Y-59070000D02*
X186690000Y-55230000D01*
X186810000Y-59070000D02*
X186810000Y-55230000D01*
X186930000Y-59070000D02*
X186930000Y-55230000D01*
X188070000Y-55230000D02*
X180230000Y-55230000D01*
X188070000Y-55710000D02*
X188070000Y-55230000D01*
X188070000Y-58590000D02*
X188070000Y-59070000D01*
X188070000Y-59070000D02*
X180230000Y-59070000D01*
%TO.C,D5*%
X190681821Y-50150000D02*
X198521821Y-50150000D01*
X190681821Y-50630000D02*
X190681821Y-50150000D01*
X190681821Y-53510000D02*
X190681821Y-53990000D01*
X190681821Y-53990000D02*
X198521821Y-53990000D01*
X191821821Y-50150000D02*
X191821821Y-53990000D01*
X191941821Y-50150000D02*
X191941821Y-53990000D01*
X192061821Y-50150000D02*
X192061821Y-53990000D01*
X198521821Y-50150000D02*
X198521821Y-50630000D01*
X198521821Y-53990000D02*
X198521821Y-53510000D01*
%TD*%
M02*
