%TF.GenerationSoftware,KiCad,Pcbnew,9.0.1*%
%TF.CreationDate,2025-04-03T23:22:05-05:00*%
%TF.ProjectId,sump-pump-mon,73756d70-2d70-4756-9d70-2d6d6f6e2e6b,rev?*%
%TF.SameCoordinates,Original*%
%TF.FileFunction,Copper,L1,Top*%
%TF.FilePolarity,Positive*%
%FSLAX46Y46*%
G04 Gerber Fmt 4.6, Leading zero omitted, Abs format (unit mm)*
G04 Created by KiCad (PCBNEW 9.0.1) date 2025-04-03 23:22:05*
%MOMM*%
%LPD*%
G01*
G04 APERTURE LIST*
G04 Aperture macros list*
%AMRoundRect*
0 Rectangle with rounded corners*
0 $1 Rounding radius*
0 $2 $3 $4 $5 $6 $7 $8 $9 X,Y pos of 4 corners*
0 Add a 4 corners polygon primitive as box body*
4,1,4,$2,$3,$4,$5,$6,$7,$8,$9,$2,$3,0*
0 Add four circle primitives for the rounded corners*
1,1,$1+$1,$2,$3*
1,1,$1+$1,$4,$5*
1,1,$1+$1,$6,$7*
1,1,$1+$1,$8,$9*
0 Add four rect primitives between the rounded corners*
20,1,$1+$1,$2,$3,$4,$5,0*
20,1,$1+$1,$4,$5,$6,$7,0*
20,1,$1+$1,$6,$7,$8,$9,0*
20,1,$1+$1,$8,$9,$2,$3,0*%
G04 Aperture macros list end*
%TA.AperFunction,ComponentPad*%
%ADD10C,3.000000*%
%TD*%
%TA.AperFunction,ComponentPad*%
%ADD11RoundRect,0.288462X1.211538X-1.211538X1.211538X1.211538X-1.211538X1.211538X-1.211538X-1.211538X0*%
%TD*%
%TA.AperFunction,ComponentPad*%
%ADD12C,1.600000*%
%TD*%
%TA.AperFunction,ComponentPad*%
%ADD13O,1.600000X1.600000*%
%TD*%
%TA.AperFunction,ComponentPad*%
%ADD14RoundRect,0.250000X0.600000X0.750000X-0.600000X0.750000X-0.600000X-0.750000X0.600000X-0.750000X0*%
%TD*%
%TA.AperFunction,ComponentPad*%
%ADD15O,1.700000X2.000000*%
%TD*%
%TA.AperFunction,ComponentPad*%
%ADD16RoundRect,0.250000X0.725000X-0.600000X0.725000X0.600000X-0.725000X0.600000X-0.725000X-0.600000X0*%
%TD*%
%TA.AperFunction,ComponentPad*%
%ADD17O,1.950000X1.700000*%
%TD*%
%TA.AperFunction,ComponentPad*%
%ADD18RoundRect,0.250000X0.750000X-0.600000X0.750000X0.600000X-0.750000X0.600000X-0.750000X-0.600000X0*%
%TD*%
%TA.AperFunction,ComponentPad*%
%ADD19O,2.000000X1.700000*%
%TD*%
%TA.AperFunction,ComponentPad*%
%ADD20RoundRect,0.250000X0.550000X0.550000X-0.550000X0.550000X-0.550000X-0.550000X0.550000X-0.550000X0*%
%TD*%
%TA.AperFunction,ComponentPad*%
%ADD21RoundRect,0.250000X-0.550000X0.550000X-0.550000X-0.550000X0.550000X-0.550000X0.550000X0.550000X0*%
%TD*%
%TA.AperFunction,ComponentPad*%
%ADD22R,1.600000X1.600000*%
%TD*%
%TA.AperFunction,ComponentPad*%
%ADD23R,2.400000X2.400000*%
%TD*%
%TA.AperFunction,ComponentPad*%
%ADD24O,2.400000X2.400000*%
%TD*%
%TA.AperFunction,ComponentPad*%
%ADD25RoundRect,0.250000X-0.600000X-0.750000X0.600000X-0.750000X0.600000X0.750000X-0.600000X0.750000X0*%
%TD*%
%TA.AperFunction,ComponentPad*%
%ADD26R,1.905000X2.000000*%
%TD*%
%TA.AperFunction,ComponentPad*%
%ADD27O,1.905000X2.000000*%
%TD*%
%TA.AperFunction,ComponentPad*%
%ADD28R,1.930000X1.930000*%
%TD*%
%TA.AperFunction,ComponentPad*%
%ADD29C,1.930000*%
%TD*%
%TA.AperFunction,ViaPad*%
%ADD30C,0.600000*%
%TD*%
%TA.AperFunction,Conductor*%
%ADD31C,1.000000*%
%TD*%
%TA.AperFunction,Conductor*%
%ADD32C,2.000000*%
%TD*%
%TA.AperFunction,Conductor*%
%ADD33C,1.500000*%
%TD*%
G04 APERTURE END LIST*
D10*
%TO.P,J5,2,Pin_2*%
%TO.N,Vin*%
X218440000Y-40640000D03*
D11*
%TO.P,J5,1,Pin_1*%
%TO.N,Net-(J5-Pin_1)*%
X218440000Y-45720000D03*
%TD*%
D10*
%TO.P,J1,2,Pin_2*%
%TO.N,Net-(J1-Pin_2)*%
X218440000Y-30480000D03*
D11*
%TO.P,J1,1,Pin_1*%
%TO.N,Vin*%
X218440000Y-35560000D03*
%TD*%
D12*
%TO.P,R14,1*%
%TO.N,+3.3V*%
X116840000Y-50800000D03*
D13*
%TO.P,R14,2*%
%TO.N,Net-(A1B-D2)*%
X116840000Y-40640000D03*
%TD*%
D12*
%TO.P,R13,1*%
%TO.N,+3.3V*%
X153670000Y-21590000D03*
D13*
%TO.P,R13,2*%
%TO.N,Net-(A1B-D1)*%
X143510000Y-21590000D03*
%TD*%
D14*
%TO.P,J6,1,Pin_1*%
%TO.N,Net-(A1B-D1)*%
X135890000Y-24130000D03*
D15*
%TO.P,J6,2,Pin_2*%
%TO.N,Net-(A1B-D2)*%
X133390000Y-24130000D03*
%TD*%
D16*
%TO.P,J4,1,Pin_1*%
%TO.N,Main_Input*%
X163830000Y-55880000D03*
D17*
%TO.P,J4,2,Pin_2*%
%TO.N,Aux_Input*%
X163830000Y-53380000D03*
%TO.P,J4,3,Pin_3*%
%TO.N,Mode*%
X163830000Y-50880000D03*
%TO.P,J4,4,Pin_4*%
%TO.N,LED_6V*%
X163830000Y-48380000D03*
%TO.P,J4,5,Pin_5*%
%TO.N,GND*%
X163830000Y-45880000D03*
%TO.P,J4,6,Pin_6*%
%TO.N,LED_AUX*%
X163830000Y-43380000D03*
%TO.P,J4,7,Pin_7*%
%TO.N,LED_YELLOW*%
X163830000Y-40880000D03*
%TO.P,J4,8,Pin_8*%
%TO.N,LED_BLUE*%
X163830000Y-38380000D03*
%TO.P,J4,9,Pin_9*%
%TO.N,LED_MAIN*%
X163830000Y-35880000D03*
%TO.P,J4,10,Pin_10*%
%TO.N,LED_GREEN*%
X163830000Y-33380000D03*
%TO.P,J4,11,Pin_11*%
%TO.N,+3.3V*%
X163830000Y-30880000D03*
%TO.P,J4,12,Pin_12*%
%TO.N,GND*%
X163830000Y-28380000D03*
%TD*%
D12*
%TO.P,R8,1*%
%TO.N,Vin*%
X157480000Y-53340000D03*
D13*
%TO.P,R8,2*%
%TO.N,LED_6V*%
X157480000Y-43180000D03*
%TD*%
D18*
%TO.P,J3,1,Pin_1*%
%TO.N,GND*%
X214630000Y-55880000D03*
D19*
%TO.P,J3,2,Pin_2*%
%TO.N,Net-(D5-A)*%
X214630000Y-53380000D03*
%TD*%
D18*
%TO.P,J2,1,Pin_1*%
%TO.N,Net-(J2-Pin_1)*%
X214630000Y-66040000D03*
D19*
%TO.P,J2,2,Pin_2*%
%TO.N,GND*%
X214630000Y-63540000D03*
%TD*%
D12*
%TO.P,U3,6*%
%TO.N,unconnected-(U3-Pad6)*%
X187960000Y-31750000D03*
%TO.P,U3,5*%
%TO.N,Aux_Input*%
X187960000Y-29210000D03*
%TO.P,U3,4*%
%TO.N,GND*%
X187960000Y-26670000D03*
%TO.P,U3,3,NC*%
%TO.N,unconnected-(U3-NC-Pad3)*%
X195580000Y-26670000D03*
%TO.P,U3,2*%
%TO.N,LED_AUX*%
X195580000Y-29210000D03*
D20*
%TO.P,U3,1*%
%TO.N,Net-(R2-Pad2)*%
X195580000Y-31750000D03*
%TD*%
D13*
%TO.P,R1,2*%
%TO.N,Net-(R1-Pad2)*%
X198120000Y-27940000D03*
D12*
%TO.P,R1,1*%
%TO.N,Net-(J1-Pin_2)*%
X208280000Y-27940000D03*
%TD*%
D21*
%TO.P,U2,1*%
%TO.N,Net-(R1-Pad2)*%
X175260000Y-35560000D03*
D12*
%TO.P,U2,2*%
%TO.N,LED_MAIN*%
X172720000Y-35560000D03*
%TO.P,U2,3,NC*%
%TO.N,unconnected-(U2-NC-Pad3)*%
X170180000Y-35560000D03*
%TO.P,U2,4*%
%TO.N,GND*%
X170180000Y-43180000D03*
%TO.P,U2,5*%
%TO.N,Main_Input*%
X172720000Y-43180000D03*
%TO.P,U2,6*%
%TO.N,unconnected-(U2-Pad6)*%
X175260000Y-43180000D03*
%TD*%
D22*
%TO.P,C2,1*%
%TO.N,Net-(D6-A)*%
X195580000Y-66040000D03*
D12*
%TO.P,C2,2*%
%TO.N,GND*%
X195580000Y-63540000D03*
%TD*%
%TO.P,R2,1*%
%TO.N,Net-(J5-Pin_1)*%
X208280000Y-45720000D03*
D13*
%TO.P,R2,2*%
%TO.N,Net-(R2-Pad2)*%
X198120000Y-45720000D03*
%TD*%
D12*
%TO.P,R7,1*%
%TO.N,+3.3V*%
X180340000Y-35560000D03*
D13*
%TO.P,R7,2*%
%TO.N,Power_Failure*%
X180340000Y-45720000D03*
%TD*%
D20*
%TO.P,U4,1*%
%TO.N,Net-(R4-Pad2)*%
X193040000Y-50800000D03*
D12*
%TO.P,U4,2*%
%TO.N,GND*%
X193040000Y-48260000D03*
%TO.P,U4,3,NC*%
%TO.N,unconnected-(U4-NC-Pad3)*%
X193040000Y-45720000D03*
%TO.P,U4,4*%
%TO.N,GND*%
X185420000Y-45720000D03*
%TO.P,U4,5*%
%TO.N,Power_Failure*%
X185420000Y-48260000D03*
%TO.P,U4,6*%
%TO.N,unconnected-(U4-Pad6)*%
X185420000Y-50800000D03*
%TD*%
D23*
%TO.P,D8,1,K*%
%TO.N,GND*%
X190500000Y-58420000D03*
D24*
%TO.P,D8,2,A*%
%TO.N,Net-(D7-K)*%
X180340000Y-58420000D03*
%TD*%
D22*
%TO.P,C1,1*%
%TO.N,Net-(J2-Pin_1)*%
X203200000Y-66040000D03*
D12*
%TO.P,C1,2*%
%TO.N,GND*%
X203200000Y-63540000D03*
%TD*%
%TO.P,R6,1*%
%TO.N,+3.3V*%
X175260000Y-30480000D03*
D13*
%TO.P,R6,2*%
%TO.N,Aux_Input*%
X185420000Y-30480000D03*
%TD*%
D25*
%TO.P,SW3,1,A*%
%TO.N,Mode*%
X172720000Y-50800000D03*
D15*
%TO.P,SW3,2,B*%
%TO.N,GND*%
X175220000Y-50800000D03*
%TD*%
D12*
%TO.P,R4,1*%
%TO.N,Vin*%
X198120000Y-40640000D03*
D13*
%TO.P,R4,2*%
%TO.N,Net-(R4-Pad2)*%
X187960000Y-40640000D03*
%TD*%
D22*
%TO.P,C3,1*%
%TO.N,+3.3V*%
X116840000Y-58420000D03*
D12*
%TO.P,C3,2*%
%TO.N,GND*%
X119340000Y-58420000D03*
%TD*%
D25*
%TO.P,SW4,1,A*%
%TO.N,Net-(D5-K)*%
X203200000Y-38100000D03*
D15*
%TO.P,SW4,2,B*%
%TO.N,Vin*%
X205700000Y-38100000D03*
%TD*%
D26*
%TO.P,U1,1,IN*%
%TO.N,Net-(J2-Pin_1)*%
X203200000Y-71120000D03*
D27*
%TO.P,U1,2,GND*%
%TO.N,Net-(D7-A)*%
X200660000Y-71120000D03*
%TO.P,U1,3,OUT*%
%TO.N,Net-(D6-A)*%
X198120000Y-71120000D03*
%TD*%
D12*
%TO.P,R11,1*%
%TO.N,Net-(A1B-D8)*%
X152400000Y-58420000D03*
D13*
%TO.P,R11,2*%
%TO.N,LED_BLUE*%
X152400000Y-48260000D03*
%TD*%
D23*
%TO.P,D7,1,K*%
%TO.N,Net-(D7-K)*%
X180340000Y-66040000D03*
D24*
%TO.P,D7,2,A*%
%TO.N,Net-(D7-A)*%
X190500000Y-66040000D03*
%TD*%
D12*
%TO.P,R9,1*%
%TO.N,Net-(A1B-D3)*%
X157480000Y-40640000D03*
D13*
%TO.P,R9,2*%
%TO.N,LED_GREEN*%
X157480000Y-30480000D03*
%TD*%
D12*
%TO.P,R5,1*%
%TO.N,+3.3V*%
X157480000Y-66040000D03*
D13*
%TO.P,R5,2*%
%TO.N,Main_Input*%
X157480000Y-55880000D03*
%TD*%
D12*
%TO.P,R12,1*%
%TO.N,+3.3V*%
X152400000Y-71120000D03*
D13*
%TO.P,R12,2*%
%TO.N,Mode*%
X152400000Y-60960000D03*
%TD*%
D23*
%TO.P,D6,1,K*%
%TO.N,Net-(D5-K)*%
X198120000Y-58420000D03*
D24*
%TO.P,D6,2,A*%
%TO.N,Net-(D6-A)*%
X208280000Y-58420000D03*
%TD*%
D23*
%TO.P,D5,1,K*%
%TO.N,Net-(D5-K)*%
X198120000Y-50800000D03*
D24*
%TO.P,D5,2,A*%
%TO.N,Net-(D5-A)*%
X208280000Y-50800000D03*
%TD*%
D28*
%TO.P,A1,J1_1,A0*%
%TO.N,unconnected-(A1A-A0-PadJ1_1)*%
X123190000Y-35560000D03*
D29*
%TO.P,A1,J1_2,RSV1*%
%TO.N,unconnected-(A1A-RSV1-PadJ1_2)*%
X123190000Y-38100000D03*
%TO.P,A1,J1_3,RSV2*%
%TO.N,unconnected-(A1A-RSV2-PadJ1_3)*%
X123190000Y-40640000D03*
%TO.P,A1,J1_4,SD3*%
%TO.N,unconnected-(A1A-SD3-PadJ1_4)*%
X123190000Y-43180000D03*
%TO.P,A1,J1_5,SD2*%
%TO.N,unconnected-(A1A-SD2-PadJ1_5)*%
X123190000Y-45720000D03*
%TO.P,A1,J1_6,SD1*%
%TO.N,unconnected-(A1A-SD1-PadJ1_6)*%
X123190000Y-48260000D03*
%TO.P,A1,J1_7,CMD*%
%TO.N,unconnected-(A1A-CMD-PadJ1_7)*%
X123190000Y-50800000D03*
%TO.P,A1,J1_8,SD0*%
%TO.N,unconnected-(A1A-SD0-PadJ1_8)*%
X123190000Y-53340000D03*
%TO.P,A1,J1_9,CLK*%
%TO.N,unconnected-(A1A-CLK-PadJ1_9)*%
X123190000Y-55880000D03*
%TO.P,A1,J1_10,GND*%
%TO.N,GND*%
X123190000Y-58420000D03*
%TO.P,A1,J1_11,3V3*%
%TO.N,+3.3V*%
X123190000Y-60960000D03*
%TO.P,A1,J1_12,EN*%
%TO.N,unconnected-(A1A-EN-PadJ1_12)*%
X123190000Y-63500000D03*
%TO.P,A1,J1_13,RST*%
%TO.N,unconnected-(A1A-RST-PadJ1_13)*%
X123190000Y-66040000D03*
%TO.P,A1,J1_14,GND*%
%TO.N,GND*%
X123190000Y-68580000D03*
%TO.P,A1,J1_15,VIN*%
%TO.N,Vin*%
X123190000Y-71120000D03*
D28*
%TO.P,A1,J2_1,D0*%
%TO.N,Power_Failure*%
X146050000Y-35560000D03*
D29*
%TO.P,A1,J2_2,D1*%
%TO.N,Net-(A1B-D1)*%
X146050000Y-38100000D03*
%TO.P,A1,J2_3,D2*%
%TO.N,Net-(A1B-D2)*%
X146050000Y-40640000D03*
%TO.P,A1,J2_4,D3*%
%TO.N,Net-(A1B-D3)*%
X146050000Y-43180000D03*
%TO.P,A1,J2_5,D4*%
%TO.N,Net-(A1B-D4)*%
X146050000Y-45720000D03*
%TO.P,A1,J2_6,3V3*%
%TO.N,+3.3V*%
X146050000Y-48260000D03*
%TO.P,A1,J2_7,GND*%
%TO.N,GND*%
X146050000Y-50800000D03*
%TO.P,A1,J2_8,D5*%
%TO.N,Aux_Input*%
X146050000Y-53340000D03*
%TO.P,A1,J2_9,D6*%
%TO.N,Main_Input*%
X146050000Y-55880000D03*
%TO.P,A1,J2_10,D7*%
%TO.N,Mode*%
X146050000Y-58420000D03*
%TO.P,A1,J2_11,D8*%
%TO.N,Net-(A1B-D8)*%
X146050000Y-60960000D03*
%TO.P,A1,J2_12,D9*%
%TO.N,unconnected-(A1B-D9-PadJ2_12)*%
X146050000Y-63500000D03*
%TO.P,A1,J2_13,D10*%
%TO.N,unconnected-(A1B-D10-PadJ2_13)*%
X146050000Y-66040000D03*
%TO.P,A1,J2_14,GND*%
%TO.N,GND*%
X146050000Y-68580000D03*
%TO.P,A1,J2_15,3V3*%
%TO.N,+3.3V*%
X146050000Y-71120000D03*
%TD*%
D12*
%TO.P,R10,1*%
%TO.N,Net-(A1B-D4)*%
X152400000Y-45720000D03*
D13*
%TO.P,R10,2*%
%TO.N,LED_YELLOW*%
X152400000Y-35560000D03*
%TD*%
D30*
%TO.N,Vin*%
X167640000Y-24130000D03*
X167640000Y-34290000D03*
%TO.N,LED_6V*%
X157480000Y-48260000D03*
%TO.N,Net-(R1-Pad2)*%
X198120000Y-38100000D03*
%TO.N,Power_Failure*%
X152400000Y-26401000D03*
X182880000Y-27940000D03*
%TO.N,+3.3V*%
X175260000Y-66040000D03*
%TO.N,Mode*%
X172720000Y-60960000D03*
%TO.N,GND*%
X175260000Y-45720000D03*
%TO.N,Aux_Input*%
X182880000Y-54610000D03*
%TO.N,Main_Input*%
X170180000Y-55880000D03*
%TO.N,LED_BLUE*%
X154940000Y-35560000D03*
%TO.N,LED_AUX*%
X193040000Y-43180000D03*
%TD*%
D31*
%TO.N,Net-(A1B-D4)*%
X152400000Y-45720000D02*
X146050000Y-45720000D01*
%TO.N,Net-(A1B-D3)*%
X146304000Y-43180000D02*
X148844000Y-40640000D01*
X146050000Y-43180000D02*
X146304000Y-43180000D01*
X148844000Y-40640000D02*
X157480000Y-40640000D01*
%TO.N,GND*%
X119340000Y-58420000D02*
X123190000Y-58420000D01*
%TO.N,+3.3V*%
X116840000Y-58420000D02*
X116840000Y-50800000D01*
X119380000Y-60960000D02*
X116840000Y-58420000D01*
X123190000Y-60960000D02*
X119380000Y-60960000D01*
%TO.N,Net-(A1B-D2)*%
X116840000Y-40640000D02*
X116840000Y-30480000D01*
X116840000Y-30480000D02*
X123190000Y-24130000D01*
X123190000Y-24130000D02*
X133390000Y-24130000D01*
%TO.N,Net-(A1B-D1)*%
X138430000Y-21590000D02*
X135890000Y-24130000D01*
X143510000Y-21590000D02*
X138430000Y-21590000D01*
%TO.N,Vin*%
X148590000Y-24130000D02*
X167640000Y-24130000D01*
X126514816Y-71120000D02*
X137160000Y-60474816D01*
X137160000Y-60474816D02*
X137160000Y-35560000D01*
X137160000Y-35560000D02*
X148590000Y-24130000D01*
X123190000Y-71120000D02*
X126514816Y-71120000D01*
%TO.N,GND*%
X143510000Y-53340000D02*
X146050000Y-50800000D01*
X143510000Y-66040000D02*
X143510000Y-53340000D01*
X146050000Y-68580000D02*
X143510000Y-66040000D01*
%TO.N,Vin*%
X205700000Y-36100000D02*
X203621000Y-34021000D01*
X167909000Y-34021000D02*
X167640000Y-34290000D01*
X205700000Y-38100000D02*
X205700000Y-36100000D01*
X203621000Y-34021000D02*
X167909000Y-34021000D01*
%TO.N,GND*%
X184567265Y-29210000D02*
X187107265Y-26670000D01*
X182451530Y-29210000D02*
X184567265Y-29210000D01*
X181621530Y-28380000D02*
X182451530Y-29210000D01*
X187107265Y-26670000D02*
X187960000Y-26670000D01*
X163830000Y-28380000D02*
X181621530Y-28380000D01*
%TO.N,+3.3V*%
X164230000Y-30480000D02*
X163830000Y-30880000D01*
X175260000Y-30480000D02*
X164230000Y-30480000D01*
%TO.N,LED_6V*%
X157600000Y-48380000D02*
X157480000Y-48260000D01*
X163830000Y-48380000D02*
X157600000Y-48380000D01*
%TO.N,Net-(D5-A)*%
X210860000Y-53380000D02*
X208280000Y-50800000D01*
X214630000Y-53380000D02*
X210860000Y-53380000D01*
%TO.N,GND*%
X203200000Y-63540000D02*
X214630000Y-63540000D01*
%TO.N,Net-(J2-Pin_1)*%
X214630000Y-66040000D02*
X203200000Y-66040000D01*
%TO.N,GND*%
X214630000Y-63540000D02*
X214630000Y-55880000D01*
X146212000Y-50638000D02*
X146050000Y-50800000D01*
X152353367Y-50638000D02*
X146212000Y-50638000D01*
X157111367Y-45880000D02*
X152353367Y-50638000D01*
X163830000Y-45880000D02*
X157111367Y-45880000D01*
%TO.N,Aux_Input*%
X155171000Y-51839000D02*
X153670000Y-53340000D01*
X161019000Y-51839000D02*
X155171000Y-51839000D01*
X162560000Y-53380000D02*
X161019000Y-51839000D01*
X163830000Y-53380000D02*
X162560000Y-53380000D01*
X153670000Y-53340000D02*
X146050000Y-53340000D01*
X172829000Y-53380000D02*
X163830000Y-53380000D01*
X174059000Y-54610000D02*
X172829000Y-53380000D01*
X182880000Y-54610000D02*
X174059000Y-54610000D01*
%TO.N,LED_GREEN*%
X157480000Y-30480000D02*
X159660000Y-30480000D01*
X162560000Y-33380000D02*
X163830000Y-33380000D01*
%TO.N,LED_MAIN*%
X165011000Y-37061000D02*
X171219000Y-37061000D01*
X163830000Y-35880000D02*
X165011000Y-37061000D01*
%TO.N,LED_AUX*%
X174842735Y-40640000D02*
X167640000Y-40640000D01*
%TO.N,LED_YELLOW*%
X163830000Y-40880000D02*
X162560000Y-40880000D01*
%TO.N,LED_AUX*%
X177382735Y-43180000D02*
X174842735Y-40640000D01*
%TO.N,Mode*%
X163830000Y-50880000D02*
X172640000Y-50880000D01*
%TO.N,LED_YELLOW*%
X153739000Y-36899000D02*
X152400000Y-35560000D01*
%TO.N,LED_MAIN*%
X171219000Y-37061000D02*
X172720000Y-35560000D01*
%TO.N,Main_Input*%
X170180000Y-55880000D02*
X163830000Y-55880000D01*
X163830000Y-55880000D02*
X157480000Y-55880000D01*
%TO.N,LED_YELLOW*%
X158579000Y-36899000D02*
X153739000Y-36899000D01*
%TO.N,LED_AUX*%
X193040000Y-43180000D02*
X177382735Y-43180000D01*
%TO.N,LED_BLUE*%
X159740000Y-35560000D02*
X162560000Y-38380000D01*
%TO.N,LED_GREEN*%
X159660000Y-30480000D02*
X162560000Y-33380000D01*
%TO.N,GND*%
X170180000Y-45720000D02*
X170020000Y-45880000D01*
%TO.N,LED_AUX*%
X164900000Y-43380000D02*
X163830000Y-43380000D01*
%TO.N,LED_YELLOW*%
X162560000Y-40880000D02*
X158579000Y-36899000D01*
%TO.N,LED_AUX*%
X167640000Y-40640000D02*
X164900000Y-43380000D01*
%TO.N,LED_BLUE*%
X162560000Y-38380000D02*
X163830000Y-38380000D01*
%TO.N,Mode*%
X172640000Y-50880000D02*
X172720000Y-50800000D01*
%TO.N,LED_BLUE*%
X154940000Y-35560000D02*
X159740000Y-35560000D01*
%TO.N,GND*%
X170020000Y-45880000D02*
X163830000Y-45880000D01*
%TO.N,Net-(J1-Pin_2)*%
X213360000Y-27940000D02*
X215900000Y-30480000D01*
X215900000Y-30480000D02*
X218440000Y-30480000D01*
X208280000Y-27940000D02*
X213360000Y-27940000D01*
%TO.N,Net-(R1-Pad2)*%
X198120000Y-38100000D02*
X177800000Y-38100000D01*
X177800000Y-38100000D02*
X175260000Y-35560000D01*
D32*
%TO.N,Vin*%
X218440000Y-35560000D02*
X218440000Y-40640000D01*
D31*
%TO.N,Net-(A1B-D8)*%
X149860000Y-60960000D02*
X152400000Y-58420000D01*
%TO.N,Main_Input*%
X146050000Y-55880000D02*
X157480000Y-55880000D01*
%TO.N,Net-(A1B-D8)*%
X146050000Y-60960000D02*
X149860000Y-60960000D01*
%TO.N,+3.3V*%
X146050000Y-71120000D02*
X152400000Y-71120000D01*
%TO.N,Power_Failure*%
X181341000Y-26401000D02*
X152400000Y-26401000D01*
X182880000Y-48260000D02*
X185420000Y-48260000D01*
X180340000Y-45720000D02*
X182880000Y-48260000D01*
X182880000Y-27940000D02*
X181341000Y-26401000D01*
D33*
%TO.N,Vin*%
X203715398Y-40640000D02*
X205700000Y-38655398D01*
X198120000Y-40640000D02*
X203715398Y-40640000D01*
X205700000Y-38655398D02*
X205700000Y-38100000D01*
D31*
%TO.N,+3.3V*%
X175260000Y-66040000D02*
X157480000Y-66040000D01*
X152400000Y-71120000D02*
X157480000Y-66040000D01*
%TO.N,Mode*%
X152400000Y-60960000D02*
X172720000Y-60960000D01*
%TO.N,GND*%
X190500000Y-58460000D02*
X195580000Y-63540000D01*
X188999000Y-52301000D02*
X193040000Y-48260000D01*
X193040000Y-48260000D02*
X190500000Y-48260000D01*
X170180000Y-43180000D02*
X170180000Y-45720000D01*
X187960000Y-45720000D02*
X185420000Y-45720000D01*
X195580000Y-63540000D02*
X203200000Y-63540000D01*
X176721000Y-52301000D02*
X188999000Y-52301000D01*
X190500000Y-58420000D02*
X190500000Y-53802000D01*
X190500000Y-58420000D02*
X190500000Y-58460000D01*
X190500000Y-48260000D02*
X187960000Y-45720000D01*
X175220000Y-50800000D02*
X176721000Y-52301000D01*
X190500000Y-53802000D02*
X188999000Y-52301000D01*
X175260000Y-45720000D02*
X170180000Y-45720000D01*
%TO.N,Net-(D7-A)*%
X190500000Y-66040000D02*
X193879000Y-69419000D01*
D33*
X200660000Y-71319456D02*
X200660000Y-71120000D01*
D31*
X193879000Y-69419000D02*
X198959000Y-69419000D01*
X198959000Y-69419000D02*
X200660000Y-71120000D01*
D33*
%TO.N,Vin*%
X213360000Y-35560000D02*
X218440000Y-35560000D01*
X210820000Y-38100000D02*
X213360000Y-35560000D01*
X205700000Y-38100000D02*
X210820000Y-38100000D01*
D31*
%TO.N,Net-(J5-Pin_1)*%
X208280000Y-45720000D02*
X218440000Y-45720000D01*
%TD*%
M02*
