%TF.GenerationSoftware,KiCad,Pcbnew,9.0.1*%
%TF.CreationDate,2025-04-03T23:22:05-05:00*%
%TF.ProjectId,sump-pump-mon,73756d70-2d70-4756-9d70-2d6d6f6e2e6b,rev?*%
%TF.SameCoordinates,Original*%
%TF.FileFunction,Soldermask,Bot*%
%TF.FilePolarity,Negative*%
%FSLAX46Y46*%
G04 Gerber Fmt 4.6, Leading zero omitted, Abs format (unit mm)*
G04 Created by KiCad (PCBNEW 9.0.1) date 2025-04-03 23:22:05*
%MOMM*%
%LPD*%
G01*
G04 APERTURE LIST*
G04 Aperture macros list*
%AMRoundRect*
0 Rectangle with rounded corners*
0 $1 Rounding radius*
0 $2 $3 $4 $5 $6 $7 $8 $9 X,Y pos of 4 corners*
0 Add a 4 corners polygon primitive as box body*
4,1,4,$2,$3,$4,$5,$6,$7,$8,$9,$2,$3,0*
0 Add four circle primitives for the rounded corners*
1,1,$1+$1,$2,$3*
1,1,$1+$1,$4,$5*
1,1,$1+$1,$6,$7*
1,1,$1+$1,$8,$9*
0 Add four rect primitives between the rounded corners*
20,1,$1+$1,$2,$3,$4,$5,0*
20,1,$1+$1,$4,$5,$6,$7,0*
20,1,$1+$1,$6,$7,$8,$9,0*
20,1,$1+$1,$8,$9,$2,$3,0*%
G04 Aperture macros list end*
%ADD10C,3.000000*%
%ADD11RoundRect,0.288462X1.211538X-1.211538X1.211538X1.211538X-1.211538X1.211538X-1.211538X-1.211538X0*%
%ADD12C,1.600000*%
%ADD13O,1.600000X1.600000*%
%ADD14RoundRect,0.250000X0.600000X0.750000X-0.600000X0.750000X-0.600000X-0.750000X0.600000X-0.750000X0*%
%ADD15O,1.700000X2.000000*%
%ADD16RoundRect,0.250000X0.725000X-0.600000X0.725000X0.600000X-0.725000X0.600000X-0.725000X-0.600000X0*%
%ADD17O,1.950000X1.700000*%
%ADD18C,3.700000*%
%ADD19RoundRect,0.250000X0.750000X-0.600000X0.750000X0.600000X-0.750000X0.600000X-0.750000X-0.600000X0*%
%ADD20O,2.000000X1.700000*%
%ADD21RoundRect,0.250000X0.550000X0.550000X-0.550000X0.550000X-0.550000X-0.550000X0.550000X-0.550000X0*%
%ADD22RoundRect,0.250000X-0.550000X0.550000X-0.550000X-0.550000X0.550000X-0.550000X0.550000X0.550000X0*%
%ADD23R,1.600000X1.600000*%
%ADD24R,2.400000X2.400000*%
%ADD25O,2.400000X2.400000*%
%ADD26RoundRect,0.250000X-0.600000X-0.750000X0.600000X-0.750000X0.600000X0.750000X-0.600000X0.750000X0*%
%ADD27R,1.905000X2.000000*%
%ADD28O,1.905000X2.000000*%
%ADD29C,3.200000*%
%ADD30RoundRect,0.102000X-0.965000X-0.965000X0.965000X-0.965000X0.965000X0.965000X-0.965000X0.965000X0*%
%ADD31C,2.134000*%
G04 APERTURE END LIST*
D10*
%TO.C,J5*%
X218440000Y-40640000D03*
D11*
X218440000Y-45720000D03*
%TD*%
D10*
%TO.C,J1*%
X218440000Y-30480000D03*
D11*
X218440000Y-35560000D03*
%TD*%
D12*
%TO.C,R14*%
X116840000Y-50800000D03*
D13*
X116840000Y-40640000D03*
%TD*%
D12*
%TO.C,R13*%
X153670000Y-21590000D03*
D13*
X143510000Y-21590000D03*
%TD*%
D14*
%TO.C,J6*%
X135890000Y-24130000D03*
D15*
X133390000Y-24130000D03*
%TD*%
D16*
%TO.C,J4*%
X163830000Y-55880000D03*
D17*
X163830000Y-53380000D03*
X163830000Y-50880000D03*
X163830000Y-48380000D03*
X163830000Y-45880000D03*
X163830000Y-43380000D03*
X163830000Y-40880000D03*
X163830000Y-38380000D03*
X163830000Y-35880000D03*
X163830000Y-33380000D03*
X163830000Y-30880000D03*
X163830000Y-28380000D03*
%TD*%
D18*
%TO.C,H1*%
X218440000Y-22860000D03*
%TD*%
%TO.C,H2*%
X218440000Y-73660000D03*
%TD*%
%TO.C,H3*%
X116386985Y-22860000D03*
%TD*%
%TO.C,H4*%
X116386985Y-73660000D03*
%TD*%
D12*
%TO.C,R8*%
X157480000Y-53340000D03*
D13*
X157480000Y-43180000D03*
%TD*%
D19*
%TO.C,J3*%
X214630000Y-55880000D03*
D20*
X214630000Y-53380000D03*
%TD*%
D19*
%TO.C,J2*%
X214630000Y-66040000D03*
D20*
X214630000Y-63540000D03*
%TD*%
D12*
%TO.C,U3*%
X187960000Y-31750000D03*
X187960000Y-29210000D03*
X187960000Y-26670000D03*
X195580000Y-26670000D03*
X195580000Y-29210000D03*
D21*
X195580000Y-31750000D03*
%TD*%
D13*
%TO.C,R1*%
X198120000Y-27940000D03*
D12*
X208280000Y-27940000D03*
%TD*%
D22*
%TO.C,U2*%
X175260000Y-35560000D03*
D12*
X172720000Y-35560000D03*
X170180000Y-35560000D03*
X170180000Y-43180000D03*
X172720000Y-43180000D03*
X175260000Y-43180000D03*
%TD*%
D23*
%TO.C,C2*%
X195580000Y-66040000D03*
D12*
X195580000Y-63540000D03*
%TD*%
%TO.C,R2*%
X208280000Y-45720000D03*
D13*
X198120000Y-45720000D03*
%TD*%
D12*
%TO.C,R7*%
X180340000Y-35560000D03*
D13*
X180340000Y-45720000D03*
%TD*%
D21*
%TO.C,U4*%
X193040000Y-50800000D03*
D12*
X193040000Y-48260000D03*
X193040000Y-45720000D03*
X185420000Y-45720000D03*
X185420000Y-48260000D03*
X185420000Y-50800000D03*
%TD*%
D24*
%TO.C,D8*%
X190500000Y-58420000D03*
D25*
X180340000Y-58420000D03*
%TD*%
D23*
%TO.C,C1*%
X203200000Y-66040000D03*
D12*
X203200000Y-63540000D03*
%TD*%
%TO.C,R6*%
X175260000Y-30480000D03*
D13*
X185420000Y-30480000D03*
%TD*%
D26*
%TO.C,SW3*%
X172720000Y-50800000D03*
D15*
X175220000Y-50800000D03*
%TD*%
D12*
%TO.C,R4*%
X198120000Y-40640000D03*
D13*
X187960000Y-40640000D03*
%TD*%
D23*
%TO.C,C3*%
X116840000Y-58420000D03*
D12*
X119340000Y-58420000D03*
%TD*%
D26*
%TO.C,SW4*%
X203200000Y-38100000D03*
D15*
X205700000Y-38100000D03*
%TD*%
D27*
%TO.C,U1*%
X203200000Y-71120000D03*
D28*
X200660000Y-71120000D03*
X198120000Y-71120000D03*
%TD*%
D12*
%TO.C,R11*%
X152400000Y-58420000D03*
D13*
X152400000Y-48260000D03*
%TD*%
D24*
%TO.C,D7*%
X180340000Y-66040000D03*
D25*
X190500000Y-66040000D03*
%TD*%
D12*
%TO.C,R9*%
X157480000Y-40640000D03*
D13*
X157480000Y-30480000D03*
%TD*%
D12*
%TO.C,R5*%
X157480000Y-66040000D03*
D13*
X157480000Y-55880000D03*
%TD*%
D12*
%TO.C,R12*%
X152400000Y-71120000D03*
D13*
X152400000Y-60960000D03*
%TD*%
D24*
%TO.C,D6*%
X198120000Y-58420000D03*
D25*
X208280000Y-58420000D03*
%TD*%
D24*
%TO.C,D5*%
X198120000Y-50800000D03*
D25*
X208280000Y-50800000D03*
%TD*%
D29*
%TO.C,A1*%
X124460000Y-31750000D03*
X124460000Y-74930000D03*
X144780000Y-31750000D03*
X144780000Y-74930000D03*
D30*
X123190000Y-35560000D03*
D31*
X123190000Y-38100000D03*
X123190000Y-40640000D03*
X123190000Y-43180000D03*
X123190000Y-45720000D03*
X123190000Y-48260000D03*
X123190000Y-50800000D03*
X123190000Y-53340000D03*
X123190000Y-55880000D03*
X123190000Y-58420000D03*
X123190000Y-60960000D03*
X123190000Y-63500000D03*
X123190000Y-66040000D03*
X123190000Y-68580000D03*
X123190000Y-71120000D03*
D30*
X146050000Y-35560000D03*
D31*
X146050000Y-38100000D03*
X146050000Y-40640000D03*
X146050000Y-43180000D03*
X146050000Y-45720000D03*
X146050000Y-48260000D03*
X146050000Y-50800000D03*
X146050000Y-53340000D03*
X146050000Y-55880000D03*
X146050000Y-58420000D03*
X146050000Y-60960000D03*
X146050000Y-63500000D03*
X146050000Y-66040000D03*
X146050000Y-68580000D03*
X146050000Y-71120000D03*
%TD*%
D12*
%TO.C,R10*%
X152400000Y-45720000D03*
D13*
X152400000Y-35560000D03*
%TD*%
M02*
