%TF.GenerationSoftware,KiCad,Pcbnew,9.0.1*%
%TF.CreationDate,2025-04-08T23:22:12-05:00*%
%TF.ProjectId,sump-pump-mon,73756d70-2d70-4756-9d70-2d6d6f6e2e6b,rev?*%
%TF.SameCoordinates,Original*%
%TF.FileFunction,Soldermask,Bot*%
%TF.FilePolarity,Negative*%
%FSLAX46Y46*%
G04 Gerber Fmt 4.6, Leading zero omitted, Abs format (unit mm)*
G04 Created by KiCad (PCBNEW 9.0.1) date 2025-04-08 23:22:12*
%MOMM*%
%LPD*%
G01*
G04 APERTURE LIST*
G04 Aperture macros list*
%AMRoundRect*
0 Rectangle with rounded corners*
0 $1 Rounding radius*
0 $2 $3 $4 $5 $6 $7 $8 $9 X,Y pos of 4 corners*
0 Add a 4 corners polygon primitive as box body*
4,1,4,$2,$3,$4,$5,$6,$7,$8,$9,$2,$3,0*
0 Add four circle primitives for the rounded corners*
1,1,$1+$1,$2,$3*
1,1,$1+$1,$4,$5*
1,1,$1+$1,$6,$7*
1,1,$1+$1,$8,$9*
0 Add four rect primitives between the rounded corners*
20,1,$1+$1,$2,$3,$4,$5,0*
20,1,$1+$1,$4,$5,$6,$7,0*
20,1,$1+$1,$6,$7,$8,$9,0*
20,1,$1+$1,$8,$9,$2,$3,0*%
G04 Aperture macros list end*
%ADD10O,1.701600X1.701600*%
%ADD11C,1.701600*%
%ADD12RoundRect,0.175400X0.650400X-0.175400X0.650400X0.175400X-0.650400X0.175400X-0.650400X-0.175400X0*%
%ADD13RoundRect,0.271166X0.679634X-0.379634X0.679634X0.379634X-0.679634X0.379634X-0.679634X-0.379634X0*%
%ADD14O,1.801600X2.051600*%
%ADD15RoundRect,0.264941X-0.635859X-0.760859X0.635859X-0.760859X0.635859X0.760859X-0.635859X0.760859X0*%
%ADD16C,3.301600*%
%ADD17RoundRect,0.102000X-0.965000X-0.965000X0.965000X-0.965000X0.965000X0.965000X-0.965000X0.965000X0*%
%ADD18C,2.134000*%
%ADD19RoundRect,0.298231X1.252569X-1.252569X1.252569X1.252569X-1.252569X1.252569X-1.252569X-1.252569X0*%
%ADD20C,3.101600*%
%ADD21RoundRect,0.265875X-0.584925X0.584925X-0.584925X-0.584925X0.584925X-0.584925X0.584925X0.584925X0*%
%ADD22RoundRect,0.050800X0.800000X0.800000X-0.800000X0.800000X-0.800000X-0.800000X0.800000X-0.800000X0*%
%ADD23RoundRect,0.264941X-0.635859X-0.785859X0.635859X-0.785859X0.635859X0.785859X-0.635859X0.785859X0*%
%ADD24O,1.801600X2.101600*%
%ADD25C,3.801600*%
%ADD26RoundRect,0.265875X0.584925X0.584925X-0.584925X0.584925X-0.584925X-0.584925X0.584925X-0.584925X0*%
%ADD27RoundRect,0.050800X-1.200000X1.200000X-1.200000X-1.200000X1.200000X-1.200000X1.200000X1.200000X0*%
%ADD28O,2.501600X2.501600*%
%ADD29RoundRect,0.050800X0.800000X-0.800000X0.800000X0.800000X-0.800000X0.800000X-0.800000X-0.800000X0*%
%ADD30RoundRect,0.264941X-0.785859X0.635859X-0.785859X-0.635859X0.785859X-0.635859X0.785859X0.635859X0*%
%ADD31O,2.101600X1.801600*%
%ADD32RoundRect,0.050800X0.952500X1.000000X-0.952500X1.000000X-0.952500X-1.000000X0.952500X-1.000000X0*%
%ADD33O,2.006600X2.101600*%
%ADD34RoundRect,0.264941X0.760859X-0.635859X0.760859X0.635859X-0.760859X0.635859X-0.760859X-0.635859X0*%
%ADD35O,2.051600X1.801600*%
%ADD36RoundRect,0.050800X1.200000X1.200000X-1.200000X1.200000X-1.200000X-1.200000X1.200000X-1.200000X0*%
%ADD37RoundRect,0.050800X-1.200000X-1.200000X1.200000X-1.200000X1.200000X1.200000X-1.200000X1.200000X0*%
G04 APERTURE END LIST*
D10*
%TO.C,R8*%
X166370000Y-74930000D03*
D11*
X156210000Y-74930000D03*
%TD*%
D12*
%TO.C,J8*%
X123920000Y-40870000D03*
X123920000Y-39870000D03*
X123920000Y-38870000D03*
X123920000Y-37870000D03*
D13*
X120045000Y-42170000D03*
X120045000Y-36570000D03*
%TD*%
D14*
%TO.C,J6*%
X140850000Y-24130000D03*
X138350000Y-24130000D03*
X135850000Y-24130000D03*
D15*
X133350000Y-24130000D03*
%TD*%
D16*
%TO.C,A1*%
X130810000Y-31750000D03*
X130810000Y-74930000D03*
X151130000Y-31750000D03*
X151130000Y-74930000D03*
D17*
X129540000Y-35560000D03*
D18*
X129540000Y-38100000D03*
X129540000Y-40640000D03*
X129540000Y-43180000D03*
X129540000Y-45720000D03*
X129540000Y-48260000D03*
X129540000Y-50800000D03*
X129540000Y-53340000D03*
X129540000Y-55880000D03*
X129540000Y-58420000D03*
X129540000Y-60960000D03*
X129540000Y-63500000D03*
X129540000Y-66040000D03*
X129540000Y-68580000D03*
X129540000Y-71120000D03*
D17*
X152400000Y-35560000D03*
D18*
X152400000Y-38100000D03*
X152400000Y-40640000D03*
X152400000Y-43180000D03*
X152400000Y-45720000D03*
X152400000Y-48260000D03*
X152400000Y-50800000D03*
X152400000Y-53340000D03*
X152400000Y-55880000D03*
X152400000Y-58420000D03*
X152400000Y-60960000D03*
X152400000Y-63500000D03*
X152400000Y-66040000D03*
X152400000Y-68580000D03*
X152400000Y-71120000D03*
%TD*%
D19*
%TO.C,J5*%
X208280000Y-48134110D03*
D20*
X208280000Y-43054110D03*
%TD*%
D21*
%TO.C,U2*%
X175260000Y-50800000D03*
D11*
X172720000Y-50800000D03*
X170180000Y-50800000D03*
X170180000Y-58420000D03*
X172720000Y-58420000D03*
X175260000Y-58420000D03*
%TD*%
D22*
%TO.C,C2*%
X172720000Y-62230000D03*
D11*
X170220000Y-62230000D03*
%TD*%
D23*
%TO.C,J2*%
X205740000Y-65405000D03*
D24*
X208240000Y-65405000D03*
%TD*%
D25*
%TO.C,H2*%
X208280000Y-73660000D03*
%TD*%
D11*
%TO.C,R2*%
X198120000Y-48260000D03*
D10*
X187960000Y-48260000D03*
%TD*%
D19*
%TO.C,J1*%
X208280000Y-37974110D03*
D20*
X208280000Y-32894110D03*
%TD*%
D26*
%TO.C,U4*%
X177800000Y-29210000D03*
D11*
X177800000Y-26670000D03*
X177800000Y-24130000D03*
X170180000Y-24130000D03*
X170180000Y-26670000D03*
X170180000Y-29210000D03*
%TD*%
D25*
%TO.C,H1*%
X208280000Y-25400000D03*
%TD*%
%TO.C,H3*%
X123190000Y-25400000D03*
%TD*%
D23*
%TO.C,J3*%
X205740000Y-55880000D03*
D24*
X208240000Y-55880000D03*
%TD*%
D27*
%TO.C,D8*%
X181610000Y-38100000D03*
D28*
X181610000Y-48260000D03*
%TD*%
D29*
%TO.C,C1*%
X194310000Y-59690000D03*
D11*
X194310000Y-57190000D03*
%TD*%
D30*
%TO.C,SW3*%
X160020000Y-68580000D03*
D31*
X160020000Y-71080000D03*
%TD*%
D11*
%TO.C,R4*%
X198120000Y-44324110D03*
D10*
X187960000Y-44324110D03*
%TD*%
D29*
%TO.C,C3*%
X123190000Y-60960000D03*
D11*
X123190000Y-58460000D03*
%TD*%
D23*
%TO.C,SW4*%
X194601821Y-37974110D03*
D24*
X197101821Y-37974110D03*
%TD*%
D32*
%TO.C,U1*%
X186690000Y-71755000D03*
D33*
X184150000Y-71755000D03*
X181610000Y-71755000D03*
%TD*%
D11*
%TO.C,R13*%
X160020000Y-25400000D03*
D10*
X149860000Y-25400000D03*
%TD*%
D34*
%TO.C,J4*%
X163830000Y-60960000D03*
D35*
X163830000Y-58460000D03*
X163830000Y-55960000D03*
X163830000Y-53460000D03*
X163830000Y-50960000D03*
X163830000Y-48460000D03*
X163830000Y-45960000D03*
X163830000Y-43460000D03*
X163830000Y-40960000D03*
X163830000Y-38460000D03*
X163830000Y-35960000D03*
X163830000Y-33460000D03*
%TD*%
D21*
%TO.C,U3*%
X175260000Y-35560000D03*
D11*
X172720000Y-35560000D03*
X170180000Y-35560000D03*
X170180000Y-43180000D03*
X172720000Y-43180000D03*
X175260000Y-43180000D03*
%TD*%
%TO.C,R1*%
X189230000Y-34290000D03*
D10*
X179070000Y-34290000D03*
%TD*%
D36*
%TO.C,D6*%
X189230000Y-57150000D03*
D28*
X179070000Y-57150000D03*
%TD*%
D25*
%TO.C,H4*%
X123190000Y-73660000D03*
%TD*%
D37*
%TO.C,D5*%
X189521821Y-52070000D03*
D28*
X199681821Y-52070000D03*
%TD*%
D11*
%TO.C,R7*%
X147320000Y-45720000D03*
D10*
X147320000Y-35560000D03*
%TD*%
D11*
%TO.C,R14*%
X138430000Y-48260000D03*
D10*
X138430000Y-38100000D03*
%TD*%
D11*
%TO.C,R6*%
X134620000Y-43180000D03*
D10*
X134620000Y-53340000D03*
%TD*%
D11*
%TO.C,R10*%
X143510000Y-44450000D03*
D10*
X143510000Y-34290000D03*
%TD*%
D11*
%TO.C,R11*%
X157480000Y-60960000D03*
D10*
X157480000Y-50800000D03*
%TD*%
D27*
%TO.C,D7*%
X182880000Y-52070000D03*
D28*
X182880000Y-62230000D03*
%TD*%
D11*
%TO.C,R9*%
X157480000Y-43180000D03*
D10*
X157480000Y-33020000D03*
%TD*%
D11*
%TO.C,R5*%
X141308826Y-66040000D03*
D10*
X141308826Y-55880000D03*
%TD*%
D11*
%TO.C,R12*%
X147658826Y-68580000D03*
D10*
X147658826Y-58420000D03*
%TD*%
M02*
