%TF.GenerationSoftware,KiCad,Pcbnew,9.0.1*%
%TF.CreationDate,2025-04-08T07:51:20-05:00*%
%TF.ProjectId,sump-pump-mon,73756d70-2d70-4756-9d70-2d6d6f6e2e6b,rev?*%
%TF.SameCoordinates,Original*%
%TF.FileFunction,Legend,Top*%
%TF.FilePolarity,Positive*%
%FSLAX46Y46*%
G04 Gerber Fmt 4.6, Leading zero omitted, Abs format (unit mm)*
G04 Created by KiCad (PCBNEW 9.0.1) date 2025-04-08 07:51:20*
%MOMM*%
%LPD*%
G01*
G04 APERTURE LIST*
%ADD10C,0.100000*%
%ADD11C,0.150000*%
%ADD12C,0.120000*%
%ADD13C,0.127000*%
%ADD14C,0.200000*%
G04 APERTURE END LIST*
D10*
X205440646Y-60594419D02*
X205678741Y-61594419D01*
X205678741Y-61594419D02*
X205869217Y-60880133D01*
X205869217Y-60880133D02*
X206059693Y-61594419D01*
X206059693Y-61594419D02*
X206297789Y-60594419D01*
X206631122Y-61308704D02*
X207107312Y-61308704D01*
X206535884Y-61594419D02*
X206869217Y-60594419D01*
X206869217Y-60594419D02*
X207202550Y-61594419D01*
X208012074Y-61594419D02*
X207535884Y-61594419D01*
X207535884Y-61594419D02*
X207535884Y-60594419D01*
X208821598Y-61594419D02*
X208345408Y-61594419D01*
X208345408Y-61594419D02*
X208345408Y-60594419D01*
X201802419Y-35891115D02*
X200802419Y-35891115D01*
X200802419Y-35891115D02*
X201516704Y-35557782D01*
X201516704Y-35557782D02*
X200802419Y-35224449D01*
X200802419Y-35224449D02*
X201802419Y-35224449D01*
X201516704Y-34795877D02*
X201516704Y-34319687D01*
X201802419Y-34891115D02*
X200802419Y-34557782D01*
X200802419Y-34557782D02*
X201802419Y-34224449D01*
X201802419Y-33891115D02*
X200802419Y-33891115D01*
X201802419Y-33414925D02*
X200802419Y-33414925D01*
X200802419Y-33414925D02*
X201802419Y-32843497D01*
X201802419Y-32843497D02*
X200802419Y-32843497D01*
X204723466Y-52782115D02*
X204723466Y-52020211D01*
X205104419Y-52401163D02*
X204342514Y-52401163D01*
X210008115Y-52578533D02*
X209246211Y-52578533D01*
X183136265Y-23614856D02*
X183279122Y-23662475D01*
X183279122Y-23662475D02*
X183517217Y-23662475D01*
X183517217Y-23662475D02*
X183612455Y-23614856D01*
X183612455Y-23614856D02*
X183660074Y-23567236D01*
X183660074Y-23567236D02*
X183707693Y-23471998D01*
X183707693Y-23471998D02*
X183707693Y-23376760D01*
X183707693Y-23376760D02*
X183660074Y-23281522D01*
X183660074Y-23281522D02*
X183612455Y-23233903D01*
X183612455Y-23233903D02*
X183517217Y-23186284D01*
X183517217Y-23186284D02*
X183326741Y-23138665D01*
X183326741Y-23138665D02*
X183231503Y-23091046D01*
X183231503Y-23091046D02*
X183183884Y-23043427D01*
X183183884Y-23043427D02*
X183136265Y-22948189D01*
X183136265Y-22948189D02*
X183136265Y-22852951D01*
X183136265Y-22852951D02*
X183183884Y-22757713D01*
X183183884Y-22757713D02*
X183231503Y-22710094D01*
X183231503Y-22710094D02*
X183326741Y-22662475D01*
X183326741Y-22662475D02*
X183564836Y-22662475D01*
X183564836Y-22662475D02*
X183707693Y-22710094D01*
X184564836Y-22995808D02*
X184564836Y-23662475D01*
X184136265Y-22995808D02*
X184136265Y-23519617D01*
X184136265Y-23519617D02*
X184183884Y-23614856D01*
X184183884Y-23614856D02*
X184279122Y-23662475D01*
X184279122Y-23662475D02*
X184421979Y-23662475D01*
X184421979Y-23662475D02*
X184517217Y-23614856D01*
X184517217Y-23614856D02*
X184564836Y-23567236D01*
X185041027Y-23662475D02*
X185041027Y-22995808D01*
X185041027Y-23091046D02*
X185088646Y-23043427D01*
X185088646Y-23043427D02*
X185183884Y-22995808D01*
X185183884Y-22995808D02*
X185326741Y-22995808D01*
X185326741Y-22995808D02*
X185421979Y-23043427D01*
X185421979Y-23043427D02*
X185469598Y-23138665D01*
X185469598Y-23138665D02*
X185469598Y-23662475D01*
X185469598Y-23138665D02*
X185517217Y-23043427D01*
X185517217Y-23043427D02*
X185612455Y-22995808D01*
X185612455Y-22995808D02*
X185755312Y-22995808D01*
X185755312Y-22995808D02*
X185850551Y-23043427D01*
X185850551Y-23043427D02*
X185898170Y-23138665D01*
X185898170Y-23138665D02*
X185898170Y-23662475D01*
X186374360Y-22995808D02*
X186374360Y-23995808D01*
X186374360Y-23043427D02*
X186469598Y-22995808D01*
X186469598Y-22995808D02*
X186660074Y-22995808D01*
X186660074Y-22995808D02*
X186755312Y-23043427D01*
X186755312Y-23043427D02*
X186802931Y-23091046D01*
X186802931Y-23091046D02*
X186850550Y-23186284D01*
X186850550Y-23186284D02*
X186850550Y-23471998D01*
X186850550Y-23471998D02*
X186802931Y-23567236D01*
X186802931Y-23567236D02*
X186755312Y-23614856D01*
X186755312Y-23614856D02*
X186660074Y-23662475D01*
X186660074Y-23662475D02*
X186469598Y-23662475D01*
X186469598Y-23662475D02*
X186374360Y-23614856D01*
X188041027Y-23662475D02*
X188041027Y-22662475D01*
X188041027Y-22662475D02*
X188421979Y-22662475D01*
X188421979Y-22662475D02*
X188517217Y-22710094D01*
X188517217Y-22710094D02*
X188564836Y-22757713D01*
X188564836Y-22757713D02*
X188612455Y-22852951D01*
X188612455Y-22852951D02*
X188612455Y-22995808D01*
X188612455Y-22995808D02*
X188564836Y-23091046D01*
X188564836Y-23091046D02*
X188517217Y-23138665D01*
X188517217Y-23138665D02*
X188421979Y-23186284D01*
X188421979Y-23186284D02*
X188041027Y-23186284D01*
X189469598Y-22995808D02*
X189469598Y-23662475D01*
X189041027Y-22995808D02*
X189041027Y-23519617D01*
X189041027Y-23519617D02*
X189088646Y-23614856D01*
X189088646Y-23614856D02*
X189183884Y-23662475D01*
X189183884Y-23662475D02*
X189326741Y-23662475D01*
X189326741Y-23662475D02*
X189421979Y-23614856D01*
X189421979Y-23614856D02*
X189469598Y-23567236D01*
X189945789Y-23662475D02*
X189945789Y-22995808D01*
X189945789Y-23091046D02*
X189993408Y-23043427D01*
X189993408Y-23043427D02*
X190088646Y-22995808D01*
X190088646Y-22995808D02*
X190231503Y-22995808D01*
X190231503Y-22995808D02*
X190326741Y-23043427D01*
X190326741Y-23043427D02*
X190374360Y-23138665D01*
X190374360Y-23138665D02*
X190374360Y-23662475D01*
X190374360Y-23138665D02*
X190421979Y-23043427D01*
X190421979Y-23043427D02*
X190517217Y-22995808D01*
X190517217Y-22995808D02*
X190660074Y-22995808D01*
X190660074Y-22995808D02*
X190755313Y-23043427D01*
X190755313Y-23043427D02*
X190802932Y-23138665D01*
X190802932Y-23138665D02*
X190802932Y-23662475D01*
X191279122Y-22995808D02*
X191279122Y-23995808D01*
X191279122Y-23043427D02*
X191374360Y-22995808D01*
X191374360Y-22995808D02*
X191564836Y-22995808D01*
X191564836Y-22995808D02*
X191660074Y-23043427D01*
X191660074Y-23043427D02*
X191707693Y-23091046D01*
X191707693Y-23091046D02*
X191755312Y-23186284D01*
X191755312Y-23186284D02*
X191755312Y-23471998D01*
X191755312Y-23471998D02*
X191707693Y-23567236D01*
X191707693Y-23567236D02*
X191660074Y-23614856D01*
X191660074Y-23614856D02*
X191564836Y-23662475D01*
X191564836Y-23662475D02*
X191374360Y-23662475D01*
X191374360Y-23662475D02*
X191279122Y-23614856D01*
X192945789Y-23662475D02*
X192945789Y-22662475D01*
X192945789Y-22662475D02*
X193279122Y-23376760D01*
X193279122Y-23376760D02*
X193612455Y-22662475D01*
X193612455Y-22662475D02*
X193612455Y-23662475D01*
X194231503Y-23662475D02*
X194136265Y-23614856D01*
X194136265Y-23614856D02*
X194088646Y-23567236D01*
X194088646Y-23567236D02*
X194041027Y-23471998D01*
X194041027Y-23471998D02*
X194041027Y-23186284D01*
X194041027Y-23186284D02*
X194088646Y-23091046D01*
X194088646Y-23091046D02*
X194136265Y-23043427D01*
X194136265Y-23043427D02*
X194231503Y-22995808D01*
X194231503Y-22995808D02*
X194374360Y-22995808D01*
X194374360Y-22995808D02*
X194469598Y-23043427D01*
X194469598Y-23043427D02*
X194517217Y-23091046D01*
X194517217Y-23091046D02*
X194564836Y-23186284D01*
X194564836Y-23186284D02*
X194564836Y-23471998D01*
X194564836Y-23471998D02*
X194517217Y-23567236D01*
X194517217Y-23567236D02*
X194469598Y-23614856D01*
X194469598Y-23614856D02*
X194374360Y-23662475D01*
X194374360Y-23662475D02*
X194231503Y-23662475D01*
X194993408Y-22995808D02*
X194993408Y-23662475D01*
X194993408Y-23091046D02*
X195041027Y-23043427D01*
X195041027Y-23043427D02*
X195136265Y-22995808D01*
X195136265Y-22995808D02*
X195279122Y-22995808D01*
X195279122Y-22995808D02*
X195374360Y-23043427D01*
X195374360Y-23043427D02*
X195421979Y-23138665D01*
X195421979Y-23138665D02*
X195421979Y-23662475D01*
X195898170Y-23662475D02*
X195898170Y-22995808D01*
X195898170Y-22662475D02*
X195850551Y-22710094D01*
X195850551Y-22710094D02*
X195898170Y-22757713D01*
X195898170Y-22757713D02*
X195945789Y-22710094D01*
X195945789Y-22710094D02*
X195898170Y-22662475D01*
X195898170Y-22662475D02*
X195898170Y-22757713D01*
X196231503Y-22995808D02*
X196612455Y-22995808D01*
X196374360Y-22662475D02*
X196374360Y-23519617D01*
X196374360Y-23519617D02*
X196421979Y-23614856D01*
X196421979Y-23614856D02*
X196517217Y-23662475D01*
X196517217Y-23662475D02*
X196612455Y-23662475D01*
X197088646Y-23662475D02*
X196993408Y-23614856D01*
X196993408Y-23614856D02*
X196945789Y-23567236D01*
X196945789Y-23567236D02*
X196898170Y-23471998D01*
X196898170Y-23471998D02*
X196898170Y-23186284D01*
X196898170Y-23186284D02*
X196945789Y-23091046D01*
X196945789Y-23091046D02*
X196993408Y-23043427D01*
X196993408Y-23043427D02*
X197088646Y-22995808D01*
X197088646Y-22995808D02*
X197231503Y-22995808D01*
X197231503Y-22995808D02*
X197326741Y-23043427D01*
X197326741Y-23043427D02*
X197374360Y-23091046D01*
X197374360Y-23091046D02*
X197421979Y-23186284D01*
X197421979Y-23186284D02*
X197421979Y-23471998D01*
X197421979Y-23471998D02*
X197374360Y-23567236D01*
X197374360Y-23567236D02*
X197326741Y-23614856D01*
X197326741Y-23614856D02*
X197231503Y-23662475D01*
X197231503Y-23662475D02*
X197088646Y-23662475D01*
X197850551Y-23662475D02*
X197850551Y-22995808D01*
X197850551Y-23186284D02*
X197898170Y-23091046D01*
X197898170Y-23091046D02*
X197945789Y-23043427D01*
X197945789Y-23043427D02*
X198041027Y-22995808D01*
X198041027Y-22995808D02*
X198136265Y-22995808D01*
X199088647Y-22662475D02*
X199421980Y-23662475D01*
X199421980Y-23662475D02*
X199755313Y-22662475D01*
X200612456Y-23662475D02*
X200041028Y-23662475D01*
X200326742Y-23662475D02*
X200326742Y-22662475D01*
X200326742Y-22662475D02*
X200231504Y-22805332D01*
X200231504Y-22805332D02*
X200136266Y-22900570D01*
X200136266Y-22900570D02*
X200041028Y-22948189D01*
X201041028Y-23567236D02*
X201088647Y-23614856D01*
X201088647Y-23614856D02*
X201041028Y-23662475D01*
X201041028Y-23662475D02*
X200993409Y-23614856D01*
X200993409Y-23614856D02*
X201041028Y-23567236D01*
X201041028Y-23567236D02*
X201041028Y-23662475D01*
X201707694Y-22662475D02*
X201802932Y-22662475D01*
X201802932Y-22662475D02*
X201898170Y-22710094D01*
X201898170Y-22710094D02*
X201945789Y-22757713D01*
X201945789Y-22757713D02*
X201993408Y-22852951D01*
X201993408Y-22852951D02*
X202041027Y-23043427D01*
X202041027Y-23043427D02*
X202041027Y-23281522D01*
X202041027Y-23281522D02*
X201993408Y-23471998D01*
X201993408Y-23471998D02*
X201945789Y-23567236D01*
X201945789Y-23567236D02*
X201898170Y-23614856D01*
X201898170Y-23614856D02*
X201802932Y-23662475D01*
X201802932Y-23662475D02*
X201707694Y-23662475D01*
X201707694Y-23662475D02*
X201612456Y-23614856D01*
X201612456Y-23614856D02*
X201564837Y-23567236D01*
X201564837Y-23567236D02*
X201517218Y-23471998D01*
X201517218Y-23471998D02*
X201469599Y-23281522D01*
X201469599Y-23281522D02*
X201469599Y-23043427D01*
X201469599Y-23043427D02*
X201517218Y-22852951D01*
X201517218Y-22852951D02*
X201564837Y-22757713D01*
X201564837Y-22757713D02*
X201612456Y-22710094D01*
X201612456Y-22710094D02*
X201707694Y-22662475D01*
X183041027Y-24272419D02*
X183612455Y-24272419D01*
X183326741Y-25272419D02*
X183326741Y-24272419D01*
X184231503Y-24272419D02*
X184231503Y-24986704D01*
X184231503Y-24986704D02*
X184183884Y-25129561D01*
X184183884Y-25129561D02*
X184088646Y-25224800D01*
X184088646Y-25224800D02*
X183945789Y-25272419D01*
X183945789Y-25272419D02*
X183850551Y-25272419D01*
X184707694Y-25272419D02*
X184707694Y-24272419D01*
X185279122Y-25272419D02*
X184850551Y-24700990D01*
X185279122Y-24272419D02*
X184707694Y-24843847D01*
X187041027Y-25272419D02*
X186707694Y-24796228D01*
X186469599Y-25272419D02*
X186469599Y-24272419D01*
X186469599Y-24272419D02*
X186850551Y-24272419D01*
X186850551Y-24272419D02*
X186945789Y-24320038D01*
X186945789Y-24320038D02*
X186993408Y-24367657D01*
X186993408Y-24367657D02*
X187041027Y-24462895D01*
X187041027Y-24462895D02*
X187041027Y-24605752D01*
X187041027Y-24605752D02*
X186993408Y-24700990D01*
X186993408Y-24700990D02*
X186945789Y-24748609D01*
X186945789Y-24748609D02*
X186850551Y-24796228D01*
X186850551Y-24796228D02*
X186469599Y-24796228D01*
X187421980Y-24986704D02*
X187898170Y-24986704D01*
X187326742Y-25272419D02*
X187660075Y-24272419D01*
X187660075Y-24272419D02*
X187993408Y-25272419D01*
X188326742Y-25272419D02*
X188326742Y-24272419D01*
X188898170Y-25272419D02*
X188469599Y-24700990D01*
X188898170Y-24272419D02*
X188326742Y-24843847D01*
X190279123Y-24272419D02*
X190374361Y-24272419D01*
X190374361Y-24272419D02*
X190469599Y-24320038D01*
X190469599Y-24320038D02*
X190517218Y-24367657D01*
X190517218Y-24367657D02*
X190564837Y-24462895D01*
X190564837Y-24462895D02*
X190612456Y-24653371D01*
X190612456Y-24653371D02*
X190612456Y-24891466D01*
X190612456Y-24891466D02*
X190564837Y-25081942D01*
X190564837Y-25081942D02*
X190517218Y-25177180D01*
X190517218Y-25177180D02*
X190469599Y-25224800D01*
X190469599Y-25224800D02*
X190374361Y-25272419D01*
X190374361Y-25272419D02*
X190279123Y-25272419D01*
X190279123Y-25272419D02*
X190183885Y-25224800D01*
X190183885Y-25224800D02*
X190136266Y-25177180D01*
X190136266Y-25177180D02*
X190088647Y-25081942D01*
X190088647Y-25081942D02*
X190041028Y-24891466D01*
X190041028Y-24891466D02*
X190041028Y-24653371D01*
X190041028Y-24653371D02*
X190088647Y-24462895D01*
X190088647Y-24462895D02*
X190136266Y-24367657D01*
X190136266Y-24367657D02*
X190183885Y-24320038D01*
X190183885Y-24320038D02*
X190279123Y-24272419D01*
X191469599Y-24605752D02*
X191469599Y-25272419D01*
X191231504Y-24224800D02*
X190993409Y-24939085D01*
X190993409Y-24939085D02*
X191612456Y-24939085D01*
X192707694Y-24224800D02*
X191850552Y-25510514D01*
X193231504Y-24272419D02*
X193326742Y-24272419D01*
X193326742Y-24272419D02*
X193421980Y-24320038D01*
X193421980Y-24320038D02*
X193469599Y-24367657D01*
X193469599Y-24367657D02*
X193517218Y-24462895D01*
X193517218Y-24462895D02*
X193564837Y-24653371D01*
X193564837Y-24653371D02*
X193564837Y-24891466D01*
X193564837Y-24891466D02*
X193517218Y-25081942D01*
X193517218Y-25081942D02*
X193469599Y-25177180D01*
X193469599Y-25177180D02*
X193421980Y-25224800D01*
X193421980Y-25224800D02*
X193326742Y-25272419D01*
X193326742Y-25272419D02*
X193231504Y-25272419D01*
X193231504Y-25272419D02*
X193136266Y-25224800D01*
X193136266Y-25224800D02*
X193088647Y-25177180D01*
X193088647Y-25177180D02*
X193041028Y-25081942D01*
X193041028Y-25081942D02*
X192993409Y-24891466D01*
X192993409Y-24891466D02*
X192993409Y-24653371D01*
X192993409Y-24653371D02*
X193041028Y-24462895D01*
X193041028Y-24462895D02*
X193088647Y-24367657D01*
X193088647Y-24367657D02*
X193136266Y-24320038D01*
X193136266Y-24320038D02*
X193231504Y-24272419D01*
X193898171Y-24272419D02*
X194517218Y-24272419D01*
X194517218Y-24272419D02*
X194183885Y-24653371D01*
X194183885Y-24653371D02*
X194326742Y-24653371D01*
X194326742Y-24653371D02*
X194421980Y-24700990D01*
X194421980Y-24700990D02*
X194469599Y-24748609D01*
X194469599Y-24748609D02*
X194517218Y-24843847D01*
X194517218Y-24843847D02*
X194517218Y-25081942D01*
X194517218Y-25081942D02*
X194469599Y-25177180D01*
X194469599Y-25177180D02*
X194421980Y-25224800D01*
X194421980Y-25224800D02*
X194326742Y-25272419D01*
X194326742Y-25272419D02*
X194041028Y-25272419D01*
X194041028Y-25272419D02*
X193945790Y-25224800D01*
X193945790Y-25224800D02*
X193898171Y-25177180D01*
X195660075Y-24224800D02*
X194802933Y-25510514D01*
X195945790Y-24367657D02*
X195993409Y-24320038D01*
X195993409Y-24320038D02*
X196088647Y-24272419D01*
X196088647Y-24272419D02*
X196326742Y-24272419D01*
X196326742Y-24272419D02*
X196421980Y-24320038D01*
X196421980Y-24320038D02*
X196469599Y-24367657D01*
X196469599Y-24367657D02*
X196517218Y-24462895D01*
X196517218Y-24462895D02*
X196517218Y-24558133D01*
X196517218Y-24558133D02*
X196469599Y-24700990D01*
X196469599Y-24700990D02*
X195898171Y-25272419D01*
X195898171Y-25272419D02*
X196517218Y-25272419D01*
X197136266Y-24272419D02*
X197231504Y-24272419D01*
X197231504Y-24272419D02*
X197326742Y-24320038D01*
X197326742Y-24320038D02*
X197374361Y-24367657D01*
X197374361Y-24367657D02*
X197421980Y-24462895D01*
X197421980Y-24462895D02*
X197469599Y-24653371D01*
X197469599Y-24653371D02*
X197469599Y-24891466D01*
X197469599Y-24891466D02*
X197421980Y-25081942D01*
X197421980Y-25081942D02*
X197374361Y-25177180D01*
X197374361Y-25177180D02*
X197326742Y-25224800D01*
X197326742Y-25224800D02*
X197231504Y-25272419D01*
X197231504Y-25272419D02*
X197136266Y-25272419D01*
X197136266Y-25272419D02*
X197041028Y-25224800D01*
X197041028Y-25224800D02*
X196993409Y-25177180D01*
X196993409Y-25177180D02*
X196945790Y-25081942D01*
X196945790Y-25081942D02*
X196898171Y-24891466D01*
X196898171Y-24891466D02*
X196898171Y-24653371D01*
X196898171Y-24653371D02*
X196945790Y-24462895D01*
X196945790Y-24462895D02*
X196993409Y-24367657D01*
X196993409Y-24367657D02*
X197041028Y-24320038D01*
X197041028Y-24320038D02*
X197136266Y-24272419D01*
X197850552Y-24367657D02*
X197898171Y-24320038D01*
X197898171Y-24320038D02*
X197993409Y-24272419D01*
X197993409Y-24272419D02*
X198231504Y-24272419D01*
X198231504Y-24272419D02*
X198326742Y-24320038D01*
X198326742Y-24320038D02*
X198374361Y-24367657D01*
X198374361Y-24367657D02*
X198421980Y-24462895D01*
X198421980Y-24462895D02*
X198421980Y-24558133D01*
X198421980Y-24558133D02*
X198374361Y-24700990D01*
X198374361Y-24700990D02*
X197802933Y-25272419D01*
X197802933Y-25272419D02*
X198421980Y-25272419D01*
X199326742Y-24272419D02*
X198850552Y-24272419D01*
X198850552Y-24272419D02*
X198802933Y-24748609D01*
X198802933Y-24748609D02*
X198850552Y-24700990D01*
X198850552Y-24700990D02*
X198945790Y-24653371D01*
X198945790Y-24653371D02*
X199183885Y-24653371D01*
X199183885Y-24653371D02*
X199279123Y-24700990D01*
X199279123Y-24700990D02*
X199326742Y-24748609D01*
X199326742Y-24748609D02*
X199374361Y-24843847D01*
X199374361Y-24843847D02*
X199374361Y-25081942D01*
X199374361Y-25081942D02*
X199326742Y-25177180D01*
X199326742Y-25177180D02*
X199279123Y-25224800D01*
X199279123Y-25224800D02*
X199183885Y-25272419D01*
X199183885Y-25272419D02*
X198945790Y-25272419D01*
X198945790Y-25272419D02*
X198850552Y-25224800D01*
X198850552Y-25224800D02*
X198802933Y-25177180D01*
X210008115Y-61214533D02*
X209246211Y-61214533D01*
X206123217Y-52434609D02*
X206266074Y-52482228D01*
X206266074Y-52482228D02*
X206313693Y-52529847D01*
X206313693Y-52529847D02*
X206361312Y-52625085D01*
X206361312Y-52625085D02*
X206361312Y-52767942D01*
X206361312Y-52767942D02*
X206313693Y-52863180D01*
X206313693Y-52863180D02*
X206266074Y-52910800D01*
X206266074Y-52910800D02*
X206170836Y-52958419D01*
X206170836Y-52958419D02*
X205789884Y-52958419D01*
X205789884Y-52958419D02*
X205789884Y-51958419D01*
X205789884Y-51958419D02*
X206123217Y-51958419D01*
X206123217Y-51958419D02*
X206218455Y-52006038D01*
X206218455Y-52006038D02*
X206266074Y-52053657D01*
X206266074Y-52053657D02*
X206313693Y-52148895D01*
X206313693Y-52148895D02*
X206313693Y-52244133D01*
X206313693Y-52244133D02*
X206266074Y-52339371D01*
X206266074Y-52339371D02*
X206218455Y-52386990D01*
X206218455Y-52386990D02*
X206123217Y-52434609D01*
X206123217Y-52434609D02*
X205789884Y-52434609D01*
X206742265Y-52672704D02*
X207218455Y-52672704D01*
X206647027Y-52958419D02*
X206980360Y-51958419D01*
X206980360Y-51958419D02*
X207313693Y-52958419D01*
X207504170Y-51958419D02*
X208075598Y-51958419D01*
X207789884Y-52958419D02*
X207789884Y-51958419D01*
X208266075Y-51958419D02*
X208837503Y-51958419D01*
X208551789Y-52958419D02*
X208551789Y-51958419D01*
X131904800Y-26413734D02*
X131952419Y-26270877D01*
X131952419Y-26270877D02*
X131952419Y-26032782D01*
X131952419Y-26032782D02*
X131904800Y-25937544D01*
X131904800Y-25937544D02*
X131857180Y-25889925D01*
X131857180Y-25889925D02*
X131761942Y-25842306D01*
X131761942Y-25842306D02*
X131666704Y-25842306D01*
X131666704Y-25842306D02*
X131571466Y-25889925D01*
X131571466Y-25889925D02*
X131523847Y-25937544D01*
X131523847Y-25937544D02*
X131476228Y-26032782D01*
X131476228Y-26032782D02*
X131428609Y-26223258D01*
X131428609Y-26223258D02*
X131380990Y-26318496D01*
X131380990Y-26318496D02*
X131333371Y-26366115D01*
X131333371Y-26366115D02*
X131238133Y-26413734D01*
X131238133Y-26413734D02*
X131142895Y-26413734D01*
X131142895Y-26413734D02*
X131047657Y-26366115D01*
X131047657Y-26366115D02*
X131000038Y-26318496D01*
X131000038Y-26318496D02*
X130952419Y-26223258D01*
X130952419Y-26223258D02*
X130952419Y-25985163D01*
X130952419Y-25985163D02*
X131000038Y-25842306D01*
X131952419Y-25413734D02*
X130952419Y-25413734D01*
X130952419Y-25413734D02*
X130952419Y-25175639D01*
X130952419Y-25175639D02*
X131000038Y-25032782D01*
X131000038Y-25032782D02*
X131095276Y-24937544D01*
X131095276Y-24937544D02*
X131190514Y-24889925D01*
X131190514Y-24889925D02*
X131380990Y-24842306D01*
X131380990Y-24842306D02*
X131523847Y-24842306D01*
X131523847Y-24842306D02*
X131714323Y-24889925D01*
X131714323Y-24889925D02*
X131809561Y-24937544D01*
X131809561Y-24937544D02*
X131904800Y-25032782D01*
X131904800Y-25032782D02*
X131952419Y-25175639D01*
X131952419Y-25175639D02*
X131952419Y-25413734D01*
X131666704Y-24461353D02*
X131666704Y-23985163D01*
X131952419Y-24556591D02*
X130952419Y-24223258D01*
X130952419Y-24223258D02*
X131952419Y-23889925D01*
X133174800Y-26413734D02*
X133222419Y-26270877D01*
X133222419Y-26270877D02*
X133222419Y-26032782D01*
X133222419Y-26032782D02*
X133174800Y-25937544D01*
X133174800Y-25937544D02*
X133127180Y-25889925D01*
X133127180Y-25889925D02*
X133031942Y-25842306D01*
X133031942Y-25842306D02*
X132936704Y-25842306D01*
X132936704Y-25842306D02*
X132841466Y-25889925D01*
X132841466Y-25889925D02*
X132793847Y-25937544D01*
X132793847Y-25937544D02*
X132746228Y-26032782D01*
X132746228Y-26032782D02*
X132698609Y-26223258D01*
X132698609Y-26223258D02*
X132650990Y-26318496D01*
X132650990Y-26318496D02*
X132603371Y-26366115D01*
X132603371Y-26366115D02*
X132508133Y-26413734D01*
X132508133Y-26413734D02*
X132412895Y-26413734D01*
X132412895Y-26413734D02*
X132317657Y-26366115D01*
X132317657Y-26366115D02*
X132270038Y-26318496D01*
X132270038Y-26318496D02*
X132222419Y-26223258D01*
X132222419Y-26223258D02*
X132222419Y-25985163D01*
X132222419Y-25985163D02*
X132270038Y-25842306D01*
X133127180Y-24842306D02*
X133174800Y-24889925D01*
X133174800Y-24889925D02*
X133222419Y-25032782D01*
X133222419Y-25032782D02*
X133222419Y-25128020D01*
X133222419Y-25128020D02*
X133174800Y-25270877D01*
X133174800Y-25270877D02*
X133079561Y-25366115D01*
X133079561Y-25366115D02*
X132984323Y-25413734D01*
X132984323Y-25413734D02*
X132793847Y-25461353D01*
X132793847Y-25461353D02*
X132650990Y-25461353D01*
X132650990Y-25461353D02*
X132460514Y-25413734D01*
X132460514Y-25413734D02*
X132365276Y-25366115D01*
X132365276Y-25366115D02*
X132270038Y-25270877D01*
X132270038Y-25270877D02*
X132222419Y-25128020D01*
X132222419Y-25128020D02*
X132222419Y-25032782D01*
X132222419Y-25032782D02*
X132270038Y-24889925D01*
X132270038Y-24889925D02*
X132317657Y-24842306D01*
X133222419Y-23937544D02*
X133222419Y-24413734D01*
X133222419Y-24413734D02*
X132222419Y-24413734D01*
X133653884Y-22732419D02*
X133653884Y-21732419D01*
X134082455Y-21827657D02*
X134130074Y-21780038D01*
X134130074Y-21780038D02*
X134225312Y-21732419D01*
X134225312Y-21732419D02*
X134463407Y-21732419D01*
X134463407Y-21732419D02*
X134558645Y-21780038D01*
X134558645Y-21780038D02*
X134606264Y-21827657D01*
X134606264Y-21827657D02*
X134653883Y-21922895D01*
X134653883Y-21922895D02*
X134653883Y-22018133D01*
X134653883Y-22018133D02*
X134606264Y-22160990D01*
X134606264Y-22160990D02*
X134034836Y-22732419D01*
X134034836Y-22732419D02*
X134653883Y-22732419D01*
X135653883Y-22637180D02*
X135606264Y-22684800D01*
X135606264Y-22684800D02*
X135463407Y-22732419D01*
X135463407Y-22732419D02*
X135368169Y-22732419D01*
X135368169Y-22732419D02*
X135225312Y-22684800D01*
X135225312Y-22684800D02*
X135130074Y-22589561D01*
X135130074Y-22589561D02*
X135082455Y-22494323D01*
X135082455Y-22494323D02*
X135034836Y-22303847D01*
X135034836Y-22303847D02*
X135034836Y-22160990D01*
X135034836Y-22160990D02*
X135082455Y-21970514D01*
X135082455Y-21970514D02*
X135130074Y-21875276D01*
X135130074Y-21875276D02*
X135225312Y-21780038D01*
X135225312Y-21780038D02*
X135368169Y-21732419D01*
X135368169Y-21732419D02*
X135463407Y-21732419D01*
X135463407Y-21732419D02*
X135606264Y-21780038D01*
X135606264Y-21780038D02*
X135653883Y-21827657D01*
X201516704Y-45463734D02*
X201516704Y-44987544D01*
X201802419Y-45558972D02*
X200802419Y-45225639D01*
X200802419Y-45225639D02*
X201802419Y-44892306D01*
X200802419Y-44558972D02*
X201611942Y-44558972D01*
X201611942Y-44558972D02*
X201707180Y-44511353D01*
X201707180Y-44511353D02*
X201754800Y-44463734D01*
X201754800Y-44463734D02*
X201802419Y-44368496D01*
X201802419Y-44368496D02*
X201802419Y-44178020D01*
X201802419Y-44178020D02*
X201754800Y-44082782D01*
X201754800Y-44082782D02*
X201707180Y-44035163D01*
X201707180Y-44035163D02*
X201611942Y-43987544D01*
X201611942Y-43987544D02*
X200802419Y-43987544D01*
X200802419Y-43606591D02*
X201802419Y-42939925D01*
X200802419Y-42939925D02*
X201802419Y-43606591D01*
X204265884Y-61213466D02*
X205027789Y-61213466D01*
X204646836Y-61594419D02*
X204646836Y-60832514D01*
D11*
X201130819Y-49863333D02*
X201845104Y-49863333D01*
X201845104Y-49863333D02*
X201987961Y-49910952D01*
X201987961Y-49910952D02*
X202083200Y-50006190D01*
X202083200Y-50006190D02*
X202130819Y-50149047D01*
X202130819Y-50149047D02*
X202130819Y-50244285D01*
X201130819Y-48910952D02*
X201130819Y-49387142D01*
X201130819Y-49387142D02*
X201607009Y-49434761D01*
X201607009Y-49434761D02*
X201559390Y-49387142D01*
X201559390Y-49387142D02*
X201511771Y-49291904D01*
X201511771Y-49291904D02*
X201511771Y-49053809D01*
X201511771Y-49053809D02*
X201559390Y-48958571D01*
X201559390Y-48958571D02*
X201607009Y-48910952D01*
X201607009Y-48910952D02*
X201702247Y-48863333D01*
X201702247Y-48863333D02*
X201940342Y-48863333D01*
X201940342Y-48863333D02*
X202035580Y-48910952D01*
X202035580Y-48910952D02*
X202083200Y-48958571D01*
X202083200Y-48958571D02*
X202130819Y-49053809D01*
X202130819Y-49053809D02*
X202130819Y-49291904D01*
X202130819Y-49291904D02*
X202083200Y-49387142D01*
X202083200Y-49387142D02*
X202035580Y-49434761D01*
X177044819Y-55371904D02*
X177854342Y-55371904D01*
X177854342Y-55371904D02*
X177949580Y-55324285D01*
X177949580Y-55324285D02*
X177997200Y-55276666D01*
X177997200Y-55276666D02*
X178044819Y-55181428D01*
X178044819Y-55181428D02*
X178044819Y-54990952D01*
X178044819Y-54990952D02*
X177997200Y-54895714D01*
X177997200Y-54895714D02*
X177949580Y-54848095D01*
X177949580Y-54848095D02*
X177854342Y-54800476D01*
X177854342Y-54800476D02*
X177044819Y-54800476D01*
X177140057Y-54371904D02*
X177092438Y-54324285D01*
X177092438Y-54324285D02*
X177044819Y-54229047D01*
X177044819Y-54229047D02*
X177044819Y-53990952D01*
X177044819Y-53990952D02*
X177092438Y-53895714D01*
X177092438Y-53895714D02*
X177140057Y-53848095D01*
X177140057Y-53848095D02*
X177235295Y-53800476D01*
X177235295Y-53800476D02*
X177330533Y-53800476D01*
X177330533Y-53800476D02*
X177473390Y-53848095D01*
X177473390Y-53848095D02*
X178044819Y-54419523D01*
X178044819Y-54419523D02*
X178044819Y-53800476D01*
X169505333Y-65637580D02*
X169457714Y-65685200D01*
X169457714Y-65685200D02*
X169314857Y-65732819D01*
X169314857Y-65732819D02*
X169219619Y-65732819D01*
X169219619Y-65732819D02*
X169076762Y-65685200D01*
X169076762Y-65685200D02*
X168981524Y-65589961D01*
X168981524Y-65589961D02*
X168933905Y-65494723D01*
X168933905Y-65494723D02*
X168886286Y-65304247D01*
X168886286Y-65304247D02*
X168886286Y-65161390D01*
X168886286Y-65161390D02*
X168933905Y-64970914D01*
X168933905Y-64970914D02*
X168981524Y-64875676D01*
X168981524Y-64875676D02*
X169076762Y-64780438D01*
X169076762Y-64780438D02*
X169219619Y-64732819D01*
X169219619Y-64732819D02*
X169314857Y-64732819D01*
X169314857Y-64732819D02*
X169457714Y-64780438D01*
X169457714Y-64780438D02*
X169505333Y-64828057D01*
X169886286Y-64828057D02*
X169933905Y-64780438D01*
X169933905Y-64780438D02*
X170029143Y-64732819D01*
X170029143Y-64732819D02*
X170267238Y-64732819D01*
X170267238Y-64732819D02*
X170362476Y-64780438D01*
X170362476Y-64780438D02*
X170410095Y-64828057D01*
X170410095Y-64828057D02*
X170457714Y-64923295D01*
X170457714Y-64923295D02*
X170457714Y-65018533D01*
X170457714Y-65018533D02*
X170410095Y-65161390D01*
X170410095Y-65161390D02*
X169838667Y-65732819D01*
X169838667Y-65732819D02*
X170457714Y-65732819D01*
X174029761Y-65859819D02*
X173458333Y-65859819D01*
X173744047Y-65859819D02*
X173744047Y-64859819D01*
X173744047Y-64859819D02*
X173648809Y-65002676D01*
X173648809Y-65002676D02*
X173553571Y-65097914D01*
X173553571Y-65097914D02*
X173458333Y-65145533D01*
X174886904Y-65193152D02*
X174886904Y-65859819D01*
X174458333Y-65193152D02*
X174458333Y-65716961D01*
X174458333Y-65716961D02*
X174505952Y-65812200D01*
X174505952Y-65812200D02*
X174601190Y-65859819D01*
X174601190Y-65859819D02*
X174744047Y-65859819D01*
X174744047Y-65859819D02*
X174839285Y-65812200D01*
X174839285Y-65812200D02*
X174886904Y-65764580D01*
X175696428Y-65336009D02*
X175363095Y-65336009D01*
X175363095Y-65859819D02*
X175363095Y-64859819D01*
X175363095Y-64859819D02*
X175839285Y-64859819D01*
X201596666Y-66764819D02*
X201596666Y-67479104D01*
X201596666Y-67479104D02*
X201549047Y-67621961D01*
X201549047Y-67621961D02*
X201453809Y-67717200D01*
X201453809Y-67717200D02*
X201310952Y-67764819D01*
X201310952Y-67764819D02*
X201215714Y-67764819D01*
X202025238Y-66860057D02*
X202072857Y-66812438D01*
X202072857Y-66812438D02*
X202168095Y-66764819D01*
X202168095Y-66764819D02*
X202406190Y-66764819D01*
X202406190Y-66764819D02*
X202501428Y-66812438D01*
X202501428Y-66812438D02*
X202549047Y-66860057D01*
X202549047Y-66860057D02*
X202596666Y-66955295D01*
X202596666Y-66955295D02*
X202596666Y-67050533D01*
X202596666Y-67050533D02*
X202549047Y-67193390D01*
X202549047Y-67193390D02*
X201977619Y-67764819D01*
X201977619Y-67764819D02*
X202596666Y-67764819D01*
X185874819Y-48426666D02*
X185398628Y-48759999D01*
X185874819Y-48998094D02*
X184874819Y-48998094D01*
X184874819Y-48998094D02*
X184874819Y-48617142D01*
X184874819Y-48617142D02*
X184922438Y-48521904D01*
X184922438Y-48521904D02*
X184970057Y-48474285D01*
X184970057Y-48474285D02*
X185065295Y-48426666D01*
X185065295Y-48426666D02*
X185208152Y-48426666D01*
X185208152Y-48426666D02*
X185303390Y-48474285D01*
X185303390Y-48474285D02*
X185351009Y-48521904D01*
X185351009Y-48521904D02*
X185398628Y-48617142D01*
X185398628Y-48617142D02*
X185398628Y-48998094D01*
X184970057Y-48045713D02*
X184922438Y-47998094D01*
X184922438Y-47998094D02*
X184874819Y-47902856D01*
X184874819Y-47902856D02*
X184874819Y-47664761D01*
X184874819Y-47664761D02*
X184922438Y-47569523D01*
X184922438Y-47569523D02*
X184970057Y-47521904D01*
X184970057Y-47521904D02*
X185065295Y-47474285D01*
X185065295Y-47474285D02*
X185160533Y-47474285D01*
X185160533Y-47474285D02*
X185303390Y-47521904D01*
X185303390Y-47521904D02*
X185874819Y-48093332D01*
X185874819Y-48093332D02*
X185874819Y-47474285D01*
X186674286Y-41364819D02*
X187293333Y-41364819D01*
X187293333Y-41364819D02*
X186960000Y-41745771D01*
X186960000Y-41745771D02*
X187102857Y-41745771D01*
X187102857Y-41745771D02*
X187198095Y-41793390D01*
X187198095Y-41793390D02*
X187245714Y-41841009D01*
X187245714Y-41841009D02*
X187293333Y-41936247D01*
X187293333Y-41936247D02*
X187293333Y-42174342D01*
X187293333Y-42174342D02*
X187245714Y-42269580D01*
X187245714Y-42269580D02*
X187198095Y-42317200D01*
X187198095Y-42317200D02*
X187102857Y-42364819D01*
X187102857Y-42364819D02*
X186817143Y-42364819D01*
X186817143Y-42364819D02*
X186721905Y-42317200D01*
X186721905Y-42317200D02*
X186674286Y-42269580D01*
X187626667Y-41364819D02*
X188245714Y-41364819D01*
X188245714Y-41364819D02*
X187912381Y-41745771D01*
X187912381Y-41745771D02*
X188055238Y-41745771D01*
X188055238Y-41745771D02*
X188150476Y-41793390D01*
X188150476Y-41793390D02*
X188198095Y-41841009D01*
X188198095Y-41841009D02*
X188245714Y-41936247D01*
X188245714Y-41936247D02*
X188245714Y-42174342D01*
X188245714Y-42174342D02*
X188198095Y-42269580D01*
X188198095Y-42269580D02*
X188150476Y-42317200D01*
X188150476Y-42317200D02*
X188055238Y-42364819D01*
X188055238Y-42364819D02*
X187769524Y-42364819D01*
X187769524Y-42364819D02*
X187674286Y-42317200D01*
X187674286Y-42317200D02*
X187626667Y-42269580D01*
X188864762Y-41364819D02*
X188960000Y-41364819D01*
X188960000Y-41364819D02*
X189055238Y-41412438D01*
X189055238Y-41412438D02*
X189102857Y-41460057D01*
X189102857Y-41460057D02*
X189150476Y-41555295D01*
X189150476Y-41555295D02*
X189198095Y-41745771D01*
X189198095Y-41745771D02*
X189198095Y-41983866D01*
X189198095Y-41983866D02*
X189150476Y-42174342D01*
X189150476Y-42174342D02*
X189102857Y-42269580D01*
X189102857Y-42269580D02*
X189055238Y-42317200D01*
X189055238Y-42317200D02*
X188960000Y-42364819D01*
X188960000Y-42364819D02*
X188864762Y-42364819D01*
X188864762Y-42364819D02*
X188769524Y-42317200D01*
X188769524Y-42317200D02*
X188721905Y-42269580D01*
X188721905Y-42269580D02*
X188674286Y-42174342D01*
X188674286Y-42174342D02*
X188626667Y-41983866D01*
X188626667Y-41983866D02*
X188626667Y-41745771D01*
X188626667Y-41745771D02*
X188674286Y-41555295D01*
X188674286Y-41555295D02*
X188721905Y-41460057D01*
X188721905Y-41460057D02*
X188769524Y-41412438D01*
X188769524Y-41412438D02*
X188864762Y-41364819D01*
X201130819Y-30687443D02*
X201845104Y-30687443D01*
X201845104Y-30687443D02*
X201987961Y-30735062D01*
X201987961Y-30735062D02*
X202083200Y-30830300D01*
X202083200Y-30830300D02*
X202130819Y-30973157D01*
X202130819Y-30973157D02*
X202130819Y-31068395D01*
X202130819Y-29687443D02*
X202130819Y-30258871D01*
X202130819Y-29973157D02*
X201130819Y-29973157D01*
X201130819Y-29973157D02*
X201273676Y-30068395D01*
X201273676Y-30068395D02*
X201368914Y-30163633D01*
X201368914Y-30163633D02*
X201416533Y-30258871D01*
X173228095Y-30994819D02*
X173228095Y-31804342D01*
X173228095Y-31804342D02*
X173275714Y-31899580D01*
X173275714Y-31899580D02*
X173323333Y-31947200D01*
X173323333Y-31947200D02*
X173418571Y-31994819D01*
X173418571Y-31994819D02*
X173609047Y-31994819D01*
X173609047Y-31994819D02*
X173704285Y-31947200D01*
X173704285Y-31947200D02*
X173751904Y-31899580D01*
X173751904Y-31899580D02*
X173799523Y-31804342D01*
X173799523Y-31804342D02*
X173799523Y-30994819D01*
X174704285Y-31328152D02*
X174704285Y-31994819D01*
X174466190Y-30947200D02*
X174228095Y-31661485D01*
X174228095Y-31661485D02*
X174847142Y-31661485D01*
X201596666Y-57874819D02*
X201596666Y-58589104D01*
X201596666Y-58589104D02*
X201549047Y-58731961D01*
X201549047Y-58731961D02*
X201453809Y-58827200D01*
X201453809Y-58827200D02*
X201310952Y-58874819D01*
X201310952Y-58874819D02*
X201215714Y-58874819D01*
X201977619Y-57874819D02*
X202596666Y-57874819D01*
X202596666Y-57874819D02*
X202263333Y-58255771D01*
X202263333Y-58255771D02*
X202406190Y-58255771D01*
X202406190Y-58255771D02*
X202501428Y-58303390D01*
X202501428Y-58303390D02*
X202549047Y-58351009D01*
X202549047Y-58351009D02*
X202596666Y-58446247D01*
X202596666Y-58446247D02*
X202596666Y-58684342D01*
X202596666Y-58684342D02*
X202549047Y-58779580D01*
X202549047Y-58779580D02*
X202501428Y-58827200D01*
X202501428Y-58827200D02*
X202406190Y-58874819D01*
X202406190Y-58874819D02*
X202120476Y-58874819D01*
X202120476Y-58874819D02*
X202025238Y-58827200D01*
X202025238Y-58827200D02*
X201977619Y-58779580D01*
X183791905Y-43634819D02*
X183791905Y-42634819D01*
X183791905Y-42634819D02*
X184030000Y-42634819D01*
X184030000Y-42634819D02*
X184172857Y-42682438D01*
X184172857Y-42682438D02*
X184268095Y-42777676D01*
X184268095Y-42777676D02*
X184315714Y-42872914D01*
X184315714Y-42872914D02*
X184363333Y-43063390D01*
X184363333Y-43063390D02*
X184363333Y-43206247D01*
X184363333Y-43206247D02*
X184315714Y-43396723D01*
X184315714Y-43396723D02*
X184268095Y-43491961D01*
X184268095Y-43491961D02*
X184172857Y-43587200D01*
X184172857Y-43587200D02*
X184030000Y-43634819D01*
X184030000Y-43634819D02*
X183791905Y-43634819D01*
X184934762Y-43063390D02*
X184839524Y-43015771D01*
X184839524Y-43015771D02*
X184791905Y-42968152D01*
X184791905Y-42968152D02*
X184744286Y-42872914D01*
X184744286Y-42872914D02*
X184744286Y-42825295D01*
X184744286Y-42825295D02*
X184791905Y-42730057D01*
X184791905Y-42730057D02*
X184839524Y-42682438D01*
X184839524Y-42682438D02*
X184934762Y-42634819D01*
X184934762Y-42634819D02*
X185125238Y-42634819D01*
X185125238Y-42634819D02*
X185220476Y-42682438D01*
X185220476Y-42682438D02*
X185268095Y-42730057D01*
X185268095Y-42730057D02*
X185315714Y-42825295D01*
X185315714Y-42825295D02*
X185315714Y-42872914D01*
X185315714Y-42872914D02*
X185268095Y-42968152D01*
X185268095Y-42968152D02*
X185220476Y-43015771D01*
X185220476Y-43015771D02*
X185125238Y-43063390D01*
X185125238Y-43063390D02*
X184934762Y-43063390D01*
X184934762Y-43063390D02*
X184839524Y-43111009D01*
X184839524Y-43111009D02*
X184791905Y-43158628D01*
X184791905Y-43158628D02*
X184744286Y-43253866D01*
X184744286Y-43253866D02*
X184744286Y-43444342D01*
X184744286Y-43444342D02*
X184791905Y-43539580D01*
X184791905Y-43539580D02*
X184839524Y-43587200D01*
X184839524Y-43587200D02*
X184934762Y-43634819D01*
X184934762Y-43634819D02*
X185125238Y-43634819D01*
X185125238Y-43634819D02*
X185220476Y-43587200D01*
X185220476Y-43587200D02*
X185268095Y-43539580D01*
X185268095Y-43539580D02*
X185315714Y-43444342D01*
X185315714Y-43444342D02*
X185315714Y-43253866D01*
X185315714Y-43253866D02*
X185268095Y-43158628D01*
X185268095Y-43158628D02*
X185220476Y-43111009D01*
X185220476Y-43111009D02*
X185125238Y-43063390D01*
X191603333Y-56239580D02*
X191555714Y-56287200D01*
X191555714Y-56287200D02*
X191412857Y-56334819D01*
X191412857Y-56334819D02*
X191317619Y-56334819D01*
X191317619Y-56334819D02*
X191174762Y-56287200D01*
X191174762Y-56287200D02*
X191079524Y-56191961D01*
X191079524Y-56191961D02*
X191031905Y-56096723D01*
X191031905Y-56096723D02*
X190984286Y-55906247D01*
X190984286Y-55906247D02*
X190984286Y-55763390D01*
X190984286Y-55763390D02*
X191031905Y-55572914D01*
X191031905Y-55572914D02*
X191079524Y-55477676D01*
X191079524Y-55477676D02*
X191174762Y-55382438D01*
X191174762Y-55382438D02*
X191317619Y-55334819D01*
X191317619Y-55334819D02*
X191412857Y-55334819D01*
X191412857Y-55334819D02*
X191555714Y-55382438D01*
X191555714Y-55382438D02*
X191603333Y-55430057D01*
X192555714Y-56334819D02*
X191984286Y-56334819D01*
X192270000Y-56334819D02*
X192270000Y-55334819D01*
X192270000Y-55334819D02*
X192174762Y-55477676D01*
X192174762Y-55477676D02*
X192079524Y-55572914D01*
X192079524Y-55572914D02*
X191984286Y-55620533D01*
X197264819Y-60082856D02*
X197264819Y-59987618D01*
X197264819Y-59987618D02*
X197312438Y-59892380D01*
X197312438Y-59892380D02*
X197360057Y-59844761D01*
X197360057Y-59844761D02*
X197455295Y-59797142D01*
X197455295Y-59797142D02*
X197645771Y-59749523D01*
X197645771Y-59749523D02*
X197883866Y-59749523D01*
X197883866Y-59749523D02*
X198074342Y-59797142D01*
X198074342Y-59797142D02*
X198169580Y-59844761D01*
X198169580Y-59844761D02*
X198217200Y-59892380D01*
X198217200Y-59892380D02*
X198264819Y-59987618D01*
X198264819Y-59987618D02*
X198264819Y-60082856D01*
X198264819Y-60082856D02*
X198217200Y-60178094D01*
X198217200Y-60178094D02*
X198169580Y-60225713D01*
X198169580Y-60225713D02*
X198074342Y-60273332D01*
X198074342Y-60273332D02*
X197883866Y-60320951D01*
X197883866Y-60320951D02*
X197645771Y-60320951D01*
X197645771Y-60320951D02*
X197455295Y-60273332D01*
X197455295Y-60273332D02*
X197360057Y-60225713D01*
X197360057Y-60225713D02*
X197312438Y-60178094D01*
X197312438Y-60178094D02*
X197264819Y-60082856D01*
X198169580Y-59320951D02*
X198217200Y-59273332D01*
X198217200Y-59273332D02*
X198264819Y-59320951D01*
X198264819Y-59320951D02*
X198217200Y-59368570D01*
X198217200Y-59368570D02*
X198169580Y-59320951D01*
X198169580Y-59320951D02*
X198264819Y-59320951D01*
X198264819Y-58320952D02*
X198264819Y-58892380D01*
X198264819Y-58606666D02*
X197264819Y-58606666D01*
X197264819Y-58606666D02*
X197407676Y-58701904D01*
X197407676Y-58701904D02*
X197502914Y-58797142D01*
X197502914Y-58797142D02*
X197550533Y-58892380D01*
X197598152Y-57463809D02*
X198264819Y-57463809D01*
X197598152Y-57892380D02*
X198121961Y-57892380D01*
X198121961Y-57892380D02*
X198217200Y-57844761D01*
X198217200Y-57844761D02*
X198264819Y-57749523D01*
X198264819Y-57749523D02*
X198264819Y-57606666D01*
X198264819Y-57606666D02*
X198217200Y-57511428D01*
X198217200Y-57511428D02*
X198169580Y-57463809D01*
X197741009Y-56654285D02*
X197741009Y-56987618D01*
X198264819Y-56987618D02*
X197264819Y-56987618D01*
X197264819Y-56987618D02*
X197264819Y-56511428D01*
X163977200Y-71163332D02*
X164024819Y-71020475D01*
X164024819Y-71020475D02*
X164024819Y-70782380D01*
X164024819Y-70782380D02*
X163977200Y-70687142D01*
X163977200Y-70687142D02*
X163929580Y-70639523D01*
X163929580Y-70639523D02*
X163834342Y-70591904D01*
X163834342Y-70591904D02*
X163739104Y-70591904D01*
X163739104Y-70591904D02*
X163643866Y-70639523D01*
X163643866Y-70639523D02*
X163596247Y-70687142D01*
X163596247Y-70687142D02*
X163548628Y-70782380D01*
X163548628Y-70782380D02*
X163501009Y-70972856D01*
X163501009Y-70972856D02*
X163453390Y-71068094D01*
X163453390Y-71068094D02*
X163405771Y-71115713D01*
X163405771Y-71115713D02*
X163310533Y-71163332D01*
X163310533Y-71163332D02*
X163215295Y-71163332D01*
X163215295Y-71163332D02*
X163120057Y-71115713D01*
X163120057Y-71115713D02*
X163072438Y-71068094D01*
X163072438Y-71068094D02*
X163024819Y-70972856D01*
X163024819Y-70972856D02*
X163024819Y-70734761D01*
X163024819Y-70734761D02*
X163072438Y-70591904D01*
X163024819Y-70258570D02*
X164024819Y-70020475D01*
X164024819Y-70020475D02*
X163310533Y-69829999D01*
X163310533Y-69829999D02*
X164024819Y-69639523D01*
X164024819Y-69639523D02*
X163024819Y-69401428D01*
X163024819Y-69115713D02*
X163024819Y-68496666D01*
X163024819Y-68496666D02*
X163405771Y-68829999D01*
X163405771Y-68829999D02*
X163405771Y-68687142D01*
X163405771Y-68687142D02*
X163453390Y-68591904D01*
X163453390Y-68591904D02*
X163501009Y-68544285D01*
X163501009Y-68544285D02*
X163596247Y-68496666D01*
X163596247Y-68496666D02*
X163834342Y-68496666D01*
X163834342Y-68496666D02*
X163929580Y-68544285D01*
X163929580Y-68544285D02*
X163977200Y-68591904D01*
X163977200Y-68591904D02*
X164024819Y-68687142D01*
X164024819Y-68687142D02*
X164024819Y-68972856D01*
X164024819Y-68972856D02*
X163977200Y-69068094D01*
X163977200Y-69068094D02*
X163929580Y-69115713D01*
X155874819Y-71639523D02*
X154874819Y-71639523D01*
X154874819Y-71639523D02*
X155589104Y-71306190D01*
X155589104Y-71306190D02*
X154874819Y-70972857D01*
X154874819Y-70972857D02*
X155874819Y-70972857D01*
X154874819Y-70306190D02*
X154874819Y-70115714D01*
X154874819Y-70115714D02*
X154922438Y-70020476D01*
X154922438Y-70020476D02*
X155017676Y-69925238D01*
X155017676Y-69925238D02*
X155208152Y-69877619D01*
X155208152Y-69877619D02*
X155541485Y-69877619D01*
X155541485Y-69877619D02*
X155731961Y-69925238D01*
X155731961Y-69925238D02*
X155827200Y-70020476D01*
X155827200Y-70020476D02*
X155874819Y-70115714D01*
X155874819Y-70115714D02*
X155874819Y-70306190D01*
X155874819Y-70306190D02*
X155827200Y-70401428D01*
X155827200Y-70401428D02*
X155731961Y-70496666D01*
X155731961Y-70496666D02*
X155541485Y-70544285D01*
X155541485Y-70544285D02*
X155208152Y-70544285D01*
X155208152Y-70544285D02*
X155017676Y-70496666D01*
X155017676Y-70496666D02*
X154922438Y-70401428D01*
X154922438Y-70401428D02*
X154874819Y-70306190D01*
X155874819Y-69449047D02*
X154874819Y-69449047D01*
X154874819Y-69449047D02*
X154874819Y-69210952D01*
X154874819Y-69210952D02*
X154922438Y-69068095D01*
X154922438Y-69068095D02*
X155017676Y-68972857D01*
X155017676Y-68972857D02*
X155112914Y-68925238D01*
X155112914Y-68925238D02*
X155303390Y-68877619D01*
X155303390Y-68877619D02*
X155446247Y-68877619D01*
X155446247Y-68877619D02*
X155636723Y-68925238D01*
X155636723Y-68925238D02*
X155731961Y-68972857D01*
X155731961Y-68972857D02*
X155827200Y-69068095D01*
X155827200Y-69068095D02*
X155874819Y-69210952D01*
X155874819Y-69210952D02*
X155874819Y-69449047D01*
X155351009Y-68449047D02*
X155351009Y-68115714D01*
X155874819Y-67972857D02*
X155874819Y-68449047D01*
X155874819Y-68449047D02*
X154874819Y-68449047D01*
X154874819Y-68449047D02*
X154874819Y-67972857D01*
X187793333Y-41094819D02*
X187460000Y-40618628D01*
X187221905Y-41094819D02*
X187221905Y-40094819D01*
X187221905Y-40094819D02*
X187602857Y-40094819D01*
X187602857Y-40094819D02*
X187698095Y-40142438D01*
X187698095Y-40142438D02*
X187745714Y-40190057D01*
X187745714Y-40190057D02*
X187793333Y-40285295D01*
X187793333Y-40285295D02*
X187793333Y-40428152D01*
X187793333Y-40428152D02*
X187745714Y-40523390D01*
X187745714Y-40523390D02*
X187698095Y-40571009D01*
X187698095Y-40571009D02*
X187602857Y-40618628D01*
X187602857Y-40618628D02*
X187221905Y-40618628D01*
X188650476Y-40428152D02*
X188650476Y-41094819D01*
X188412381Y-40047200D02*
X188174286Y-40761485D01*
X188174286Y-40761485D02*
X188793333Y-40761485D01*
X190907200Y-39433332D02*
X190954819Y-39290475D01*
X190954819Y-39290475D02*
X190954819Y-39052380D01*
X190954819Y-39052380D02*
X190907200Y-38957142D01*
X190907200Y-38957142D02*
X190859580Y-38909523D01*
X190859580Y-38909523D02*
X190764342Y-38861904D01*
X190764342Y-38861904D02*
X190669104Y-38861904D01*
X190669104Y-38861904D02*
X190573866Y-38909523D01*
X190573866Y-38909523D02*
X190526247Y-38957142D01*
X190526247Y-38957142D02*
X190478628Y-39052380D01*
X190478628Y-39052380D02*
X190431009Y-39242856D01*
X190431009Y-39242856D02*
X190383390Y-39338094D01*
X190383390Y-39338094D02*
X190335771Y-39385713D01*
X190335771Y-39385713D02*
X190240533Y-39433332D01*
X190240533Y-39433332D02*
X190145295Y-39433332D01*
X190145295Y-39433332D02*
X190050057Y-39385713D01*
X190050057Y-39385713D02*
X190002438Y-39338094D01*
X190002438Y-39338094D02*
X189954819Y-39242856D01*
X189954819Y-39242856D02*
X189954819Y-39004761D01*
X189954819Y-39004761D02*
X190002438Y-38861904D01*
X189954819Y-38528570D02*
X190954819Y-38290475D01*
X190954819Y-38290475D02*
X190240533Y-38099999D01*
X190240533Y-38099999D02*
X190954819Y-37909523D01*
X190954819Y-37909523D02*
X189954819Y-37671428D01*
X190288152Y-36861904D02*
X190954819Y-36861904D01*
X189907200Y-37099999D02*
X190621485Y-37338094D01*
X190621485Y-37338094D02*
X190621485Y-36719047D01*
X193905476Y-34744819D02*
X193905476Y-33744819D01*
X193905476Y-33744819D02*
X194286428Y-33744819D01*
X194286428Y-33744819D02*
X194381666Y-33792438D01*
X194381666Y-33792438D02*
X194429285Y-33840057D01*
X194429285Y-33840057D02*
X194476904Y-33935295D01*
X194476904Y-33935295D02*
X194476904Y-34078152D01*
X194476904Y-34078152D02*
X194429285Y-34173390D01*
X194429285Y-34173390D02*
X194381666Y-34221009D01*
X194381666Y-34221009D02*
X194286428Y-34268628D01*
X194286428Y-34268628D02*
X193905476Y-34268628D01*
X195095952Y-33744819D02*
X195286428Y-33744819D01*
X195286428Y-33744819D02*
X195381666Y-33792438D01*
X195381666Y-33792438D02*
X195476904Y-33887676D01*
X195476904Y-33887676D02*
X195524523Y-34078152D01*
X195524523Y-34078152D02*
X195524523Y-34411485D01*
X195524523Y-34411485D02*
X195476904Y-34601961D01*
X195476904Y-34601961D02*
X195381666Y-34697200D01*
X195381666Y-34697200D02*
X195286428Y-34744819D01*
X195286428Y-34744819D02*
X195095952Y-34744819D01*
X195095952Y-34744819D02*
X195000714Y-34697200D01*
X195000714Y-34697200D02*
X194905476Y-34601961D01*
X194905476Y-34601961D02*
X194857857Y-34411485D01*
X194857857Y-34411485D02*
X194857857Y-34078152D01*
X194857857Y-34078152D02*
X194905476Y-33887676D01*
X194905476Y-33887676D02*
X195000714Y-33792438D01*
X195000714Y-33792438D02*
X195095952Y-33744819D01*
X195857857Y-33744819D02*
X196095952Y-34744819D01*
X196095952Y-34744819D02*
X196286428Y-34030533D01*
X196286428Y-34030533D02*
X196476904Y-34744819D01*
X196476904Y-34744819D02*
X196715000Y-33744819D01*
X197095952Y-34221009D02*
X197429285Y-34221009D01*
X197572142Y-34744819D02*
X197095952Y-34744819D01*
X197095952Y-34744819D02*
X197095952Y-33744819D01*
X197095952Y-33744819D02*
X197572142Y-33744819D01*
X198572142Y-34744819D02*
X198238809Y-34268628D01*
X198000714Y-34744819D02*
X198000714Y-33744819D01*
X198000714Y-33744819D02*
X198381666Y-33744819D01*
X198381666Y-33744819D02*
X198476904Y-33792438D01*
X198476904Y-33792438D02*
X198524523Y-33840057D01*
X198524523Y-33840057D02*
X198572142Y-33935295D01*
X198572142Y-33935295D02*
X198572142Y-34078152D01*
X198572142Y-34078152D02*
X198524523Y-34173390D01*
X198524523Y-34173390D02*
X198476904Y-34221009D01*
X198476904Y-34221009D02*
X198381666Y-34268628D01*
X198381666Y-34268628D02*
X198000714Y-34268628D01*
X154297142Y-24584819D02*
X153963809Y-24108628D01*
X153725714Y-24584819D02*
X153725714Y-23584819D01*
X153725714Y-23584819D02*
X154106666Y-23584819D01*
X154106666Y-23584819D02*
X154201904Y-23632438D01*
X154201904Y-23632438D02*
X154249523Y-23680057D01*
X154249523Y-23680057D02*
X154297142Y-23775295D01*
X154297142Y-23775295D02*
X154297142Y-23918152D01*
X154297142Y-23918152D02*
X154249523Y-24013390D01*
X154249523Y-24013390D02*
X154201904Y-24061009D01*
X154201904Y-24061009D02*
X154106666Y-24108628D01*
X154106666Y-24108628D02*
X153725714Y-24108628D01*
X155249523Y-24584819D02*
X154678095Y-24584819D01*
X154963809Y-24584819D02*
X154963809Y-23584819D01*
X154963809Y-23584819D02*
X154868571Y-23727676D01*
X154868571Y-23727676D02*
X154773333Y-23822914D01*
X154773333Y-23822914D02*
X154678095Y-23870533D01*
X155582857Y-23584819D02*
X156201904Y-23584819D01*
X156201904Y-23584819D02*
X155868571Y-23965771D01*
X155868571Y-23965771D02*
X156011428Y-23965771D01*
X156011428Y-23965771D02*
X156106666Y-24013390D01*
X156106666Y-24013390D02*
X156154285Y-24061009D01*
X156154285Y-24061009D02*
X156201904Y-24156247D01*
X156201904Y-24156247D02*
X156201904Y-24394342D01*
X156201904Y-24394342D02*
X156154285Y-24489580D01*
X156154285Y-24489580D02*
X156106666Y-24537200D01*
X156106666Y-24537200D02*
X156011428Y-24584819D01*
X156011428Y-24584819D02*
X155725714Y-24584819D01*
X155725714Y-24584819D02*
X155630476Y-24537200D01*
X155630476Y-24537200D02*
X155582857Y-24489580D01*
X124730000Y-31989866D02*
X125396667Y-31989866D01*
X124596667Y-32389866D02*
X125063334Y-30989866D01*
X125063334Y-30989866D02*
X125530000Y-32389866D01*
X126730000Y-32389866D02*
X125930000Y-32389866D01*
X126330000Y-32389866D02*
X126330000Y-30989866D01*
X126330000Y-30989866D02*
X126196667Y-31189866D01*
X126196667Y-31189866D02*
X126063334Y-31323200D01*
X126063334Y-31323200D02*
X125930000Y-31389866D01*
X159734819Y-47543333D02*
X160449104Y-47543333D01*
X160449104Y-47543333D02*
X160591961Y-47590952D01*
X160591961Y-47590952D02*
X160687200Y-47686190D01*
X160687200Y-47686190D02*
X160734819Y-47829047D01*
X160734819Y-47829047D02*
X160734819Y-47924285D01*
X160068152Y-46638571D02*
X160734819Y-46638571D01*
X159687200Y-46876666D02*
X160401485Y-47114761D01*
X160401485Y-47114761D02*
X160401485Y-46495714D01*
X171958095Y-44539819D02*
X171958095Y-45349342D01*
X171958095Y-45349342D02*
X172005714Y-45444580D01*
X172005714Y-45444580D02*
X172053333Y-45492200D01*
X172053333Y-45492200D02*
X172148571Y-45539819D01*
X172148571Y-45539819D02*
X172339047Y-45539819D01*
X172339047Y-45539819D02*
X172434285Y-45492200D01*
X172434285Y-45492200D02*
X172481904Y-45444580D01*
X172481904Y-45444580D02*
X172529523Y-45349342D01*
X172529523Y-45349342D02*
X172529523Y-44539819D01*
X172910476Y-44539819D02*
X173529523Y-44539819D01*
X173529523Y-44539819D02*
X173196190Y-44920771D01*
X173196190Y-44920771D02*
X173339047Y-44920771D01*
X173339047Y-44920771D02*
X173434285Y-44968390D01*
X173434285Y-44968390D02*
X173481904Y-45016009D01*
X173481904Y-45016009D02*
X173529523Y-45111247D01*
X173529523Y-45111247D02*
X173529523Y-45349342D01*
X173529523Y-45349342D02*
X173481904Y-45444580D01*
X173481904Y-45444580D02*
X173434285Y-45492200D01*
X173434285Y-45492200D02*
X173339047Y-45539819D01*
X173339047Y-45539819D02*
X173053333Y-45539819D01*
X173053333Y-45539819D02*
X172958095Y-45492200D01*
X172958095Y-45492200D02*
X172910476Y-45444580D01*
X144446666Y-22314819D02*
X144446666Y-23029104D01*
X144446666Y-23029104D02*
X144399047Y-23171961D01*
X144399047Y-23171961D02*
X144303809Y-23267200D01*
X144303809Y-23267200D02*
X144160952Y-23314819D01*
X144160952Y-23314819D02*
X144065714Y-23314819D01*
X145351428Y-22314819D02*
X145160952Y-22314819D01*
X145160952Y-22314819D02*
X145065714Y-22362438D01*
X145065714Y-22362438D02*
X145018095Y-22410057D01*
X145018095Y-22410057D02*
X144922857Y-22552914D01*
X144922857Y-22552914D02*
X144875238Y-22743390D01*
X144875238Y-22743390D02*
X144875238Y-23124342D01*
X144875238Y-23124342D02*
X144922857Y-23219580D01*
X144922857Y-23219580D02*
X144970476Y-23267200D01*
X144970476Y-23267200D02*
X145065714Y-23314819D01*
X145065714Y-23314819D02*
X145256190Y-23314819D01*
X145256190Y-23314819D02*
X145351428Y-23267200D01*
X145351428Y-23267200D02*
X145399047Y-23219580D01*
X145399047Y-23219580D02*
X145446666Y-23124342D01*
X145446666Y-23124342D02*
X145446666Y-22886247D01*
X145446666Y-22886247D02*
X145399047Y-22791009D01*
X145399047Y-22791009D02*
X145351428Y-22743390D01*
X145351428Y-22743390D02*
X145256190Y-22695771D01*
X145256190Y-22695771D02*
X145065714Y-22695771D01*
X145065714Y-22695771D02*
X144970476Y-22743390D01*
X144970476Y-22743390D02*
X144922857Y-22791009D01*
X144922857Y-22791009D02*
X144875238Y-22886247D01*
X183983333Y-37114819D02*
X183650000Y-36638628D01*
X183411905Y-37114819D02*
X183411905Y-36114819D01*
X183411905Y-36114819D02*
X183792857Y-36114819D01*
X183792857Y-36114819D02*
X183888095Y-36162438D01*
X183888095Y-36162438D02*
X183935714Y-36210057D01*
X183935714Y-36210057D02*
X183983333Y-36305295D01*
X183983333Y-36305295D02*
X183983333Y-36448152D01*
X183983333Y-36448152D02*
X183935714Y-36543390D01*
X183935714Y-36543390D02*
X183888095Y-36591009D01*
X183888095Y-36591009D02*
X183792857Y-36638628D01*
X183792857Y-36638628D02*
X183411905Y-36638628D01*
X184935714Y-37114819D02*
X184364286Y-37114819D01*
X184650000Y-37114819D02*
X184650000Y-36114819D01*
X184650000Y-36114819D02*
X184554762Y-36257676D01*
X184554762Y-36257676D02*
X184459524Y-36352914D01*
X184459524Y-36352914D02*
X184364286Y-36400533D01*
X182864286Y-31374819D02*
X183483333Y-31374819D01*
X183483333Y-31374819D02*
X183150000Y-31755771D01*
X183150000Y-31755771D02*
X183292857Y-31755771D01*
X183292857Y-31755771D02*
X183388095Y-31803390D01*
X183388095Y-31803390D02*
X183435714Y-31851009D01*
X183435714Y-31851009D02*
X183483333Y-31946247D01*
X183483333Y-31946247D02*
X183483333Y-32184342D01*
X183483333Y-32184342D02*
X183435714Y-32279580D01*
X183435714Y-32279580D02*
X183388095Y-32327200D01*
X183388095Y-32327200D02*
X183292857Y-32374819D01*
X183292857Y-32374819D02*
X183007143Y-32374819D01*
X183007143Y-32374819D02*
X182911905Y-32327200D01*
X182911905Y-32327200D02*
X182864286Y-32279580D01*
X183816667Y-31374819D02*
X184435714Y-31374819D01*
X184435714Y-31374819D02*
X184102381Y-31755771D01*
X184102381Y-31755771D02*
X184245238Y-31755771D01*
X184245238Y-31755771D02*
X184340476Y-31803390D01*
X184340476Y-31803390D02*
X184388095Y-31851009D01*
X184388095Y-31851009D02*
X184435714Y-31946247D01*
X184435714Y-31946247D02*
X184435714Y-32184342D01*
X184435714Y-32184342D02*
X184388095Y-32279580D01*
X184388095Y-32279580D02*
X184340476Y-32327200D01*
X184340476Y-32327200D02*
X184245238Y-32374819D01*
X184245238Y-32374819D02*
X183959524Y-32374819D01*
X183959524Y-32374819D02*
X183864286Y-32327200D01*
X183864286Y-32327200D02*
X183816667Y-32279580D01*
X185054762Y-31374819D02*
X185150000Y-31374819D01*
X185150000Y-31374819D02*
X185245238Y-31422438D01*
X185245238Y-31422438D02*
X185292857Y-31470057D01*
X185292857Y-31470057D02*
X185340476Y-31565295D01*
X185340476Y-31565295D02*
X185388095Y-31755771D01*
X185388095Y-31755771D02*
X185388095Y-31993866D01*
X185388095Y-31993866D02*
X185340476Y-32184342D01*
X185340476Y-32184342D02*
X185292857Y-32279580D01*
X185292857Y-32279580D02*
X185245238Y-32327200D01*
X185245238Y-32327200D02*
X185150000Y-32374819D01*
X185150000Y-32374819D02*
X185054762Y-32374819D01*
X185054762Y-32374819D02*
X184959524Y-32327200D01*
X184959524Y-32327200D02*
X184911905Y-32279580D01*
X184911905Y-32279580D02*
X184864286Y-32184342D01*
X184864286Y-32184342D02*
X184816667Y-31993866D01*
X184816667Y-31993866D02*
X184816667Y-31755771D01*
X184816667Y-31755771D02*
X184864286Y-31565295D01*
X184864286Y-31565295D02*
X184911905Y-31470057D01*
X184911905Y-31470057D02*
X184959524Y-31422438D01*
X184959524Y-31422438D02*
X185054762Y-31374819D01*
X185951905Y-60144819D02*
X185951905Y-59144819D01*
X185951905Y-59144819D02*
X186190000Y-59144819D01*
X186190000Y-59144819D02*
X186332857Y-59192438D01*
X186332857Y-59192438D02*
X186428095Y-59287676D01*
X186428095Y-59287676D02*
X186475714Y-59382914D01*
X186475714Y-59382914D02*
X186523333Y-59573390D01*
X186523333Y-59573390D02*
X186523333Y-59716247D01*
X186523333Y-59716247D02*
X186475714Y-59906723D01*
X186475714Y-59906723D02*
X186428095Y-60001961D01*
X186428095Y-60001961D02*
X186332857Y-60097200D01*
X186332857Y-60097200D02*
X186190000Y-60144819D01*
X186190000Y-60144819D02*
X185951905Y-60144819D01*
X187380476Y-59144819D02*
X187190000Y-59144819D01*
X187190000Y-59144819D02*
X187094762Y-59192438D01*
X187094762Y-59192438D02*
X187047143Y-59240057D01*
X187047143Y-59240057D02*
X186951905Y-59382914D01*
X186951905Y-59382914D02*
X186904286Y-59573390D01*
X186904286Y-59573390D02*
X186904286Y-59954342D01*
X186904286Y-59954342D02*
X186951905Y-60049580D01*
X186951905Y-60049580D02*
X186999524Y-60097200D01*
X186999524Y-60097200D02*
X187094762Y-60144819D01*
X187094762Y-60144819D02*
X187285238Y-60144819D01*
X187285238Y-60144819D02*
X187380476Y-60097200D01*
X187380476Y-60097200D02*
X187428095Y-60049580D01*
X187428095Y-60049580D02*
X187475714Y-59954342D01*
X187475714Y-59954342D02*
X187475714Y-59716247D01*
X187475714Y-59716247D02*
X187428095Y-59621009D01*
X187428095Y-59621009D02*
X187380476Y-59573390D01*
X187380476Y-59573390D02*
X187285238Y-59525771D01*
X187285238Y-59525771D02*
X187094762Y-59525771D01*
X187094762Y-59525771D02*
X186999524Y-59573390D01*
X186999524Y-59573390D02*
X186951905Y-59621009D01*
X186951905Y-59621009D02*
X186904286Y-59716247D01*
X187436640Y-52808094D02*
X186436640Y-52808094D01*
X186436640Y-52808094D02*
X186436640Y-52569999D01*
X186436640Y-52569999D02*
X186484259Y-52427142D01*
X186484259Y-52427142D02*
X186579497Y-52331904D01*
X186579497Y-52331904D02*
X186674735Y-52284285D01*
X186674735Y-52284285D02*
X186865211Y-52236666D01*
X186865211Y-52236666D02*
X187008068Y-52236666D01*
X187008068Y-52236666D02*
X187198544Y-52284285D01*
X187198544Y-52284285D02*
X187293782Y-52331904D01*
X187293782Y-52331904D02*
X187389021Y-52427142D01*
X187389021Y-52427142D02*
X187436640Y-52569999D01*
X187436640Y-52569999D02*
X187436640Y-52808094D01*
X186436640Y-51331904D02*
X186436640Y-51808094D01*
X186436640Y-51808094D02*
X186912830Y-51855713D01*
X186912830Y-51855713D02*
X186865211Y-51808094D01*
X186865211Y-51808094D02*
X186817592Y-51712856D01*
X186817592Y-51712856D02*
X186817592Y-51474761D01*
X186817592Y-51474761D02*
X186865211Y-51379523D01*
X186865211Y-51379523D02*
X186912830Y-51331904D01*
X186912830Y-51331904D02*
X187008068Y-51284285D01*
X187008068Y-51284285D02*
X187246163Y-51284285D01*
X187246163Y-51284285D02*
X187341401Y-51331904D01*
X187341401Y-51331904D02*
X187389021Y-51379523D01*
X187389021Y-51379523D02*
X187436640Y-51474761D01*
X187436640Y-51474761D02*
X187436640Y-51712856D01*
X187436640Y-51712856D02*
X187389021Y-51808094D01*
X187389021Y-51808094D02*
X187341401Y-51855713D01*
D12*
%TO.C,J5*%
X202960000Y-40394110D02*
X213000000Y-40394110D01*
X202960000Y-50794110D02*
X202960000Y-40394110D01*
X202960000Y-50794110D02*
X213000000Y-50794110D01*
X205980000Y-50794110D02*
X205980000Y-40394110D01*
X210880000Y-50794110D02*
X210880000Y-40394110D01*
X212380000Y-50794110D02*
X212380000Y-40394110D01*
X213000000Y-47834110D02*
X213000000Y-40394110D01*
X213000000Y-50794110D02*
X213000000Y-48434110D01*
%TO.C,U2*%
X168850000Y-51960000D02*
X168850000Y-57260000D01*
X168850000Y-57260000D02*
X176590000Y-57260000D01*
X176590000Y-51960000D02*
X168850000Y-51960000D01*
X176590000Y-53610000D02*
X176590000Y-51960000D01*
X176590000Y-57260000D02*
X176590000Y-55610000D01*
X176590000Y-55610000D02*
G75*
G02*
X176590000Y-53610000I0J1000000D01*
G01*
%TO.C,C2*%
X173782288Y-63790000D02*
X173782288Y-63340000D01*
X174007288Y-63565000D02*
X173557288Y-63565000D01*
X173589741Y-63290000D02*
G75*
G02*
X173589741Y-61170000I-2119741J1060000D01*
G01*
%TO.C,J2*%
X202890000Y-62020000D02*
X202890000Y-63270000D01*
X203180000Y-62310000D02*
X203180000Y-68280000D01*
X203180000Y-68280000D02*
X210800000Y-68280000D01*
X203190000Y-62320000D02*
X203190000Y-63070000D01*
X203190000Y-63070000D02*
X204990000Y-63070000D01*
X203190000Y-64570000D02*
X203940000Y-64570000D01*
X203940000Y-64570000D02*
X203940000Y-67520000D01*
X203940000Y-67520000D02*
X206990000Y-67520000D01*
X204140000Y-62020000D02*
X202890000Y-62020000D01*
X204990000Y-62320000D02*
X203190000Y-62320000D01*
X204990000Y-63070000D02*
X204990000Y-62320000D01*
X206490000Y-62320000D02*
X206490000Y-63070000D01*
X206490000Y-63070000D02*
X207490000Y-63070000D01*
X207490000Y-62320000D02*
X206490000Y-62320000D01*
X207490000Y-63070000D02*
X207490000Y-62320000D01*
X208990000Y-62320000D02*
X208990000Y-63070000D01*
X208990000Y-63070000D02*
X210790000Y-63070000D01*
X210040000Y-64570000D02*
X210040000Y-67520000D01*
X210040000Y-67520000D02*
X206990000Y-67520000D01*
X210790000Y-62320000D02*
X208990000Y-62320000D01*
X210790000Y-63070000D02*
X210790000Y-62320000D01*
X210790000Y-64570000D02*
X210040000Y-64570000D01*
X210800000Y-62310000D02*
X203180000Y-62310000D01*
X210800000Y-68280000D02*
X210800000Y-62310000D01*
%TO.C,R2*%
X189000000Y-48260000D02*
X189770000Y-48260000D01*
X189770000Y-46890000D02*
X189770000Y-49630000D01*
X189770000Y-49630000D02*
X196310000Y-49630000D01*
X196310000Y-46890000D02*
X189770000Y-46890000D01*
X196310000Y-49630000D02*
X196310000Y-46890000D01*
X197080000Y-48260000D02*
X196310000Y-48260000D01*
%TO.C,J1*%
X202960000Y-30234110D02*
X213000000Y-30234110D01*
X202960000Y-40634110D02*
X202960000Y-30234110D01*
X202960000Y-40634110D02*
X213000000Y-40634110D01*
X205980000Y-40634110D02*
X205980000Y-30234110D01*
X210880000Y-40634110D02*
X210880000Y-30234110D01*
X212380000Y-40634110D02*
X212380000Y-30234110D01*
X213000000Y-37674110D02*
X213000000Y-30234110D01*
X213000000Y-40634110D02*
X213000000Y-38274110D01*
%TO.C,U4*%
X171340000Y-22800000D02*
X171340000Y-30540000D01*
X171340000Y-30540000D02*
X172990000Y-30540000D01*
X174990000Y-30540000D02*
X176640000Y-30540000D01*
X176640000Y-22800000D02*
X171340000Y-22800000D01*
X176640000Y-30540000D02*
X176640000Y-22800000D01*
X172990000Y-30540000D02*
G75*
G02*
X174990000Y-30540000I1000000J0D01*
G01*
%TO.C,J3*%
X203220000Y-53640000D02*
X203220000Y-59610000D01*
X203220000Y-59610000D02*
X210840000Y-59610000D01*
X203230000Y-57350000D02*
X203980000Y-57350000D01*
X203230000Y-58850000D02*
X203230000Y-59600000D01*
X203230000Y-59600000D02*
X205030000Y-59600000D01*
X203980000Y-54400000D02*
X207030000Y-54400000D01*
X203980000Y-57350000D02*
X203980000Y-54400000D01*
X205030000Y-58850000D02*
X203230000Y-58850000D01*
X205030000Y-59600000D02*
X205030000Y-58850000D01*
X206530000Y-58850000D02*
X206530000Y-59600000D01*
X206530000Y-59600000D02*
X207530000Y-59600000D01*
X207530000Y-58850000D02*
X206530000Y-58850000D01*
X207530000Y-59600000D02*
X207530000Y-58850000D01*
X209030000Y-58850000D02*
X209030000Y-59600000D01*
X209030000Y-59600000D02*
X210830000Y-59600000D01*
X209880000Y-59900000D02*
X211130000Y-59900000D01*
X210080000Y-54400000D02*
X207030000Y-54400000D01*
X210080000Y-57350000D02*
X210080000Y-54400000D01*
X210830000Y-57350000D02*
X210080000Y-57350000D01*
X210830000Y-58850000D02*
X209030000Y-58850000D01*
X210830000Y-59600000D02*
X210830000Y-58850000D01*
X210840000Y-53640000D02*
X203220000Y-53640000D01*
X210840000Y-59610000D02*
X210840000Y-53640000D01*
X211130000Y-59900000D02*
X211130000Y-58650000D01*
%TO.C,D8*%
X179690000Y-39260000D02*
X179690000Y-47100000D01*
X179690000Y-47100000D02*
X180170000Y-47100000D01*
X180170000Y-39260000D02*
X179690000Y-39260000D01*
X183050000Y-39260000D02*
X183530000Y-39260000D01*
X183530000Y-39260000D02*
X183530000Y-47100000D01*
X183530000Y-40400000D02*
X179690000Y-40400000D01*
X183530000Y-40520000D02*
X179690000Y-40520000D01*
X183530000Y-40640000D02*
X179690000Y-40640000D01*
X183530000Y-47100000D02*
X183050000Y-47100000D01*
%TO.C,C1*%
X192750000Y-60752288D02*
X193200000Y-60752288D01*
X192975000Y-60977288D02*
X192975000Y-60527288D01*
X193250000Y-60559741D02*
G75*
G02*
X195370000Y-60559741I1060000J2119741D01*
G01*
%TO.C,SW3*%
X156510000Y-66020000D02*
X156510000Y-73640000D01*
X156510000Y-73640000D02*
X162480000Y-73640000D01*
X157270000Y-66780000D02*
X157270000Y-69830000D01*
X157270000Y-72880000D02*
X157270000Y-69830000D01*
X160220000Y-66030000D02*
X160220000Y-66780000D01*
X160220000Y-66780000D02*
X157270000Y-66780000D01*
X160220000Y-72880000D02*
X157270000Y-72880000D01*
X160220000Y-73630000D02*
X160220000Y-72880000D01*
X161720000Y-66030000D02*
X161720000Y-67830000D01*
X161720000Y-67830000D02*
X162470000Y-67830000D01*
X161720000Y-69330000D02*
X161720000Y-70330000D01*
X161720000Y-70330000D02*
X162470000Y-70330000D01*
X161720000Y-71830000D02*
X161720000Y-73630000D01*
X161720000Y-73630000D02*
X162470000Y-73630000D01*
X162470000Y-66030000D02*
X161720000Y-66030000D01*
X162470000Y-67830000D02*
X162470000Y-66030000D01*
X162470000Y-69330000D02*
X161720000Y-69330000D01*
X162470000Y-70330000D02*
X162470000Y-69330000D01*
X162470000Y-71830000D02*
X161720000Y-71830000D01*
X162470000Y-73630000D02*
X162470000Y-71830000D01*
X162480000Y-66020000D02*
X156510000Y-66020000D01*
X162480000Y-73640000D02*
X162480000Y-66020000D01*
X162770000Y-65730000D02*
X161520000Y-65730000D01*
X162770000Y-66980000D02*
X162770000Y-65730000D01*
%TO.C,R4*%
X189000000Y-44324110D02*
X189770000Y-44324110D01*
X189770000Y-42954110D02*
X189770000Y-45694110D01*
X189770000Y-45694110D02*
X196310000Y-45694110D01*
X196310000Y-42954110D02*
X189770000Y-42954110D01*
X196310000Y-45694110D02*
X196310000Y-42954110D01*
X197080000Y-44324110D02*
X196310000Y-44324110D01*
%TO.C,SW4*%
X191751821Y-35224110D02*
X191751821Y-36474110D01*
X192041821Y-35514110D02*
X192041821Y-41484110D01*
X192041821Y-41484110D02*
X199661821Y-41484110D01*
X192051821Y-35524110D02*
X192051821Y-36274110D01*
X192051821Y-36274110D02*
X193851821Y-36274110D01*
X192051821Y-37774110D02*
X192801821Y-37774110D01*
X192801821Y-37774110D02*
X192801821Y-40724110D01*
X192801821Y-40724110D02*
X195851821Y-40724110D01*
X193001821Y-35224110D02*
X191751821Y-35224110D01*
X193851821Y-35524110D02*
X192051821Y-35524110D01*
X193851821Y-36274110D02*
X193851821Y-35524110D01*
X195351821Y-35524110D02*
X195351821Y-36274110D01*
X195351821Y-36274110D02*
X196351821Y-36274110D01*
X196351821Y-35524110D02*
X195351821Y-35524110D01*
X196351821Y-36274110D02*
X196351821Y-35524110D01*
X197851821Y-35524110D02*
X197851821Y-36274110D01*
X197851821Y-36274110D02*
X199651821Y-36274110D01*
X198901821Y-37774110D02*
X198901821Y-40724110D01*
X198901821Y-40724110D02*
X195851821Y-40724110D01*
X199651821Y-35524110D02*
X197851821Y-35524110D01*
X199651821Y-36274110D02*
X199651821Y-35524110D01*
X199651821Y-37774110D02*
X198901821Y-37774110D01*
X199661821Y-35514110D02*
X192041821Y-35514110D01*
X199661821Y-41484110D02*
X199661821Y-35514110D01*
%TO.C,U1*%
X179030000Y-75025000D02*
X179030000Y-70384000D01*
X182299000Y-75025000D02*
X182299000Y-73515000D01*
X186000000Y-75025000D02*
X186000000Y-73515000D01*
X189270000Y-70384000D02*
X179030000Y-70384000D01*
X189270000Y-73515000D02*
X179030000Y-73515000D01*
X189270000Y-75025000D02*
X179030000Y-75025000D01*
X189270000Y-75025000D02*
X189270000Y-70384000D01*
%TO.C,R13*%
X150900000Y-26670000D02*
X151670000Y-26670000D01*
X151670000Y-25300000D02*
X151670000Y-28040000D01*
X151670000Y-28040000D02*
X158210000Y-28040000D01*
X158210000Y-25300000D02*
X151670000Y-25300000D01*
X158210000Y-28040000D02*
X158210000Y-25300000D01*
X158980000Y-26670000D02*
X158210000Y-26670000D01*
D13*
%TO.C,A1*%
X128270000Y-74930000D02*
X128270000Y-31750000D01*
X130810000Y-29210000D02*
X151130000Y-29210000D01*
X151130000Y-77470000D02*
X130810000Y-77470000D01*
X153670000Y-31750000D02*
X153670000Y-74930000D01*
X128270000Y-31750000D02*
G75*
G02*
X130810000Y-29210000I2540001J-1D01*
G01*
X130810000Y-77470000D02*
G75*
G02*
X128270000Y-74930000I1J2540001D01*
G01*
X151130000Y-29210000D02*
G75*
G02*
X153670000Y-31750000I0J-2540000D01*
G01*
X153670000Y-74930000D02*
G75*
G02*
X151130000Y-77470000I-2540000J0D01*
G01*
D14*
X127260000Y-35560000D02*
G75*
G02*
X127060000Y-35560000I-100000J0D01*
G01*
X127060000Y-35560000D02*
G75*
G02*
X127260000Y-35560000I100000J0D01*
G01*
X154880000Y-35560000D02*
G75*
G02*
X154680000Y-35560000I-100000J0D01*
G01*
X154680000Y-35560000D02*
G75*
G02*
X154880000Y-35560000I100000J0D01*
G01*
D12*
%TO.C,J4*%
X161080000Y-62560000D02*
X161080000Y-63810000D01*
X161080000Y-63810000D02*
X162330000Y-63810000D01*
X161370000Y-30900000D02*
X161370000Y-63520000D01*
X161370000Y-63520000D02*
X167340000Y-63520000D01*
X161380000Y-30910000D02*
X161380000Y-32710000D01*
X161380000Y-32710000D02*
X162130000Y-32710000D01*
X161380000Y-34210000D02*
X161380000Y-60210000D01*
X161380000Y-60210000D02*
X162130000Y-60210000D01*
X161380000Y-61710000D02*
X161380000Y-63510000D01*
X161380000Y-63510000D02*
X162130000Y-63510000D01*
X162130000Y-30910000D02*
X161380000Y-30910000D01*
X162130000Y-32710000D02*
X162130000Y-30910000D01*
X162130000Y-34210000D02*
X161380000Y-34210000D01*
X162130000Y-60210000D02*
X162130000Y-34210000D01*
X162130000Y-61710000D02*
X161380000Y-61710000D01*
X162130000Y-63510000D02*
X162130000Y-61710000D01*
X163630000Y-30910000D02*
X163630000Y-31660000D01*
X163630000Y-31660000D02*
X166580000Y-31660000D01*
X163630000Y-62760000D02*
X166580000Y-62760000D01*
X163630000Y-63510000D02*
X163630000Y-62760000D01*
X166580000Y-31660000D02*
X166580000Y-47210000D01*
X166580000Y-62760000D02*
X166580000Y-47210000D01*
X167340000Y-30900000D02*
X161370000Y-30900000D01*
X167340000Y-63520000D02*
X167340000Y-30900000D01*
%TO.C,U3*%
X168850000Y-36720000D02*
X168850000Y-42020000D01*
X168850000Y-42020000D02*
X176590000Y-42020000D01*
X176590000Y-36720000D02*
X168850000Y-36720000D01*
X176590000Y-38370000D02*
X176590000Y-36720000D01*
X176590000Y-42020000D02*
X176590000Y-40370000D01*
X176590000Y-40370000D02*
G75*
G02*
X176590000Y-38370000I0J1000000D01*
G01*
%TO.C,J6*%
X135910000Y-21890000D02*
X135910000Y-27860000D01*
X135910000Y-27860000D02*
X143530000Y-27860000D01*
X135920000Y-25600000D02*
X136670000Y-25600000D01*
X135920000Y-27100000D02*
X135920000Y-27850000D01*
X135920000Y-27850000D02*
X137720000Y-27850000D01*
X136670000Y-22650000D02*
X139720000Y-22650000D01*
X136670000Y-25600000D02*
X136670000Y-22650000D01*
X137720000Y-27100000D02*
X135920000Y-27100000D01*
X137720000Y-27850000D02*
X137720000Y-27100000D01*
X139220000Y-27100000D02*
X139220000Y-27850000D01*
X139220000Y-27850000D02*
X140220000Y-27850000D01*
X140220000Y-27100000D02*
X139220000Y-27100000D01*
X140220000Y-27850000D02*
X140220000Y-27100000D01*
X141720000Y-27100000D02*
X141720000Y-27850000D01*
X141720000Y-27850000D02*
X143520000Y-27850000D01*
X142570000Y-28150000D02*
X143820000Y-28150000D01*
X142770000Y-22650000D02*
X139720000Y-22650000D01*
X142770000Y-25600000D02*
X142770000Y-22650000D01*
X143520000Y-25600000D02*
X142770000Y-25600000D01*
X143520000Y-27100000D02*
X141720000Y-27100000D01*
X143520000Y-27850000D02*
X143520000Y-27100000D01*
X143530000Y-21890000D02*
X135910000Y-21890000D01*
X143530000Y-27860000D02*
X143530000Y-21890000D01*
X143820000Y-28150000D02*
X143820000Y-26900000D01*
%TO.C,R1*%
X180110000Y-34290000D02*
X180880000Y-34290000D01*
X180880000Y-32920000D02*
X180880000Y-35660000D01*
X180880000Y-35660000D02*
X187420000Y-35660000D01*
X187420000Y-32920000D02*
X180880000Y-32920000D01*
X187420000Y-35660000D02*
X187420000Y-32920000D01*
X188190000Y-34290000D02*
X187420000Y-34290000D01*
%TO.C,D6*%
X180230000Y-55230000D02*
X180230000Y-55710000D01*
X180230000Y-59070000D02*
X180230000Y-58590000D01*
X186690000Y-59070000D02*
X186690000Y-55230000D01*
X186810000Y-59070000D02*
X186810000Y-55230000D01*
X186930000Y-59070000D02*
X186930000Y-55230000D01*
X188070000Y-55230000D02*
X180230000Y-55230000D01*
X188070000Y-55710000D02*
X188070000Y-55230000D01*
X188070000Y-58590000D02*
X188070000Y-59070000D01*
X188070000Y-59070000D02*
X180230000Y-59070000D01*
%TO.C,D5*%
X190681821Y-50150000D02*
X198521821Y-50150000D01*
X190681821Y-50630000D02*
X190681821Y-50150000D01*
X190681821Y-53510000D02*
X190681821Y-53990000D01*
X190681821Y-53990000D02*
X198521821Y-53990000D01*
X191821821Y-50150000D02*
X191821821Y-53990000D01*
X191941821Y-50150000D02*
X191941821Y-53990000D01*
X192061821Y-50150000D02*
X192061821Y-53990000D01*
X198521821Y-50150000D02*
X198521821Y-50630000D01*
X198521821Y-53990000D02*
X198521821Y-53510000D01*
%TD*%
M02*
