%TF.GenerationSoftware,KiCad,Pcbnew,9.0.1*%
%TF.CreationDate,2025-04-08T23:22:12-05:00*%
%TF.ProjectId,sump-pump-mon,73756d70-2d70-4756-9d70-2d6d6f6e2e6b,rev?*%
%TF.SameCoordinates,Original*%
%TF.FileFunction,Legend,Bot*%
%TF.FilePolarity,Positive*%
%FSLAX46Y46*%
G04 Gerber Fmt 4.6, Leading zero omitted, Abs format (unit mm)*
G04 Created by KiCad (PCBNEW 9.0.1) date 2025-04-08 23:22:12*
%MOMM*%
%LPD*%
G01*
G04 APERTURE LIST*
%ADD10C,0.150000*%
%ADD11C,0.120000*%
G04 APERTURE END LIST*
D10*
X123150189Y-44655931D02*
X123150189Y-43655931D01*
X122721618Y-43751169D02*
X122673999Y-43703550D01*
X122673999Y-43703550D02*
X122578761Y-43655931D01*
X122578761Y-43655931D02*
X122340666Y-43655931D01*
X122340666Y-43655931D02*
X122245428Y-43703550D01*
X122245428Y-43703550D02*
X122197809Y-43751169D01*
X122197809Y-43751169D02*
X122150190Y-43846407D01*
X122150190Y-43846407D02*
X122150190Y-43941645D01*
X122150190Y-43941645D02*
X122197809Y-44084502D01*
X122197809Y-44084502D02*
X122769237Y-44655931D01*
X122769237Y-44655931D02*
X122150190Y-44655931D01*
X121150190Y-44560692D02*
X121197809Y-44608312D01*
X121197809Y-44608312D02*
X121340666Y-44655931D01*
X121340666Y-44655931D02*
X121435904Y-44655931D01*
X121435904Y-44655931D02*
X121578761Y-44608312D01*
X121578761Y-44608312D02*
X121673999Y-44513073D01*
X121673999Y-44513073D02*
X121721618Y-44417835D01*
X121721618Y-44417835D02*
X121769237Y-44227359D01*
X121769237Y-44227359D02*
X121769237Y-44084502D01*
X121769237Y-44084502D02*
X121721618Y-43894026D01*
X121721618Y-43894026D02*
X121673999Y-43798788D01*
X121673999Y-43798788D02*
X121578761Y-43703550D01*
X121578761Y-43703550D02*
X121435904Y-43655931D01*
X121435904Y-43655931D02*
X121340666Y-43655931D01*
X121340666Y-43655931D02*
X121197809Y-43703550D01*
X121197809Y-43703550D02*
X121150190Y-43751169D01*
X124959713Y-46218256D02*
X124816856Y-46265875D01*
X124816856Y-46265875D02*
X124578761Y-46265875D01*
X124578761Y-46265875D02*
X124483523Y-46218256D01*
X124483523Y-46218256D02*
X124435904Y-46170636D01*
X124435904Y-46170636D02*
X124388285Y-46075398D01*
X124388285Y-46075398D02*
X124388285Y-45980160D01*
X124388285Y-45980160D02*
X124435904Y-45884922D01*
X124435904Y-45884922D02*
X124483523Y-45837303D01*
X124483523Y-45837303D02*
X124578761Y-45789684D01*
X124578761Y-45789684D02*
X124769237Y-45742065D01*
X124769237Y-45742065D02*
X124864475Y-45694446D01*
X124864475Y-45694446D02*
X124912094Y-45646827D01*
X124912094Y-45646827D02*
X124959713Y-45551589D01*
X124959713Y-45551589D02*
X124959713Y-45456351D01*
X124959713Y-45456351D02*
X124912094Y-45361113D01*
X124912094Y-45361113D02*
X124864475Y-45313494D01*
X124864475Y-45313494D02*
X124769237Y-45265875D01*
X124769237Y-45265875D02*
X124531142Y-45265875D01*
X124531142Y-45265875D02*
X124388285Y-45313494D01*
X124102570Y-45599208D02*
X123721618Y-45599208D01*
X123959713Y-45265875D02*
X123959713Y-46123017D01*
X123959713Y-46123017D02*
X123912094Y-46218256D01*
X123912094Y-46218256D02*
X123816856Y-46265875D01*
X123816856Y-46265875D02*
X123721618Y-46265875D01*
X123007332Y-46218256D02*
X123102570Y-46265875D01*
X123102570Y-46265875D02*
X123293046Y-46265875D01*
X123293046Y-46265875D02*
X123388284Y-46218256D01*
X123388284Y-46218256D02*
X123435903Y-46123017D01*
X123435903Y-46123017D02*
X123435903Y-45742065D01*
X123435903Y-45742065D02*
X123388284Y-45646827D01*
X123388284Y-45646827D02*
X123293046Y-45599208D01*
X123293046Y-45599208D02*
X123102570Y-45599208D01*
X123102570Y-45599208D02*
X123007332Y-45646827D01*
X123007332Y-45646827D02*
X122959713Y-45742065D01*
X122959713Y-45742065D02*
X122959713Y-45837303D01*
X122959713Y-45837303D02*
X123435903Y-45932541D01*
X122531141Y-46265875D02*
X122531141Y-45599208D01*
X122531141Y-45694446D02*
X122483522Y-45646827D01*
X122483522Y-45646827D02*
X122388284Y-45599208D01*
X122388284Y-45599208D02*
X122245427Y-45599208D01*
X122245427Y-45599208D02*
X122150189Y-45646827D01*
X122150189Y-45646827D02*
X122102570Y-45742065D01*
X122102570Y-45742065D02*
X122102570Y-46265875D01*
X122102570Y-45742065D02*
X122054951Y-45646827D01*
X122054951Y-45646827D02*
X121959713Y-45599208D01*
X121959713Y-45599208D02*
X121816856Y-45599208D01*
X121816856Y-45599208D02*
X121721617Y-45646827D01*
X121721617Y-45646827D02*
X121673998Y-45742065D01*
X121673998Y-45742065D02*
X121673998Y-46265875D01*
X121197808Y-46265875D02*
X121197808Y-45599208D01*
X121197808Y-45694446D02*
X121150189Y-45646827D01*
X121150189Y-45646827D02*
X121054951Y-45599208D01*
X121054951Y-45599208D02*
X120912094Y-45599208D01*
X120912094Y-45599208D02*
X120816856Y-45646827D01*
X120816856Y-45646827D02*
X120769237Y-45742065D01*
X120769237Y-45742065D02*
X120769237Y-46265875D01*
X120769237Y-45742065D02*
X120721618Y-45646827D01*
X120721618Y-45646827D02*
X120626380Y-45599208D01*
X120626380Y-45599208D02*
X120483523Y-45599208D01*
X120483523Y-45599208D02*
X120388284Y-45646827D01*
X120388284Y-45646827D02*
X120340665Y-45742065D01*
X120340665Y-45742065D02*
X120340665Y-46265875D01*
X119435904Y-46265875D02*
X119435904Y-45742065D01*
X119435904Y-45742065D02*
X119483523Y-45646827D01*
X119483523Y-45646827D02*
X119578761Y-45599208D01*
X119578761Y-45599208D02*
X119769237Y-45599208D01*
X119769237Y-45599208D02*
X119864475Y-45646827D01*
X119435904Y-46218256D02*
X119531142Y-46265875D01*
X119531142Y-46265875D02*
X119769237Y-46265875D01*
X119769237Y-46265875D02*
X119864475Y-46218256D01*
X119864475Y-46218256D02*
X119912094Y-46123017D01*
X119912094Y-46123017D02*
X119912094Y-46027779D01*
X119912094Y-46027779D02*
X119864475Y-45932541D01*
X119864475Y-45932541D02*
X119769237Y-45884922D01*
X119769237Y-45884922D02*
X119531142Y-45884922D01*
X119531142Y-45884922D02*
X119435904Y-45837303D01*
X122174000Y-47971057D02*
X122269238Y-47923438D01*
X122269238Y-47923438D02*
X122364476Y-47828200D01*
X122364476Y-47828200D02*
X122507333Y-47685342D01*
X122507333Y-47685342D02*
X122602571Y-47637723D01*
X122602571Y-47637723D02*
X122697809Y-47637723D01*
X122650190Y-47875819D02*
X122745428Y-47828200D01*
X122745428Y-47828200D02*
X122840666Y-47732961D01*
X122840666Y-47732961D02*
X122888285Y-47542485D01*
X122888285Y-47542485D02*
X122888285Y-47209152D01*
X122888285Y-47209152D02*
X122840666Y-47018676D01*
X122840666Y-47018676D02*
X122745428Y-46923438D01*
X122745428Y-46923438D02*
X122650190Y-46875819D01*
X122650190Y-46875819D02*
X122459714Y-46875819D01*
X122459714Y-46875819D02*
X122364476Y-46923438D01*
X122364476Y-46923438D02*
X122269238Y-47018676D01*
X122269238Y-47018676D02*
X122221619Y-47209152D01*
X122221619Y-47209152D02*
X122221619Y-47542485D01*
X122221619Y-47542485D02*
X122269238Y-47732961D01*
X122269238Y-47732961D02*
X122364476Y-47828200D01*
X122364476Y-47828200D02*
X122459714Y-47875819D01*
X122459714Y-47875819D02*
X122650190Y-47875819D01*
X121935904Y-46875819D02*
X121364476Y-46875819D01*
X121650190Y-47875819D02*
X121650190Y-46875819D01*
X162472666Y-73098819D02*
X162805999Y-72622628D01*
X163044094Y-73098819D02*
X163044094Y-72098819D01*
X163044094Y-72098819D02*
X162663142Y-72098819D01*
X162663142Y-72098819D02*
X162567904Y-72146438D01*
X162567904Y-72146438D02*
X162520285Y-72194057D01*
X162520285Y-72194057D02*
X162472666Y-72289295D01*
X162472666Y-72289295D02*
X162472666Y-72432152D01*
X162472666Y-72432152D02*
X162520285Y-72527390D01*
X162520285Y-72527390D02*
X162567904Y-72575009D01*
X162567904Y-72575009D02*
X162663142Y-72622628D01*
X162663142Y-72622628D02*
X163044094Y-72622628D01*
X161901237Y-72527390D02*
X161996475Y-72479771D01*
X161996475Y-72479771D02*
X162044094Y-72432152D01*
X162044094Y-72432152D02*
X162091713Y-72336914D01*
X162091713Y-72336914D02*
X162091713Y-72289295D01*
X162091713Y-72289295D02*
X162044094Y-72194057D01*
X162044094Y-72194057D02*
X161996475Y-72146438D01*
X161996475Y-72146438D02*
X161901237Y-72098819D01*
X161901237Y-72098819D02*
X161710761Y-72098819D01*
X161710761Y-72098819D02*
X161615523Y-72146438D01*
X161615523Y-72146438D02*
X161567904Y-72194057D01*
X161567904Y-72194057D02*
X161520285Y-72289295D01*
X161520285Y-72289295D02*
X161520285Y-72336914D01*
X161520285Y-72336914D02*
X161567904Y-72432152D01*
X161567904Y-72432152D02*
X161615523Y-72479771D01*
X161615523Y-72479771D02*
X161710761Y-72527390D01*
X161710761Y-72527390D02*
X161901237Y-72527390D01*
X161901237Y-72527390D02*
X161996475Y-72575009D01*
X161996475Y-72575009D02*
X162044094Y-72622628D01*
X162044094Y-72622628D02*
X162091713Y-72717866D01*
X162091713Y-72717866D02*
X162091713Y-72908342D01*
X162091713Y-72908342D02*
X162044094Y-73003580D01*
X162044094Y-73003580D02*
X161996475Y-73051200D01*
X161996475Y-73051200D02*
X161901237Y-73098819D01*
X161901237Y-73098819D02*
X161710761Y-73098819D01*
X161710761Y-73098819D02*
X161615523Y-73051200D01*
X161615523Y-73051200D02*
X161567904Y-73003580D01*
X161567904Y-73003580D02*
X161520285Y-72908342D01*
X161520285Y-72908342D02*
X161520285Y-72717866D01*
X161520285Y-72717866D02*
X161567904Y-72622628D01*
X161567904Y-72622628D02*
X161615523Y-72575009D01*
X161615523Y-72575009D02*
X161710761Y-72527390D01*
X162051904Y-77004152D02*
X162051904Y-77670819D01*
X162289999Y-76623200D02*
X162528094Y-77337485D01*
X162528094Y-77337485D02*
X161909047Y-77337485D01*
X161623332Y-76670819D02*
X160956666Y-76670819D01*
X160956666Y-76670819D02*
X161385237Y-77670819D01*
X160385237Y-76670819D02*
X160289999Y-76670819D01*
X160289999Y-76670819D02*
X160194761Y-76718438D01*
X160194761Y-76718438D02*
X160147142Y-76766057D01*
X160147142Y-76766057D02*
X160099523Y-76861295D01*
X160099523Y-76861295D02*
X160051904Y-77051771D01*
X160051904Y-77051771D02*
X160051904Y-77289866D01*
X160051904Y-77289866D02*
X160099523Y-77480342D01*
X160099523Y-77480342D02*
X160147142Y-77575580D01*
X160147142Y-77575580D02*
X160194761Y-77623200D01*
X160194761Y-77623200D02*
X160289999Y-77670819D01*
X160289999Y-77670819D02*
X160385237Y-77670819D01*
X160385237Y-77670819D02*
X160480475Y-77623200D01*
X160480475Y-77623200D02*
X160528094Y-77575580D01*
X160528094Y-77575580D02*
X160575713Y-77480342D01*
X160575713Y-77480342D02*
X160623332Y-77289866D01*
X160623332Y-77289866D02*
X160623332Y-77051771D01*
X160623332Y-77051771D02*
X160575713Y-76861295D01*
X160575713Y-76861295D02*
X160528094Y-76766057D01*
X160528094Y-76766057D02*
X160480475Y-76718438D01*
X160480475Y-76718438D02*
X160385237Y-76670819D01*
X125354819Y-39036666D02*
X126069104Y-39036666D01*
X126069104Y-39036666D02*
X126211961Y-38989047D01*
X126211961Y-38989047D02*
X126307200Y-38893809D01*
X126307200Y-38893809D02*
X126354819Y-38750952D01*
X126354819Y-38750952D02*
X126354819Y-38655714D01*
X125783390Y-39655714D02*
X125735771Y-39560476D01*
X125735771Y-39560476D02*
X125688152Y-39512857D01*
X125688152Y-39512857D02*
X125592914Y-39465238D01*
X125592914Y-39465238D02*
X125545295Y-39465238D01*
X125545295Y-39465238D02*
X125450057Y-39512857D01*
X125450057Y-39512857D02*
X125402438Y-39560476D01*
X125402438Y-39560476D02*
X125354819Y-39655714D01*
X125354819Y-39655714D02*
X125354819Y-39846190D01*
X125354819Y-39846190D02*
X125402438Y-39941428D01*
X125402438Y-39941428D02*
X125450057Y-39989047D01*
X125450057Y-39989047D02*
X125545295Y-40036666D01*
X125545295Y-40036666D02*
X125592914Y-40036666D01*
X125592914Y-40036666D02*
X125688152Y-39989047D01*
X125688152Y-39989047D02*
X125735771Y-39941428D01*
X125735771Y-39941428D02*
X125783390Y-39846190D01*
X125783390Y-39846190D02*
X125783390Y-39655714D01*
X125783390Y-39655714D02*
X125831009Y-39560476D01*
X125831009Y-39560476D02*
X125878628Y-39512857D01*
X125878628Y-39512857D02*
X125973866Y-39465238D01*
X125973866Y-39465238D02*
X126164342Y-39465238D01*
X126164342Y-39465238D02*
X126259580Y-39512857D01*
X126259580Y-39512857D02*
X126307200Y-39560476D01*
X126307200Y-39560476D02*
X126354819Y-39655714D01*
X126354819Y-39655714D02*
X126354819Y-39846190D01*
X126354819Y-39846190D02*
X126307200Y-39941428D01*
X126307200Y-39941428D02*
X126259580Y-39989047D01*
X126259580Y-39989047D02*
X126164342Y-40036666D01*
X126164342Y-40036666D02*
X125973866Y-40036666D01*
X125973866Y-40036666D02*
X125878628Y-39989047D01*
X125878628Y-39989047D02*
X125831009Y-39941428D01*
X125831009Y-39941428D02*
X125783390Y-39846190D01*
X147486666Y-47952819D02*
X147819999Y-47476628D01*
X148058094Y-47952819D02*
X148058094Y-46952819D01*
X148058094Y-46952819D02*
X147677142Y-46952819D01*
X147677142Y-46952819D02*
X147581904Y-47000438D01*
X147581904Y-47000438D02*
X147534285Y-47048057D01*
X147534285Y-47048057D02*
X147486666Y-47143295D01*
X147486666Y-47143295D02*
X147486666Y-47286152D01*
X147486666Y-47286152D02*
X147534285Y-47381390D01*
X147534285Y-47381390D02*
X147581904Y-47429009D01*
X147581904Y-47429009D02*
X147677142Y-47476628D01*
X147677142Y-47476628D02*
X148058094Y-47476628D01*
X147153332Y-46952819D02*
X146486666Y-46952819D01*
X146486666Y-46952819D02*
X146915237Y-47952819D01*
X148486666Y-33332057D02*
X148439047Y-33284438D01*
X148439047Y-33284438D02*
X148343809Y-33236819D01*
X148343809Y-33236819D02*
X148105714Y-33236819D01*
X148105714Y-33236819D02*
X148010476Y-33284438D01*
X148010476Y-33284438D02*
X147962857Y-33332057D01*
X147962857Y-33332057D02*
X147915238Y-33427295D01*
X147915238Y-33427295D02*
X147915238Y-33522533D01*
X147915238Y-33522533D02*
X147962857Y-33665390D01*
X147962857Y-33665390D02*
X148534285Y-34236819D01*
X148534285Y-34236819D02*
X147915238Y-34236819D01*
X147534285Y-33332057D02*
X147486666Y-33284438D01*
X147486666Y-33284438D02*
X147391428Y-33236819D01*
X147391428Y-33236819D02*
X147153333Y-33236819D01*
X147153333Y-33236819D02*
X147058095Y-33284438D01*
X147058095Y-33284438D02*
X147010476Y-33332057D01*
X147010476Y-33332057D02*
X146962857Y-33427295D01*
X146962857Y-33427295D02*
X146962857Y-33522533D01*
X146962857Y-33522533D02*
X147010476Y-33665390D01*
X147010476Y-33665390D02*
X147581904Y-34236819D01*
X147581904Y-34236819D02*
X146962857Y-34236819D01*
X146534285Y-34236819D02*
X146534285Y-33236819D01*
X146439047Y-33855866D02*
X146153333Y-34236819D01*
X146153333Y-33570152D02*
X146534285Y-33951104D01*
X139072857Y-50492819D02*
X139406190Y-50016628D01*
X139644285Y-50492819D02*
X139644285Y-49492819D01*
X139644285Y-49492819D02*
X139263333Y-49492819D01*
X139263333Y-49492819D02*
X139168095Y-49540438D01*
X139168095Y-49540438D02*
X139120476Y-49588057D01*
X139120476Y-49588057D02*
X139072857Y-49683295D01*
X139072857Y-49683295D02*
X139072857Y-49826152D01*
X139072857Y-49826152D02*
X139120476Y-49921390D01*
X139120476Y-49921390D02*
X139168095Y-49969009D01*
X139168095Y-49969009D02*
X139263333Y-50016628D01*
X139263333Y-50016628D02*
X139644285Y-50016628D01*
X138120476Y-50492819D02*
X138691904Y-50492819D01*
X138406190Y-50492819D02*
X138406190Y-49492819D01*
X138406190Y-49492819D02*
X138501428Y-49635676D01*
X138501428Y-49635676D02*
X138596666Y-49730914D01*
X138596666Y-49730914D02*
X138691904Y-49778533D01*
X137263333Y-49826152D02*
X137263333Y-50492819D01*
X137501428Y-49445200D02*
X137739523Y-50159485D01*
X137739523Y-50159485D02*
X137120476Y-50159485D01*
X139834761Y-35872057D02*
X139787142Y-35824438D01*
X139787142Y-35824438D02*
X139691904Y-35776819D01*
X139691904Y-35776819D02*
X139453809Y-35776819D01*
X139453809Y-35776819D02*
X139358571Y-35824438D01*
X139358571Y-35824438D02*
X139310952Y-35872057D01*
X139310952Y-35872057D02*
X139263333Y-35967295D01*
X139263333Y-35967295D02*
X139263333Y-36062533D01*
X139263333Y-36062533D02*
X139310952Y-36205390D01*
X139310952Y-36205390D02*
X139882380Y-36776819D01*
X139882380Y-36776819D02*
X139263333Y-36776819D01*
X138834761Y-36681580D02*
X138787142Y-36729200D01*
X138787142Y-36729200D02*
X138834761Y-36776819D01*
X138834761Y-36776819D02*
X138882380Y-36729200D01*
X138882380Y-36729200D02*
X138834761Y-36681580D01*
X138834761Y-36681580D02*
X138834761Y-36776819D01*
X138453809Y-35776819D02*
X137787143Y-35776819D01*
X137787143Y-35776819D02*
X138215714Y-36776819D01*
X137406190Y-36776819D02*
X137406190Y-35776819D01*
X137310952Y-36395866D02*
X137025238Y-36776819D01*
X137025238Y-36110152D02*
X137406190Y-36491104D01*
X134786666Y-55826819D02*
X135119999Y-55350628D01*
X135358094Y-55826819D02*
X135358094Y-54826819D01*
X135358094Y-54826819D02*
X134977142Y-54826819D01*
X134977142Y-54826819D02*
X134881904Y-54874438D01*
X134881904Y-54874438D02*
X134834285Y-54922057D01*
X134834285Y-54922057D02*
X134786666Y-55017295D01*
X134786666Y-55017295D02*
X134786666Y-55160152D01*
X134786666Y-55160152D02*
X134834285Y-55255390D01*
X134834285Y-55255390D02*
X134881904Y-55303009D01*
X134881904Y-55303009D02*
X134977142Y-55350628D01*
X134977142Y-55350628D02*
X135358094Y-55350628D01*
X133929523Y-54826819D02*
X134119999Y-54826819D01*
X134119999Y-54826819D02*
X134215237Y-54874438D01*
X134215237Y-54874438D02*
X134262856Y-54922057D01*
X134262856Y-54922057D02*
X134358094Y-55064914D01*
X134358094Y-55064914D02*
X134405713Y-55255390D01*
X134405713Y-55255390D02*
X134405713Y-55636342D01*
X134405713Y-55636342D02*
X134358094Y-55731580D01*
X134358094Y-55731580D02*
X134310475Y-55779200D01*
X134310475Y-55779200D02*
X134215237Y-55826819D01*
X134215237Y-55826819D02*
X134024761Y-55826819D01*
X134024761Y-55826819D02*
X133929523Y-55779200D01*
X133929523Y-55779200D02*
X133881904Y-55731580D01*
X133881904Y-55731580D02*
X133834285Y-55636342D01*
X133834285Y-55636342D02*
X133834285Y-55398247D01*
X133834285Y-55398247D02*
X133881904Y-55303009D01*
X133881904Y-55303009D02*
X133929523Y-55255390D01*
X133929523Y-55255390D02*
X134024761Y-55207771D01*
X134024761Y-55207771D02*
X134215237Y-55207771D01*
X134215237Y-55207771D02*
X134310475Y-55255390D01*
X134310475Y-55255390D02*
X134358094Y-55303009D01*
X134358094Y-55303009D02*
X134405713Y-55398247D01*
X135786666Y-40952057D02*
X135739047Y-40904438D01*
X135739047Y-40904438D02*
X135643809Y-40856819D01*
X135643809Y-40856819D02*
X135405714Y-40856819D01*
X135405714Y-40856819D02*
X135310476Y-40904438D01*
X135310476Y-40904438D02*
X135262857Y-40952057D01*
X135262857Y-40952057D02*
X135215238Y-41047295D01*
X135215238Y-41047295D02*
X135215238Y-41142533D01*
X135215238Y-41142533D02*
X135262857Y-41285390D01*
X135262857Y-41285390D02*
X135834285Y-41856819D01*
X135834285Y-41856819D02*
X135215238Y-41856819D01*
X134834285Y-40952057D02*
X134786666Y-40904438D01*
X134786666Y-40904438D02*
X134691428Y-40856819D01*
X134691428Y-40856819D02*
X134453333Y-40856819D01*
X134453333Y-40856819D02*
X134358095Y-40904438D01*
X134358095Y-40904438D02*
X134310476Y-40952057D01*
X134310476Y-40952057D02*
X134262857Y-41047295D01*
X134262857Y-41047295D02*
X134262857Y-41142533D01*
X134262857Y-41142533D02*
X134310476Y-41285390D01*
X134310476Y-41285390D02*
X134881904Y-41856819D01*
X134881904Y-41856819D02*
X134262857Y-41856819D01*
X133834285Y-41856819D02*
X133834285Y-40856819D01*
X133739047Y-41475866D02*
X133453333Y-41856819D01*
X133453333Y-41190152D02*
X133834285Y-41571104D01*
X144152857Y-46682819D02*
X144486190Y-46206628D01*
X144724285Y-46682819D02*
X144724285Y-45682819D01*
X144724285Y-45682819D02*
X144343333Y-45682819D01*
X144343333Y-45682819D02*
X144248095Y-45730438D01*
X144248095Y-45730438D02*
X144200476Y-45778057D01*
X144200476Y-45778057D02*
X144152857Y-45873295D01*
X144152857Y-45873295D02*
X144152857Y-46016152D01*
X144152857Y-46016152D02*
X144200476Y-46111390D01*
X144200476Y-46111390D02*
X144248095Y-46159009D01*
X144248095Y-46159009D02*
X144343333Y-46206628D01*
X144343333Y-46206628D02*
X144724285Y-46206628D01*
X143200476Y-46682819D02*
X143771904Y-46682819D01*
X143486190Y-46682819D02*
X143486190Y-45682819D01*
X143486190Y-45682819D02*
X143581428Y-45825676D01*
X143581428Y-45825676D02*
X143676666Y-45920914D01*
X143676666Y-45920914D02*
X143771904Y-45968533D01*
X142581428Y-45682819D02*
X142486190Y-45682819D01*
X142486190Y-45682819D02*
X142390952Y-45730438D01*
X142390952Y-45730438D02*
X142343333Y-45778057D01*
X142343333Y-45778057D02*
X142295714Y-45873295D01*
X142295714Y-45873295D02*
X142248095Y-46063771D01*
X142248095Y-46063771D02*
X142248095Y-46301866D01*
X142248095Y-46301866D02*
X142295714Y-46492342D01*
X142295714Y-46492342D02*
X142343333Y-46587580D01*
X142343333Y-46587580D02*
X142390952Y-46635200D01*
X142390952Y-46635200D02*
X142486190Y-46682819D01*
X142486190Y-46682819D02*
X142581428Y-46682819D01*
X142581428Y-46682819D02*
X142676666Y-46635200D01*
X142676666Y-46635200D02*
X142724285Y-46587580D01*
X142724285Y-46587580D02*
X142771904Y-46492342D01*
X142771904Y-46492342D02*
X142819523Y-46301866D01*
X142819523Y-46301866D02*
X142819523Y-46063771D01*
X142819523Y-46063771D02*
X142771904Y-45873295D01*
X142771904Y-45873295D02*
X142724285Y-45778057D01*
X142724285Y-45778057D02*
X142676666Y-45730438D01*
X142676666Y-45730438D02*
X142581428Y-45682819D01*
X144748094Y-31808057D02*
X144700475Y-31760438D01*
X144700475Y-31760438D02*
X144605237Y-31712819D01*
X144605237Y-31712819D02*
X144367142Y-31712819D01*
X144367142Y-31712819D02*
X144271904Y-31760438D01*
X144271904Y-31760438D02*
X144224285Y-31808057D01*
X144224285Y-31808057D02*
X144176666Y-31903295D01*
X144176666Y-31903295D02*
X144176666Y-31998533D01*
X144176666Y-31998533D02*
X144224285Y-32141390D01*
X144224285Y-32141390D02*
X144795713Y-32712819D01*
X144795713Y-32712819D02*
X144176666Y-32712819D01*
X143795713Y-31808057D02*
X143748094Y-31760438D01*
X143748094Y-31760438D02*
X143652856Y-31712819D01*
X143652856Y-31712819D02*
X143414761Y-31712819D01*
X143414761Y-31712819D02*
X143319523Y-31760438D01*
X143319523Y-31760438D02*
X143271904Y-31808057D01*
X143271904Y-31808057D02*
X143224285Y-31903295D01*
X143224285Y-31903295D02*
X143224285Y-31998533D01*
X143224285Y-31998533D02*
X143271904Y-32141390D01*
X143271904Y-32141390D02*
X143843332Y-32712819D01*
X143843332Y-32712819D02*
X143224285Y-32712819D01*
X142605237Y-31712819D02*
X142509999Y-31712819D01*
X142509999Y-31712819D02*
X142414761Y-31760438D01*
X142414761Y-31760438D02*
X142367142Y-31808057D01*
X142367142Y-31808057D02*
X142319523Y-31903295D01*
X142319523Y-31903295D02*
X142271904Y-32093771D01*
X142271904Y-32093771D02*
X142271904Y-32331866D01*
X142271904Y-32331866D02*
X142319523Y-32522342D01*
X142319523Y-32522342D02*
X142367142Y-32617580D01*
X142367142Y-32617580D02*
X142414761Y-32665200D01*
X142414761Y-32665200D02*
X142509999Y-32712819D01*
X142509999Y-32712819D02*
X142605237Y-32712819D01*
X142605237Y-32712819D02*
X142700475Y-32665200D01*
X142700475Y-32665200D02*
X142748094Y-32617580D01*
X142748094Y-32617580D02*
X142795713Y-32522342D01*
X142795713Y-32522342D02*
X142843332Y-32331866D01*
X142843332Y-32331866D02*
X142843332Y-32093771D01*
X142843332Y-32093771D02*
X142795713Y-31903295D01*
X142795713Y-31903295D02*
X142748094Y-31808057D01*
X142748094Y-31808057D02*
X142700475Y-31760438D01*
X142700475Y-31760438D02*
X142605237Y-31712819D01*
X160304819Y-55237142D02*
X159828628Y-54903809D01*
X160304819Y-54665714D02*
X159304819Y-54665714D01*
X159304819Y-54665714D02*
X159304819Y-55046666D01*
X159304819Y-55046666D02*
X159352438Y-55141904D01*
X159352438Y-55141904D02*
X159400057Y-55189523D01*
X159400057Y-55189523D02*
X159495295Y-55237142D01*
X159495295Y-55237142D02*
X159638152Y-55237142D01*
X159638152Y-55237142D02*
X159733390Y-55189523D01*
X159733390Y-55189523D02*
X159781009Y-55141904D01*
X159781009Y-55141904D02*
X159828628Y-55046666D01*
X159828628Y-55046666D02*
X159828628Y-54665714D01*
X160304819Y-56189523D02*
X160304819Y-55618095D01*
X160304819Y-55903809D02*
X159304819Y-55903809D01*
X159304819Y-55903809D02*
X159447676Y-55808571D01*
X159447676Y-55808571D02*
X159542914Y-55713333D01*
X159542914Y-55713333D02*
X159590533Y-55618095D01*
X160304819Y-57141904D02*
X160304819Y-56570476D01*
X160304819Y-56856190D02*
X159304819Y-56856190D01*
X159304819Y-56856190D02*
X159447676Y-56760952D01*
X159447676Y-56760952D02*
X159542914Y-56665714D01*
X159542914Y-56665714D02*
X159590533Y-56570476D01*
X154660057Y-54641905D02*
X154612438Y-54689524D01*
X154612438Y-54689524D02*
X154564819Y-54784762D01*
X154564819Y-54784762D02*
X154564819Y-55022857D01*
X154564819Y-55022857D02*
X154612438Y-55118095D01*
X154612438Y-55118095D02*
X154660057Y-55165714D01*
X154660057Y-55165714D02*
X154755295Y-55213333D01*
X154755295Y-55213333D02*
X154850533Y-55213333D01*
X154850533Y-55213333D02*
X154993390Y-55165714D01*
X154993390Y-55165714D02*
X155564819Y-54594286D01*
X155564819Y-54594286D02*
X155564819Y-55213333D01*
X154660057Y-55594286D02*
X154612438Y-55641905D01*
X154612438Y-55641905D02*
X154564819Y-55737143D01*
X154564819Y-55737143D02*
X154564819Y-55975238D01*
X154564819Y-55975238D02*
X154612438Y-56070476D01*
X154612438Y-56070476D02*
X154660057Y-56118095D01*
X154660057Y-56118095D02*
X154755295Y-56165714D01*
X154755295Y-56165714D02*
X154850533Y-56165714D01*
X154850533Y-56165714D02*
X154993390Y-56118095D01*
X154993390Y-56118095D02*
X155564819Y-55546667D01*
X155564819Y-55546667D02*
X155564819Y-56165714D01*
X154564819Y-56784762D02*
X154564819Y-56880000D01*
X154564819Y-56880000D02*
X154612438Y-56975238D01*
X154612438Y-56975238D02*
X154660057Y-57022857D01*
X154660057Y-57022857D02*
X154755295Y-57070476D01*
X154755295Y-57070476D02*
X154945771Y-57118095D01*
X154945771Y-57118095D02*
X155183866Y-57118095D01*
X155183866Y-57118095D02*
X155374342Y-57070476D01*
X155374342Y-57070476D02*
X155469580Y-57022857D01*
X155469580Y-57022857D02*
X155517200Y-56975238D01*
X155517200Y-56975238D02*
X155564819Y-56880000D01*
X155564819Y-56880000D02*
X155564819Y-56784762D01*
X155564819Y-56784762D02*
X155517200Y-56689524D01*
X155517200Y-56689524D02*
X155469580Y-56641905D01*
X155469580Y-56641905D02*
X155374342Y-56594286D01*
X155374342Y-56594286D02*
X155183866Y-56546667D01*
X155183866Y-56546667D02*
X154945771Y-56546667D01*
X154945771Y-56546667D02*
X154755295Y-56594286D01*
X154755295Y-56594286D02*
X154660057Y-56641905D01*
X154660057Y-56641905D02*
X154612438Y-56689524D01*
X154612438Y-56689524D02*
X154564819Y-56784762D01*
X186382819Y-56411905D02*
X185382819Y-56411905D01*
X185382819Y-56411905D02*
X185382819Y-56650000D01*
X185382819Y-56650000D02*
X185430438Y-56792857D01*
X185430438Y-56792857D02*
X185525676Y-56888095D01*
X185525676Y-56888095D02*
X185620914Y-56935714D01*
X185620914Y-56935714D02*
X185811390Y-56983333D01*
X185811390Y-56983333D02*
X185954247Y-56983333D01*
X185954247Y-56983333D02*
X186144723Y-56935714D01*
X186144723Y-56935714D02*
X186239961Y-56888095D01*
X186239961Y-56888095D02*
X186335200Y-56792857D01*
X186335200Y-56792857D02*
X186382819Y-56650000D01*
X186382819Y-56650000D02*
X186382819Y-56411905D01*
X185382819Y-57316667D02*
X185382819Y-57983333D01*
X185382819Y-57983333D02*
X186382819Y-57554762D01*
X160304819Y-37933333D02*
X159828628Y-37600000D01*
X160304819Y-37361905D02*
X159304819Y-37361905D01*
X159304819Y-37361905D02*
X159304819Y-37742857D01*
X159304819Y-37742857D02*
X159352438Y-37838095D01*
X159352438Y-37838095D02*
X159400057Y-37885714D01*
X159400057Y-37885714D02*
X159495295Y-37933333D01*
X159495295Y-37933333D02*
X159638152Y-37933333D01*
X159638152Y-37933333D02*
X159733390Y-37885714D01*
X159733390Y-37885714D02*
X159781009Y-37838095D01*
X159781009Y-37838095D02*
X159828628Y-37742857D01*
X159828628Y-37742857D02*
X159828628Y-37361905D01*
X160304819Y-38409524D02*
X160304819Y-38600000D01*
X160304819Y-38600000D02*
X160257200Y-38695238D01*
X160257200Y-38695238D02*
X160209580Y-38742857D01*
X160209580Y-38742857D02*
X160066723Y-38838095D01*
X160066723Y-38838095D02*
X159876247Y-38885714D01*
X159876247Y-38885714D02*
X159495295Y-38885714D01*
X159495295Y-38885714D02*
X159400057Y-38838095D01*
X159400057Y-38838095D02*
X159352438Y-38790476D01*
X159352438Y-38790476D02*
X159304819Y-38695238D01*
X159304819Y-38695238D02*
X159304819Y-38504762D01*
X159304819Y-38504762D02*
X159352438Y-38409524D01*
X159352438Y-38409524D02*
X159400057Y-38361905D01*
X159400057Y-38361905D02*
X159495295Y-38314286D01*
X159495295Y-38314286D02*
X159733390Y-38314286D01*
X159733390Y-38314286D02*
X159828628Y-38361905D01*
X159828628Y-38361905D02*
X159876247Y-38409524D01*
X159876247Y-38409524D02*
X159923866Y-38504762D01*
X159923866Y-38504762D02*
X159923866Y-38695238D01*
X159923866Y-38695238D02*
X159876247Y-38790476D01*
X159876247Y-38790476D02*
X159828628Y-38838095D01*
X159828628Y-38838095D02*
X159733390Y-38885714D01*
X154660057Y-36861905D02*
X154612438Y-36909524D01*
X154612438Y-36909524D02*
X154564819Y-37004762D01*
X154564819Y-37004762D02*
X154564819Y-37242857D01*
X154564819Y-37242857D02*
X154612438Y-37338095D01*
X154612438Y-37338095D02*
X154660057Y-37385714D01*
X154660057Y-37385714D02*
X154755295Y-37433333D01*
X154755295Y-37433333D02*
X154850533Y-37433333D01*
X154850533Y-37433333D02*
X154993390Y-37385714D01*
X154993390Y-37385714D02*
X155564819Y-36814286D01*
X155564819Y-36814286D02*
X155564819Y-37433333D01*
X154660057Y-37814286D02*
X154612438Y-37861905D01*
X154612438Y-37861905D02*
X154564819Y-37957143D01*
X154564819Y-37957143D02*
X154564819Y-38195238D01*
X154564819Y-38195238D02*
X154612438Y-38290476D01*
X154612438Y-38290476D02*
X154660057Y-38338095D01*
X154660057Y-38338095D02*
X154755295Y-38385714D01*
X154755295Y-38385714D02*
X154850533Y-38385714D01*
X154850533Y-38385714D02*
X154993390Y-38338095D01*
X154993390Y-38338095D02*
X155564819Y-37766667D01*
X155564819Y-37766667D02*
X155564819Y-38385714D01*
X154564819Y-39004762D02*
X154564819Y-39100000D01*
X154564819Y-39100000D02*
X154612438Y-39195238D01*
X154612438Y-39195238D02*
X154660057Y-39242857D01*
X154660057Y-39242857D02*
X154755295Y-39290476D01*
X154755295Y-39290476D02*
X154945771Y-39338095D01*
X154945771Y-39338095D02*
X155183866Y-39338095D01*
X155183866Y-39338095D02*
X155374342Y-39290476D01*
X155374342Y-39290476D02*
X155469580Y-39242857D01*
X155469580Y-39242857D02*
X155517200Y-39195238D01*
X155517200Y-39195238D02*
X155564819Y-39100000D01*
X155564819Y-39100000D02*
X155564819Y-39004762D01*
X155564819Y-39004762D02*
X155517200Y-38909524D01*
X155517200Y-38909524D02*
X155469580Y-38861905D01*
X155469580Y-38861905D02*
X155374342Y-38814286D01*
X155374342Y-38814286D02*
X155183866Y-38766667D01*
X155183866Y-38766667D02*
X154945771Y-38766667D01*
X154945771Y-38766667D02*
X154755295Y-38814286D01*
X154755295Y-38814286D02*
X154660057Y-38861905D01*
X154660057Y-38861905D02*
X154612438Y-38909524D01*
X154612438Y-38909524D02*
X154564819Y-39004762D01*
X141390666Y-68526819D02*
X141723999Y-68050628D01*
X141962094Y-68526819D02*
X141962094Y-67526819D01*
X141962094Y-67526819D02*
X141581142Y-67526819D01*
X141581142Y-67526819D02*
X141485904Y-67574438D01*
X141485904Y-67574438D02*
X141438285Y-67622057D01*
X141438285Y-67622057D02*
X141390666Y-67717295D01*
X141390666Y-67717295D02*
X141390666Y-67860152D01*
X141390666Y-67860152D02*
X141438285Y-67955390D01*
X141438285Y-67955390D02*
X141485904Y-68003009D01*
X141485904Y-68003009D02*
X141581142Y-68050628D01*
X141581142Y-68050628D02*
X141962094Y-68050628D01*
X140485904Y-67526819D02*
X140962094Y-67526819D01*
X140962094Y-67526819D02*
X141009713Y-68003009D01*
X141009713Y-68003009D02*
X140962094Y-67955390D01*
X140962094Y-67955390D02*
X140866856Y-67907771D01*
X140866856Y-67907771D02*
X140628761Y-67907771D01*
X140628761Y-67907771D02*
X140533523Y-67955390D01*
X140533523Y-67955390D02*
X140485904Y-68003009D01*
X140485904Y-68003009D02*
X140438285Y-68098247D01*
X140438285Y-68098247D02*
X140438285Y-68336342D01*
X140438285Y-68336342D02*
X140485904Y-68431580D01*
X140485904Y-68431580D02*
X140533523Y-68479200D01*
X140533523Y-68479200D02*
X140628761Y-68526819D01*
X140628761Y-68526819D02*
X140866856Y-68526819D01*
X140866856Y-68526819D02*
X140962094Y-68479200D01*
X140962094Y-68479200D02*
X141009713Y-68431580D01*
X142644666Y-53652057D02*
X142597047Y-53604438D01*
X142597047Y-53604438D02*
X142501809Y-53556819D01*
X142501809Y-53556819D02*
X142263714Y-53556819D01*
X142263714Y-53556819D02*
X142168476Y-53604438D01*
X142168476Y-53604438D02*
X142120857Y-53652057D01*
X142120857Y-53652057D02*
X142073238Y-53747295D01*
X142073238Y-53747295D02*
X142073238Y-53842533D01*
X142073238Y-53842533D02*
X142120857Y-53985390D01*
X142120857Y-53985390D02*
X142692285Y-54556819D01*
X142692285Y-54556819D02*
X142073238Y-54556819D01*
X141692285Y-53652057D02*
X141644666Y-53604438D01*
X141644666Y-53604438D02*
X141549428Y-53556819D01*
X141549428Y-53556819D02*
X141311333Y-53556819D01*
X141311333Y-53556819D02*
X141216095Y-53604438D01*
X141216095Y-53604438D02*
X141168476Y-53652057D01*
X141168476Y-53652057D02*
X141120857Y-53747295D01*
X141120857Y-53747295D02*
X141120857Y-53842533D01*
X141120857Y-53842533D02*
X141168476Y-53985390D01*
X141168476Y-53985390D02*
X141739904Y-54556819D01*
X141739904Y-54556819D02*
X141120857Y-54556819D01*
X140692285Y-54556819D02*
X140692285Y-53556819D01*
X140597047Y-54175866D02*
X140311333Y-54556819D01*
X140311333Y-53890152D02*
X140692285Y-54271104D01*
X148216857Y-71066819D02*
X148550190Y-70590628D01*
X148788285Y-71066819D02*
X148788285Y-70066819D01*
X148788285Y-70066819D02*
X148407333Y-70066819D01*
X148407333Y-70066819D02*
X148312095Y-70114438D01*
X148312095Y-70114438D02*
X148264476Y-70162057D01*
X148264476Y-70162057D02*
X148216857Y-70257295D01*
X148216857Y-70257295D02*
X148216857Y-70400152D01*
X148216857Y-70400152D02*
X148264476Y-70495390D01*
X148264476Y-70495390D02*
X148312095Y-70543009D01*
X148312095Y-70543009D02*
X148407333Y-70590628D01*
X148407333Y-70590628D02*
X148788285Y-70590628D01*
X147264476Y-71066819D02*
X147835904Y-71066819D01*
X147550190Y-71066819D02*
X147550190Y-70066819D01*
X147550190Y-70066819D02*
X147645428Y-70209676D01*
X147645428Y-70209676D02*
X147740666Y-70304914D01*
X147740666Y-70304914D02*
X147835904Y-70352533D01*
X146883523Y-70162057D02*
X146835904Y-70114438D01*
X146835904Y-70114438D02*
X146740666Y-70066819D01*
X146740666Y-70066819D02*
X146502571Y-70066819D01*
X146502571Y-70066819D02*
X146407333Y-70114438D01*
X146407333Y-70114438D02*
X146359714Y-70162057D01*
X146359714Y-70162057D02*
X146312095Y-70257295D01*
X146312095Y-70257295D02*
X146312095Y-70352533D01*
X146312095Y-70352533D02*
X146359714Y-70495390D01*
X146359714Y-70495390D02*
X146931142Y-71066819D01*
X146931142Y-71066819D02*
X146312095Y-71066819D01*
X148740666Y-56192057D02*
X148693047Y-56144438D01*
X148693047Y-56144438D02*
X148597809Y-56096819D01*
X148597809Y-56096819D02*
X148359714Y-56096819D01*
X148359714Y-56096819D02*
X148264476Y-56144438D01*
X148264476Y-56144438D02*
X148216857Y-56192057D01*
X148216857Y-56192057D02*
X148169238Y-56287295D01*
X148169238Y-56287295D02*
X148169238Y-56382533D01*
X148169238Y-56382533D02*
X148216857Y-56525390D01*
X148216857Y-56525390D02*
X148788285Y-57096819D01*
X148788285Y-57096819D02*
X148169238Y-57096819D01*
X147788285Y-56192057D02*
X147740666Y-56144438D01*
X147740666Y-56144438D02*
X147645428Y-56096819D01*
X147645428Y-56096819D02*
X147407333Y-56096819D01*
X147407333Y-56096819D02*
X147312095Y-56144438D01*
X147312095Y-56144438D02*
X147264476Y-56192057D01*
X147264476Y-56192057D02*
X147216857Y-56287295D01*
X147216857Y-56287295D02*
X147216857Y-56382533D01*
X147216857Y-56382533D02*
X147264476Y-56525390D01*
X147264476Y-56525390D02*
X147835904Y-57096819D01*
X147835904Y-57096819D02*
X147216857Y-57096819D01*
X146788285Y-57096819D02*
X146788285Y-56096819D01*
X146693047Y-56715866D02*
X146407333Y-57096819D01*
X146407333Y-56430152D02*
X146788285Y-56811104D01*
D11*
%TO.C,R8*%
X165330000Y-74930000D02*
X164560000Y-74930000D01*
X164560000Y-76300000D02*
X158020000Y-76300000D01*
X164560000Y-73560000D02*
X164560000Y-76300000D01*
X158020000Y-76300000D02*
X158020000Y-73560000D01*
X158020000Y-73560000D02*
X164560000Y-73560000D01*
X157250000Y-74930000D02*
X158020000Y-74930000D01*
%TO.C,J8*%
X123705000Y-42480000D02*
X123705000Y-41430000D01*
X121205000Y-42480000D02*
X123705000Y-42480000D01*
X123705000Y-41430000D02*
X124695000Y-41430000D01*
X119235000Y-41310000D02*
X119235000Y-37430000D01*
X123705000Y-36260000D02*
X123705000Y-37310000D01*
X121205000Y-36260000D02*
X123705000Y-36260000D01*
%TO.C,R7*%
X145950000Y-37370000D02*
X148690000Y-37370000D01*
X145950000Y-43910000D02*
X145950000Y-37370000D01*
X147320000Y-36600000D02*
X147320000Y-37370000D01*
X147320000Y-44680000D02*
X147320000Y-43910000D01*
X148690000Y-37370000D02*
X148690000Y-43910000D01*
X148690000Y-43910000D02*
X145950000Y-43910000D01*
%TO.C,R14*%
X137060000Y-39910000D02*
X139800000Y-39910000D01*
X137060000Y-46450000D02*
X137060000Y-39910000D01*
X138430000Y-39140000D02*
X138430000Y-39910000D01*
X138430000Y-47220000D02*
X138430000Y-46450000D01*
X139800000Y-39910000D02*
X139800000Y-46450000D01*
X139800000Y-46450000D02*
X137060000Y-46450000D01*
%TO.C,R6*%
X133250000Y-44990000D02*
X135990000Y-44990000D01*
X133250000Y-51530000D02*
X133250000Y-44990000D01*
X134620000Y-44220000D02*
X134620000Y-44990000D01*
X134620000Y-52300000D02*
X134620000Y-51530000D01*
X135990000Y-44990000D02*
X135990000Y-51530000D01*
X135990000Y-51530000D02*
X133250000Y-51530000D01*
%TO.C,R10*%
X142140000Y-36100000D02*
X144880000Y-36100000D01*
X142140000Y-42640000D02*
X142140000Y-36100000D01*
X143510000Y-35330000D02*
X143510000Y-36100000D01*
X143510000Y-43410000D02*
X143510000Y-42640000D01*
X144880000Y-36100000D02*
X144880000Y-42640000D01*
X144880000Y-42640000D02*
X142140000Y-42640000D01*
%TO.C,R11*%
X156110000Y-52610000D02*
X158850000Y-52610000D01*
X156110000Y-59150000D02*
X156110000Y-52610000D01*
X157480000Y-51840000D02*
X157480000Y-52610000D01*
X157480000Y-59920000D02*
X157480000Y-59150000D01*
X158850000Y-52610000D02*
X158850000Y-59150000D01*
X158850000Y-59150000D02*
X156110000Y-59150000D01*
%TO.C,D7*%
X180960000Y-53230000D02*
X180960000Y-61070000D01*
X180960000Y-54370000D02*
X184800000Y-54370000D01*
X180960000Y-54490000D02*
X184800000Y-54490000D01*
X180960000Y-54610000D02*
X184800000Y-54610000D01*
X180960000Y-61070000D02*
X181440000Y-61070000D01*
X181440000Y-53230000D02*
X180960000Y-53230000D01*
X184320000Y-53230000D02*
X184800000Y-53230000D01*
X184800000Y-53230000D02*
X184800000Y-61070000D01*
X184800000Y-61070000D02*
X184320000Y-61070000D01*
%TO.C,R9*%
X156110000Y-34830000D02*
X158850000Y-34830000D01*
X156110000Y-41370000D02*
X156110000Y-34830000D01*
X157480000Y-34060000D02*
X157480000Y-34830000D01*
X157480000Y-42140000D02*
X157480000Y-41370000D01*
X158850000Y-34830000D02*
X158850000Y-41370000D01*
X158850000Y-41370000D02*
X156110000Y-41370000D01*
%TO.C,R5*%
X139938826Y-57690000D02*
X142678826Y-57690000D01*
X139938826Y-64230000D02*
X139938826Y-57690000D01*
X141308826Y-56920000D02*
X141308826Y-57690000D01*
X141308826Y-65000000D02*
X141308826Y-64230000D01*
X142678826Y-57690000D02*
X142678826Y-64230000D01*
X142678826Y-64230000D02*
X139938826Y-64230000D01*
%TO.C,R12*%
X146288826Y-60230000D02*
X149028826Y-60230000D01*
X146288826Y-66770000D02*
X146288826Y-60230000D01*
X147658826Y-59460000D02*
X147658826Y-60230000D01*
X147658826Y-67540000D02*
X147658826Y-66770000D01*
X149028826Y-60230000D02*
X149028826Y-66770000D01*
X149028826Y-66770000D02*
X146288826Y-66770000D01*
%TD*%
M02*
